<svg viewBox="0 0 1006 400" xmlns="http://www.w3.org/2000/svg"><g><g><g><g><g><line x1="51.41600036621094" y1="377.95999908447266" x2="46.41600036621094" y2="377.95999908447266" style="visibility: inherit;" fill="rgb(0, 0, 0)" stroke="rgb(204, 204, 204)" stroke-width="1px"></line><line x1="51.41600036621094" y1="346.4633324940999" x2="46.41600036621094" y2="346.4633324940999" style="visibility: inherit;" fill="rgb(0, 0, 0)" stroke="rgb(204, 204, 204)" stroke-width="1px"></line><line x1="51.41600036621094" y1="314.9666659037271" x2="46.41600036621094" y2="314.9666659037271" style="visibility: inherit;" fill="rgb(0, 0, 0)" stroke="rgb(204, 204, 204)" stroke-width="1px"></line><line x1="51.41600036621094" y1="283.46999931335444" x2="46.41600036621094" y2="283.46999931335444" style="visibility: inherit;" fill="rgb(0, 0, 0)" stroke="rgb(204, 204, 204)" stroke-width="1px"></line><line x1="51.41600036621094" y1="251.97333272298164" x2="46.41600036621094" y2="251.97333272298164" style="visibility: inherit;" fill="rgb(0, 0, 0)" stroke="rgb(204, 204, 204)" stroke-width="1px"></line><line x1="51.41600036621094" y1="220.4766661326089" x2="46.41600036621094" y2="220.4766661326089" style="visibility: inherit;" fill="rgb(0, 0, 0)" stroke="rgb(204, 204, 204)" stroke-width="1px"></line><line x1="51.41600036621094" y1="188.97999954223616" x2="46.41600036621094" y2="188.97999954223616" style="visibility: inherit;" fill="rgb(0, 0, 0)" stroke="rgb(204, 204, 204)" stroke-width="1px"></line><line x1="51.41600036621094" y1="157.4833329518634" x2="46.41600036621094" y2="157.4833329518634" style="visibility: inherit;" fill="rgb(0, 0, 0)" stroke="rgb(204, 204, 204)" stroke-width="1px"></line><line x1="51.41600036621094" y1="125.98666636149065" x2="46.41600036621094" y2="125.98666636149065" style="visibility: inherit;" fill="rgb(0, 0, 0)" stroke="rgb(204, 204, 204)" stroke-width="1px"></line><line x1="51.41600036621094" y1="94.48999977111791" x2="46.41600036621094" y2="94.48999977111791" style="visibility: inherit;" fill="rgb(0, 0, 0)" stroke="rgb(204, 204, 204)" stroke-width="1px"></line><line x1="51.41600036621094" y1="62.99333318074513" x2="46.41600036621094" y2="62.99333318074513" style="visibility: inherit;" fill="rgb(0, 0, 0)" stroke="rgb(204, 204, 204)" stroke-width="1px"></line><line x1="51.41600036621094" y1="31.496666590372737" x2="46.41600036621094" y2="31.496666590372737" style="visibility: inherit;" fill="rgb(0, 0, 0)" stroke="rgb(204, 204, 204)" stroke-width="1px"></line><line x1="51.41600036621094" y1="0" x2="46.41600036621094" y2="0" style="visibility: inherit;" fill="rgb(0, 0, 0)" stroke="rgb(204, 204, 204)" stroke-width="1px"></line></g><g transform="translate(41.41600036621094, 0)"><text style="text-anchor: end; visibility: hidden; font-family: Roboto, sans-serif; font-size: 12px; font-weight: 200;" x="0" y="377.95999908447266" dx="0em" dy="0.3em" fill="rgb(50, 49, 63)" stroke="none" stroke-width="1px">0.83</text><text style="text-anchor: end; visibility: inherit; font-family: Roboto, sans-serif; font-size: 12px; font-weight: 200;" x="0" y="346.4633324940999" dx="0em" dy="0.3em" fill="rgb(50, 49, 63)" stroke="none" stroke-width="1px">0.84</text><text style="text-anchor: end; visibility: inherit; font-family: Roboto, sans-serif; font-size: 12px; font-weight: 200;" x="0" y="314.9666659037271" dx="0em" dy="0.3em" fill="rgb(50, 49, 63)" stroke="none" stroke-width="1px">0.85</text><text style="text-anchor: end; visibility: inherit; font-family: Roboto, sans-serif; font-size: 12px; font-weight: 200;" x="0" y="283.46999931335444" dx="0em" dy="0.3em" fill="rgb(50, 49, 63)" stroke="none" stroke-width="1px">0.86</text><text style="text-anchor: end; visibility: inherit; font-family: Roboto, sans-serif; font-size: 12px; font-weight: 200;" x="0" y="251.97333272298164" dx="0em" dy="0.3em" fill="rgb(50, 49, 63)" stroke="none" stroke-width="1px">0.87</text><text style="text-anchor: end; visibility: inherit; font-family: Roboto, sans-serif; font-size: 12px; font-weight: 200;" x="0" y="220.4766661326089" dx="0em" dy="0.3em" fill="rgb(50, 49, 63)" stroke="none" stroke-width="1px">0.88</text><text style="text-anchor: end; visibility: inherit; font-family: Roboto, sans-serif; font-size: 12px; font-weight: 200;" x="0" y="188.97999954223616" dx="0em" dy="0.3em" fill="rgb(50, 49, 63)" stroke="none" stroke-width="1px">0.89</text><text style="text-anchor: end; visibility: inherit; font-family: Roboto, sans-serif; font-size: 12px; font-weight: 200;" x="0" y="157.4833329518634" dx="0em" dy="0.3em" fill="rgb(50, 49, 63)" stroke="none" stroke-width="1px">0.9</text><text style="text-anchor: end; visibility: inherit; font-family: Roboto, sans-serif; font-size: 12px; font-weight: 200;" x="0" y="125.98666636149065" dx="0em" dy="0.3em" fill="rgb(50, 49, 63)" stroke="none" stroke-width="1px">0.91</text><text style="text-anchor: end; visibility: inherit; font-family: Roboto, sans-serif; font-size: 12px; font-weight: 200;" x="0" y="94.48999977111791" dx="0em" dy="0.3em" fill="rgb(50, 49, 63)" stroke="none" stroke-width="1px">0.92</text><text style="text-anchor: end; visibility: inherit; font-family: Roboto, sans-serif; font-size: 12px; font-weight: 200;" x="0" y="62.99333318074513" dx="0em" dy="0.3em" fill="rgb(50, 49, 63)" stroke="none" stroke-width="1px">0.93</text><text style="text-anchor: end; visibility: inherit; font-family: Roboto, sans-serif; font-size: 12px; font-weight: 200;" x="0" y="31.496666590372737" dx="0em" dy="0.3em" fill="rgb(50, 49, 63)" stroke="none" stroke-width="1px">0.94</text><text style="text-anchor: end; visibility: hidden; font-family: Roboto, sans-serif; font-size: 12px; font-weight: 200;" x="0" y="0" dx="0em" dy="0.3em" fill="rgb(50, 49, 63)" stroke="none" stroke-width="1px">0.95</text></g><line x1="51.41600036621094" y1="0" x2="51.41600036621094" y2="377.95999908447266" fill="rgb(0, 0, 0)" stroke="rgb(204, 204, 204)" stroke-width="1px"></line></g></g><g transform="translate(51, 0)" clip-path="url(#clip_0)"><clipPath id="clip_0"><rect width="954" height="377"></rect></clipPath><g><g><g><line x1="0" y1="0" x2="0" y2="377.95999908447266" fill="rgb(0, 0, 0)" stroke="rgb(60, 60, 60)" stroke-width="1px" opacity="0.25"></line><line x1="79.54866663614908" y1="0" x2="79.54866663614908" y2="377.95999908447266" fill="rgb(0, 0, 0)" stroke="rgb(60, 60, 60)" stroke-width="1px" opacity="0.25"></line><line x1="159.09733327229816" y1="0" x2="159.09733327229816" y2="377.95999908447266" fill="rgb(0, 0, 0)" stroke="rgb(60, 60, 60)" stroke-width="1px" opacity="0.25"></line><line x1="238.64599990844727" y1="0" x2="238.64599990844727" y2="377.95999908447266" fill="rgb(0, 0, 0)" stroke="rgb(60, 60, 60)" stroke-width="1px" opacity="0.25"></line><line x1="318.1946665445963" y1="0" x2="318.1946665445963" y2="377.95999908447266" fill="rgb(0, 0, 0)" stroke="rgb(60, 60, 60)" stroke-width="1px" opacity="0.25"></line><line x1="397.7433331807455" y1="0" x2="397.7433331807455" y2="377.95999908447266" fill="rgb(0, 0, 0)" stroke="rgb(60, 60, 60)" stroke-width="1px" opacity="0.25"></line><line x1="477.29199981689453" y1="0" x2="477.29199981689453" y2="377.95999908447266" fill="rgb(0, 0, 0)" stroke="rgb(60, 60, 60)" stroke-width="1px" opacity="0.25"></line><line x1="556.8406664530437" y1="0" x2="556.8406664530437" y2="377.95999908447266" fill="rgb(0, 0, 0)" stroke="rgb(60, 60, 60)" stroke-width="1px" opacity="0.25"></line><line x1="636.3893330891926" y1="0" x2="636.3893330891926" y2="377.95999908447266" fill="rgb(0, 0, 0)" stroke="rgb(60, 60, 60)" stroke-width="1px" opacity="0.25"></line><line x1="715.9379997253418" y1="0" x2="715.9379997253418" y2="377.95999908447266" fill="rgb(0, 0, 0)" stroke="rgb(60, 60, 60)" stroke-width="1px" opacity="0.25"></line><line x1="795.486666361491" y1="0" x2="795.486666361491" y2="377.95999908447266" fill="rgb(0, 0, 0)" stroke="rgb(60, 60, 60)" stroke-width="1px" opacity="0.25"></line><line x1="875.0353329976399" y1="0" x2="875.0353329976399" y2="377.95999908447266" fill="rgb(0, 0, 0)" stroke="rgb(60, 60, 60)" stroke-width="1px" opacity="0.25"></line><line x1="954.5839996337891" y1="0" x2="954.5839996337891" y2="377.95999908447266" fill="rgb(0, 0, 0)" stroke="rgb(60, 60, 60)" stroke-width="1px" opacity="0.25"></line></g><g><line x1="0" y1="377.95999908447266" x2="954.5839996337891" y2="377.95999908447266" fill="rgb(0, 0, 0)" stroke="rgb(60, 60, 60)" stroke-width="1px" opacity="0.25"></line><line x1="0" y1="346.4633324940999" x2="954.5839996337891" y2="346.4633324940999" fill="rgb(0, 0, 0)" stroke="rgb(60, 60, 60)" stroke-width="1px" opacity="0.25"></line><line x1="0" y1="314.9666659037271" x2="954.5839996337891" y2="314.9666659037271" fill="rgb(0, 0, 0)" stroke="rgb(60, 60, 60)" stroke-width="1px" opacity="0.25"></line><line x1="0" y1="283.46999931335444" x2="954.5839996337891" y2="283.46999931335444" fill="rgb(0, 0, 0)" stroke="rgb(60, 60, 60)" stroke-width="1px" opacity="0.25"></line><line x1="0" y1="251.97333272298164" x2="954.5839996337891" y2="251.97333272298164" fill="rgb(0, 0, 0)" stroke="rgb(60, 60, 60)" stroke-width="1px" opacity="0.25"></line><line x1="0" y1="220.4766661326089" x2="954.5839996337891" y2="220.4766661326089" fill="rgb(0, 0, 0)" stroke="rgb(60, 60, 60)" stroke-width="1px" opacity="0.25"></line><line x1="0" y1="188.97999954223616" x2="954.5839996337891" y2="188.97999954223616" fill="rgb(0, 0, 0)" stroke="rgb(60, 60, 60)" stroke-width="1px" opacity="0.25"></line><line x1="0" y1="157.4833329518634" x2="954.5839996337891" y2="157.4833329518634" fill="rgb(0, 0, 0)" stroke="rgb(60, 60, 60)" stroke-width="1px" opacity="0.25"></line><line x1="0" y1="125.98666636149065" x2="954.5839996337891" y2="125.98666636149065" fill="rgb(0, 0, 0)" stroke="rgb(60, 60, 60)" stroke-width="1px" opacity="0.25"></line><line x1="0" y1="94.48999977111791" x2="954.5839996337891" y2="94.48999977111791" fill="rgb(0, 0, 0)" stroke="rgb(60, 60, 60)" stroke-width="1px" opacity="0.25"></line><line x1="0" y1="62.99333318074513" x2="954.5839996337891" y2="62.99333318074513" fill="rgb(0, 0, 0)" stroke="rgb(60, 60, 60)" stroke-width="1px" opacity="0.25"></line><line x1="0" y1="31.496666590372737" x2="954.5839996337891" y2="31.496666590372737" fill="rgb(0, 0, 0)" stroke="rgb(60, 60, 60)" stroke-width="1px" opacity="0.25"></line><line x1="0" y1="0" x2="954.5839996337891" y2="0" fill="rgb(0, 0, 0)" stroke="rgb(60, 60, 60)" stroke-width="1px" opacity="0.25"></line></g></g></g><g><g><line x1="0" y1="2992.1833260854087" x2="954.5839996337891" y2="2992.1833260854087" fill="rgb(0, 0, 0)" stroke="rgb(153, 153, 153)" stroke-width="1.5px"></line></g></g><g><g><line x1="79.54866663614908" y1="0" x2="79.54866663614908" y2="377.95999908447266" fill="rgb(0, 0, 0)" stroke="rgb(153, 153, 153)" stroke-width="1.5px"></line></g></g><g><g><g><g><g><path style="fill: none;" stroke="rgb(51, 187, 238)" stroke-width="2px" d="M79.54866663614908,536.066326090575L95.45839996337891,340.9543384955652L111.36813329060872,281.109001885411L127.27786661783854,255.69515936824158L143.18759994506834,249.1368331795099L159.09733327229816,246.67750779242613L175.00706659952797,246.67750779242613L190.91679992675782,245.037832377862L206.82653325398763,244.21799467057997L222.73626658121745,244.21799467057997L238.64599990844727,244.21799467057997L254.55573323567708,244.21799467057997L270.4654665629069,244.21799467057997L286.3751998901367,244.21799467057997L302.28493321736653,244.21799467057997L318.1946665445963,244.21799467057997L334.10439987182616,244.21799467057997L350.01413319905595,244.21799467057997L365.92386652628585,244.21799467057997L381.83359985351564,244.21799467057997L397.7433331807455,244.21799467057997L413.65306650797527,244.21799467057997L429.5627998352051,244.21799467057997L445.4725331624349,244.21799467057997L461.38226648966474,244.21799467057997L477.29199981689453,244.21799467057997L493.2017331441244,244.21799467057997L509.11146647135416,244.21799467057997L525.021199798584,244.21799467057997L540.9309331258138,244.21799467057997L556.8406664530437,244.21799467057997L572.7503997802734,244.21799467057997L588.6601331075033,244.21799467057997L604.5698664347331,244.21799467057997L620.479599761963,244.21799467057997L636.3893330891926,244.21799467057997L652.2990664164225,244.21799467057997L668.2087997436523,244.21799467057997L684.1185330708822,244.21799467057997L700.0282663981119,244.21799467057997L715.9379997253418,244.21799467057997L731.8477330525717,244.21799467057997L747.7574663798014,244.21799467057997L763.6671997070313,244.21799467057997L779.5769330342611,244.21799467057997L795.486666361491,244.21799467057997L811.3963996887206,244.21799467057997L827.3061330159505,244.21799467057997L843.2158663431803,244.21799467057997L859.1255996704102,244.21799467057997" fill="none"></path></g><g><path style="fill: none;" stroke="rgb(0, 119, 187)" stroke-width="2px" d="M79.54866663614908,490.9775050072106L95.45839996337891,346.6928269770148L111.36813329060872,290.9464911685085L127.27786661783854,247.4971577649458L143.18759994506834,234.38050538748246L159.09733327229816,234.38050538748246L175.00706659952797,245.85767008514406L190.91679992675782,243.3981569632979L206.82653325398763,241.75866928349618L222.73626658121745,241.75866928349618L238.64599990844727,241.75866928349618L254.55573323567708,241.75866928349618L270.4654665629069,241.75866928349618L286.3751998901367,241.75866928349618L302.28493321736653,241.75866928349618L318.1946665445963,241.75866928349618L334.10439987182616,241.75866928349618L350.01413319905595,241.75866928349618L365.92386652628585,241.75866928349618L381.83359985351564,241.75866928349618L397.7433331807455,241.75866928349618L413.65306650797527,241.75866928349618L429.5627998352051,241.75866928349618L445.4725331624349,241.75866928349618L461.38226648966474,241.75866928349618L477.29199981689453,241.75866928349618L493.2017331441244,241.75866928349618L509.11146647135416,241.75866928349618L525.021199798584,241.75866928349618L540.9309331258138,241.75866928349618L556.8406664530437,241.75866928349618L572.7503997802734,241.75866928349618L588.6601331075033,241.75866928349618L604.5698664347331,241.75866928349618L620.479599761963,241.75866928349618L636.3893330891926,241.75866928349618L652.2990664164225,241.75866928349618L668.2087997436523,241.75866928349618L684.1185330708822,241.75866928349618L700.0282663981119,241.75866928349618L715.9379997253418,241.75866928349618L731.8477330525717,241.75866928349618L747.7574663798014,241.75866928349618L763.6671997070313,241.75866928349618L779.5769330342611,241.75866928349618L795.486666361491,241.75866928349618L811.3963996887206,241.75866928349618L827.3061330159505,241.75866928349618L843.2158663431803,241.75866928349618L859.1255996704102,241.75866928349618" fill="none"></path></g><g><path style="fill: none;" stroke="rgb(0, 153, 136)" stroke-width="2px" d="M79.54866663614908,458.1854985940275L95.45839996337891,318.000009100242L111.36813329060872,266.35267409338354L127.27786661783854,258.9743224626074L143.18759994506834,239.29915616165002L159.09733327229816,240.11899386893208L175.00706659952797,236.0199930672842L190.91679992675782,236.0199930672842L206.82653325398763,238.47950618913035L222.73626658121745,238.47950618913035L238.64599990844727,238.47950618913035L254.55573323567708,238.47950618913035L270.4654665629069,238.47950618913035L286.3751998901367,238.47950618913035L302.28493321736653,238.47950618913035L318.1946665445963,238.47950618913035L334.10439987182616,238.47950618913035L350.01413319905595,238.47950618913035L365.92386652628585,238.47950618913035L381.83359985351564,238.47950618913035L397.7433331807455,238.47950618913035L413.65306650797527,238.47950618913035L429.5627998352051,238.47950618913035L445.4725331624349,238.47950618913035L461.38226648966474,238.47950618913035L477.29199981689453,238.47950618913035L493.2017331441244,238.47950618913035L509.11146647135416,238.47950618913035L525.021199798584,238.47950618913035L540.9309331258138,238.47950618913035L556.8406664530437,238.47950618913035L572.7503997802734,238.47950618913035L588.6601331075033,238.47950618913035L604.5698664347331,238.47950618913035L620.479599761963,238.47950618913035L636.3893330891926,238.47950618913035L652.2990664164225,238.47950618913035L668.2087997436523,238.47950618913035L684.1185330708822,238.47950618913035L700.0282663981119,238.47950618913035L715.9379997253418,238.47950618913035L731.8477330525717,238.47950618913035L747.7574663798014,238.47950618913035L763.6671997070313,238.47950618913035L779.5769330342611,238.47950618913035L795.486666361491,238.47950618913035L811.3963996887206,238.47950618913035L827.3061330159505,238.47950618913035L843.2158663431803,238.47950618913035L859.1255996704102,238.47950618913035" fill="none"></path></g><g><path style="fill: none;" stroke="rgb(204, 51, 17)" stroke-width="2px" d="M79.54866663614908,658.1057489229297L95.45839996337891,272.1446669821094L111.36813329060872,154.17308098084868L127.27786661783854,114.02750392552268L143.18759994506834,99.23700840674337L159.09733327229816,81.9815554580091L175.00706659952797,88.67242238897597L190.91679992675782,75.64269120649124L206.82653325398763,71.76897211969072L222.73626658121745,70.36039819760754L238.64599990844727,77.05126512857441L254.55573323567708,78.10783637120858L270.4654665629069,83.03793896588091L286.3751998901367,79.16421987908039L302.28493321736653,77.4034555427858L318.1946665445963,80.57279380116357L334.10439987182616,86.55946763847003L350.01413319905595,84.44651288796409L365.92386652628585,77.4034555427858L381.83359985351564,80.22079112171456L397.7433331807455,77.4034555427858L413.65306650797527,83.03793896588091L429.5627998352051,76.6992624491254L445.4725331624349,79.16421987908039L461.38226648966474,69.65601736918477L477.29199981689453,85.50308413059825L493.2017331441244,76.34707203491404L509.11146647135416,77.05126512857441L525.021199798584,76.34707203491404L540.9309331258138,82.6857485516695L556.8406664530437,79.86860070750315L572.7503997802734,85.85508681004727L588.6601331075033,78.81202946486898L604.5698664347331,83.03793896588091L620.479599761963,75.64269120649124L636.3893330891926,76.6992624491254L652.2990664164225,77.75564595699721L668.2087997436523,83.74231979430367L684.1185330708822,75.99488162070263L700.0282663981119,75.99488162070263L715.9379997253418,78.10783637120858L731.8477330525717,83.74231979430367L747.7574663798014,73.52973645598529L763.6671997070313,80.22079112171456L779.5769330342611,80.92498421537493L795.486666361491,75.29050079227987L811.3963996887206,81.27717462958633L827.3061330159505,80.22079112171456L843.2158663431803,78.81202946486898L859.1255996704102,84.09432247375268" fill="none"></path></g><g><path style="fill: none;" stroke="rgb(255, 112, 67)" stroke-width="2px" d="M79.54866663614908,665.8529993617684L95.45839996337891,274.25762173261535L111.36813329060872,149.9471714798368L127.27786661783854,109.44959174506175L143.18759994506834,92.89833188998789L159.09733327229816,87.9680415605532L175.00706659952797,86.20727722425863L190.91679992675782,71.41678170547935L206.82653325398763,83.03793896588091L222.73626658121745,77.75564595699721L238.64599990844727,83.74231979430367L254.55573323567708,77.05126512857441L270.4654665629069,75.64269120649124L286.3751998901367,83.03793896588091L302.28493321736653,78.46002678541997L318.1946665445963,77.4034555427858L334.10439987182616,73.1775460417739L350.01413319905595,84.09432247375268L365.92386652628585,72.47335294811352L381.83359985351564,72.82554336232488L397.7433331807455,72.82554336232488L413.65306650797527,77.05126512857441L429.5627998352051,79.16421987908039L445.4725331624349,78.46002678541997L461.38226648966474,78.81202946486898L477.29199981689453,70.00820778339617L493.2017331441244,77.75564595699721L509.11146647135416,76.6992624491254L525.021199798584,71.76897211969072L540.9309331258138,79.86860070750315L556.8406664530437,76.6992624491254L572.7503997802734,76.6992624491254L588.6601331075033,74.23411728440806L604.5698664347331,75.29050079227987L620.479599761963,73.52973645598529L636.3893330891926,78.81202946486898L652.2990664164225,77.05126512857441L668.2087997436523,78.10783637120858L684.1185330708822,78.10783637120858L700.0282663981119,75.64269120649124L715.9379997253418,84.44651288796409L731.8477330525717,81.9815554580091L747.7574663798014,77.05126512857441L763.6671997070313,77.75564595699721L779.5769330342611,80.92498421537493L795.486666361491,77.05126512857441L811.3963996887206,76.34707203491404L827.3061330159505,78.81202946486898L843.2158663431803,79.16421987908039L859.1255996704102,75.64269120649124" fill="none"></path></g><g><path style="fill: none;" stroke="rgb(238, 51, 119)" stroke-width="2px" d="M79.54866663614908,676.0655827000868L95.45839996337891,265.45380005114254L111.36813329060872,161.92051915444972L127.27786661783854,110.85816566714493L143.18759994506834,104.87149182983846L159.09733327229816,77.75564595699721L175.00706659952797,79.16421987908039L190.91679992675782,77.05126512857441L206.82653325398763,74.58630769861945L222.73626658121745,78.10783637120858L238.64599990844727,77.75564595699721L254.55573323567708,80.57279380116357L270.4654665629069,84.09432247375268L286.3751998901367,65.43029560293523L302.28493321736653,77.75564595699721L318.1946665445963,72.12116253390211L334.10439987182616,77.05126512857441L350.01413319905595,75.29050079227987L365.92386652628585,76.6992624491254L381.83359985351564,75.99488162070263L397.7433331807455,85.85508681004727L413.65306650797527,72.47335294811352L429.5627998352051,74.58630769861945L445.4725331624349,71.41678170547935L461.38226648966474,81.9815554580091L477.29199981689453,79.86860070750315L493.2017331441244,71.76897211969072L509.11146647135416,73.52973645598529L525.021199798584,73.52973645598529L540.9309331258138,81.62936504379773L556.8406664530437,80.57279380116357L572.7503997802734,71.76897211969072L588.6601331075033,81.9815554580091L604.5698664347331,79.51641029329176L620.479599761963,87.2638484668928L636.3893330891926,78.81202946486898L652.2990664164225,75.64269120649124L668.2087997436523,79.16421987908039L684.1185330708822,74.23411728440806L700.0282663981119,77.4034555427858L715.9379997253418,74.93831037806846L731.8477330525717,75.29050079227987L747.7574663798014,79.86860070750315L763.6671997070313,78.46002678541997L779.5769330342611,78.81202946486898L795.486666361491,76.34707203491404L811.3963996887206,72.47335294811352L827.3061330159505,74.23411728440806L843.2158663431803,83.39012938009228L859.1255996704102,77.75564595699721" fill="none"></path></g></g></g></g></g></g><g transform="translate(51, 377)" clip-path="url(#clip_1)"><clipPath id="clip_1"><rect width="954" height="22"></rect></clipPath><g><g><line x1="0" y1="0" x2="0" y2="5" style="visibility: inherit;" fill="rgb(0, 0, 0)" stroke="rgb(204, 204, 204)" stroke-width="1px"></line><line x1="79.54866663614908" y1="0" x2="79.54866663614908" y2="5" style="visibility: inherit;" fill="rgb(0, 0, 0)" stroke="rgb(204, 204, 204)" stroke-width="1px"></line><line x1="159.09733327229816" y1="0" x2="159.09733327229816" y2="5" style="visibility: inherit;" fill="rgb(0, 0, 0)" stroke="rgb(204, 204, 204)" stroke-width="1px"></line><line x1="238.64599990844727" y1="0" x2="238.64599990844727" y2="5" style="visibility: inherit;" fill="rgb(0, 0, 0)" stroke="rgb(204, 204, 204)" stroke-width="1px"></line><line x1="318.1946665445963" y1="0" x2="318.1946665445963" y2="5" style="visibility: inherit;" fill="rgb(0, 0, 0)" stroke="rgb(204, 204, 204)" stroke-width="1px"></line><line x1="397.7433331807455" y1="0" x2="397.7433331807455" y2="5" style="visibility: inherit;" fill="rgb(0, 0, 0)" stroke="rgb(204, 204, 204)" stroke-width="1px"></line><line x1="477.29199981689453" y1="0" x2="477.29199981689453" y2="5" style="visibility: inherit;" fill="rgb(0, 0, 0)" stroke="rgb(204, 204, 204)" stroke-width="1px"></line><line x1="556.8406664530437" y1="0" x2="556.8406664530437" y2="5" style="visibility: inherit;" fill="rgb(0, 0, 0)" stroke="rgb(204, 204, 204)" stroke-width="1px"></line><line x1="636.3893330891926" y1="0" x2="636.3893330891926" y2="5" style="visibility: inherit;" fill="rgb(0, 0, 0)" stroke="rgb(204, 204, 204)" stroke-width="1px"></line><line x1="715.9379997253418" y1="0" x2="715.9379997253418" y2="5" style="visibility: inherit;" fill="rgb(0, 0, 0)" stroke="rgb(204, 204, 204)" stroke-width="1px"></line><line x1="795.486666361491" y1="0" x2="795.486666361491" y2="5" style="visibility: inherit;" fill="rgb(0, 0, 0)" stroke="rgb(204, 204, 204)" stroke-width="1px"></line><line x1="875.0353329976399" y1="0" x2="875.0353329976399" y2="5" style="visibility: inherit;" fill="rgb(0, 0, 0)" stroke="rgb(204, 204, 204)" stroke-width="1px"></line><line x1="954.5839996337891" y1="0" x2="954.5839996337891" y2="5" style="visibility: inherit;" fill="rgb(0, 0, 0)" stroke="rgb(204, 204, 204)" stroke-width="1px"></line></g><g transform="translate(0, 8)"><text style="text-anchor: middle; visibility: hidden; font-family: Roboto, sans-serif; font-size: 12px; font-weight: 200;" x="0" y="0" dx="0em" dy="0.95em" fill="rgb(50, 49, 63)" stroke="none" stroke-width="1px">-5</text><text style="text-anchor: middle; visibility: inherit; font-family: Roboto, sans-serif; font-size: 12px; font-weight: 200;" x="79.54866663614908" y="0" dx="0em" dy="0.95em" fill="rgb(50, 49, 63)" stroke="none" stroke-width="1px">0</text><text style="text-anchor: middle; visibility: inherit; font-family: Roboto, sans-serif; font-size: 12px; font-weight: 200;" x="159.09733327229816" y="0" dx="0em" dy="0.95em" fill="rgb(50, 49, 63)" stroke="none" stroke-width="1px">5</text><text style="text-anchor: middle; visibility: inherit; font-family: Roboto, sans-serif; font-size: 12px; font-weight: 200;" x="238.64599990844727" y="0" dx="0em" dy="0.95em" fill="rgb(50, 49, 63)" stroke="none" stroke-width="1px">10</text><text style="text-anchor: middle; visibility: inherit; font-family: Roboto, sans-serif; font-size: 12px; font-weight: 200;" x="318.1946665445963" y="0" dx="0em" dy="0.95em" fill="rgb(50, 49, 63)" stroke="none" stroke-width="1px">15</text><text style="text-anchor: middle; visibility: inherit; font-family: Roboto, sans-serif; font-size: 12px; font-weight: 200;" x="397.7433331807455" y="0" dx="0em" dy="0.95em" fill="rgb(50, 49, 63)" stroke="none" stroke-width="1px">20</text><text style="text-anchor: middle; visibility: inherit; font-family: Roboto, sans-serif; font-size: 12px; font-weight: 200;" x="477.29199981689453" y="0" dx="0em" dy="0.95em" fill="rgb(50, 49, 63)" stroke="none" stroke-width="1px">25</text><text style="text-anchor: middle; visibility: inherit; font-family: Roboto, sans-serif; font-size: 12px; font-weight: 200;" x="556.8406664530437" y="0" dx="0em" dy="0.95em" fill="rgb(50, 49, 63)" stroke="none" stroke-width="1px">30</text><text style="text-anchor: middle; visibility: inherit; font-family: Roboto, sans-serif; font-size: 12px; font-weight: 200;" x="636.3893330891926" y="0" dx="0em" dy="0.95em" fill="rgb(50, 49, 63)" stroke="none" stroke-width="1px">35</text><text style="text-anchor: middle; visibility: inherit; font-family: Roboto, sans-serif; font-size: 12px; font-weight: 200;" x="715.9379997253418" y="0" dx="0em" dy="0.95em" fill="rgb(50, 49, 63)" stroke="none" stroke-width="1px">40</text><text style="text-anchor: middle; visibility: inherit; font-family: Roboto, sans-serif; font-size: 12px; font-weight: 200;" x="795.486666361491" y="0" dx="0em" dy="0.95em" fill="rgb(50, 49, 63)" stroke="none" stroke-width="1px">45</text><text style="text-anchor: middle; visibility: inherit; font-family: Roboto, sans-serif; font-size: 12px; font-weight: 200;" x="875.0353329976399" y="0" dx="0em" dy="0.95em" fill="rgb(50, 49, 63)" stroke="none" stroke-width="1px">50</text><text style="text-anchor: middle; visibility: hidden; font-family: Roboto, sans-serif; font-size: 12px; font-weight: 200;" x="954.5839996337891" y="0" dx="0em" dy="0.95em" fill="rgb(50, 49, 63)" stroke="none" stroke-width="1px">55</text></g><line x1="0" y1="0" x2="954.5839996337891" y2="0" fill="rgb(0, 0, 0)" stroke="rgb(204, 204, 204)" stroke-width="1px"></line></g></g></g></g></svg>