<svg viewBox="0 0 1006 400" xmlns="http://www.w3.org/2000/svg"><g><g><g><g><g><line x1="51.41600036621094" y1="377.95999908447266" x2="46.41600036621094" y2="377.95999908447266" style="visibility: inherit;" fill="rgb(0, 0, 0)" stroke="rgb(204, 204, 204)" stroke-width="1px"></line><line x1="51.41600036621094" y1="323.96571350097656" x2="46.41600036621094" y2="323.96571350097656" style="visibility: inherit;" fill="rgb(0, 0, 0)" stroke="rgb(204, 204, 204)" stroke-width="1px"></line><line x1="51.41600036621094" y1="269.97142791748047" x2="46.41600036621094" y2="269.97142791748047" style="visibility: inherit;" fill="rgb(0, 0, 0)" stroke="rgb(204, 204, 204)" stroke-width="1px"></line><line x1="51.41600036621094" y1="215.97714233398438" x2="46.41600036621094" y2="215.97714233398438" style="visibility: inherit;" fill="rgb(0, 0, 0)" stroke="rgb(204, 204, 204)" stroke-width="1px"></line><line x1="51.41600036621094" y1="161.98285675048828" x2="46.41600036621094" y2="161.98285675048828" style="visibility: inherit;" fill="rgb(0, 0, 0)" stroke="rgb(204, 204, 204)" stroke-width="1px"></line><line x1="51.41600036621094" y1="107.98857116699219" x2="46.41600036621094" y2="107.98857116699219" style="visibility: inherit;" fill="rgb(0, 0, 0)" stroke="rgb(204, 204, 204)" stroke-width="1px"></line><line x1="51.41600036621094" y1="53.994285583496115" x2="46.41600036621094" y2="53.994285583496115" style="visibility: inherit;" fill="rgb(0, 0, 0)" stroke="rgb(204, 204, 204)" stroke-width="1px"></line><line x1="51.41600036621094" y1="0" x2="46.41600036621094" y2="0" style="visibility: inherit;" fill="rgb(0, 0, 0)" stroke="rgb(204, 204, 204)" stroke-width="1px"></line></g><g transform="translate(41.41600036621094, 0)"><text style="text-anchor: end; visibility: hidden; font-family: Roboto, sans-serif; font-size: 12px; font-weight: 200;" x="0" y="377.95999908447266" dx="0em" dy="0.3em" fill="rgb(50, 49, 63)" stroke="none" stroke-width="1px">-0.5</text><text style="text-anchor: end; visibility: inherit; font-family: Roboto, sans-serif; font-size: 12px; font-weight: 200;" x="0" y="323.96571350097656" dx="0em" dy="0.3em" fill="rgb(50, 49, 63)" stroke="none" stroke-width="1px">0</text><text style="text-anchor: end; visibility: inherit; font-family: Roboto, sans-serif; font-size: 12px; font-weight: 200;" x="0" y="269.97142791748047" dx="0em" dy="0.3em" fill="rgb(50, 49, 63)" stroke="none" stroke-width="1px">0.5</text><text style="text-anchor: end; visibility: inherit; font-family: Roboto, sans-serif; font-size: 12px; font-weight: 200;" x="0" y="215.97714233398438" dx="0em" dy="0.3em" fill="rgb(50, 49, 63)" stroke="none" stroke-width="1px">1</text><text style="text-anchor: end; visibility: inherit; font-family: Roboto, sans-serif; font-size: 12px; font-weight: 200;" x="0" y="161.98285675048828" dx="0em" dy="0.3em" fill="rgb(50, 49, 63)" stroke="none" stroke-width="1px">1.5</text><text style="text-anchor: end; visibility: inherit; font-family: Roboto, sans-serif; font-size: 12px; font-weight: 200;" x="0" y="107.98857116699219" dx="0em" dy="0.3em" fill="rgb(50, 49, 63)" stroke="none" stroke-width="1px">2</text><text style="text-anchor: end; visibility: inherit; font-family: Roboto, sans-serif; font-size: 12px; font-weight: 200;" x="0" y="53.994285583496115" dx="0em" dy="0.3em" fill="rgb(50, 49, 63)" stroke="none" stroke-width="1px">2.5</text><text style="text-anchor: end; visibility: hidden; font-family: Roboto, sans-serif; font-size: 12px; font-weight: 200;" x="0" y="0" dx="0em" dy="0.3em" fill="rgb(50, 49, 63)" stroke="none" stroke-width="1px">3</text></g><line x1="51.41600036621094" y1="0" x2="51.41600036621094" y2="377.95999908447266" fill="rgb(0, 0, 0)" stroke="rgb(204, 204, 204)" stroke-width="1px"></line></g></g><g transform="translate(51, 0)" clip-path="url(#clip_0)"><clipPath id="clip_0"><rect width="954" height="377"></rect></clipPath><g><g><g><line x1="0" y1="0" x2="0" y2="377.95999908447266" fill="rgb(0, 0, 0)" stroke="rgb(60, 60, 60)" stroke-width="1px" opacity="0.25"></line><line x1="79.54866663614908" y1="0" x2="79.54866663614908" y2="377.95999908447266" fill="rgb(0, 0, 0)" stroke="rgb(60, 60, 60)" stroke-width="1px" opacity="0.25"></line><line x1="159.09733327229816" y1="0" x2="159.09733327229816" y2="377.95999908447266" fill="rgb(0, 0, 0)" stroke="rgb(60, 60, 60)" stroke-width="1px" opacity="0.25"></line><line x1="238.64599990844727" y1="0" x2="238.64599990844727" y2="377.95999908447266" fill="rgb(0, 0, 0)" stroke="rgb(60, 60, 60)" stroke-width="1px" opacity="0.25"></line><line x1="318.1946665445963" y1="0" x2="318.1946665445963" y2="377.95999908447266" fill="rgb(0, 0, 0)" stroke="rgb(60, 60, 60)" stroke-width="1px" opacity="0.25"></line><line x1="397.7433331807455" y1="0" x2="397.7433331807455" y2="377.95999908447266" fill="rgb(0, 0, 0)" stroke="rgb(60, 60, 60)" stroke-width="1px" opacity="0.25"></line><line x1="477.29199981689453" y1="0" x2="477.29199981689453" y2="377.95999908447266" fill="rgb(0, 0, 0)" stroke="rgb(60, 60, 60)" stroke-width="1px" opacity="0.25"></line><line x1="556.8406664530437" y1="0" x2="556.8406664530437" y2="377.95999908447266" fill="rgb(0, 0, 0)" stroke="rgb(60, 60, 60)" stroke-width="1px" opacity="0.25"></line><line x1="636.3893330891926" y1="0" x2="636.3893330891926" y2="377.95999908447266" fill="rgb(0, 0, 0)" stroke="rgb(60, 60, 60)" stroke-width="1px" opacity="0.25"></line><line x1="715.9379997253418" y1="0" x2="715.9379997253418" y2="377.95999908447266" fill="rgb(0, 0, 0)" stroke="rgb(60, 60, 60)" stroke-width="1px" opacity="0.25"></line><line x1="795.486666361491" y1="0" x2="795.486666361491" y2="377.95999908447266" fill="rgb(0, 0, 0)" stroke="rgb(60, 60, 60)" stroke-width="1px" opacity="0.25"></line><line x1="875.0353329976399" y1="0" x2="875.0353329976399" y2="377.95999908447266" fill="rgb(0, 0, 0)" stroke="rgb(60, 60, 60)" stroke-width="1px" opacity="0.25"></line><line x1="954.5839996337891" y1="0" x2="954.5839996337891" y2="377.95999908447266" fill="rgb(0, 0, 0)" stroke="rgb(60, 60, 60)" stroke-width="1px" opacity="0.25"></line></g><g><line x1="0" y1="377.95999908447266" x2="954.5839996337891" y2="377.95999908447266" fill="rgb(0, 0, 0)" stroke="rgb(60, 60, 60)" stroke-width="1px" opacity="0.25"></line><line x1="0" y1="323.96571350097656" x2="954.5839996337891" y2="323.96571350097656" fill="rgb(0, 0, 0)" stroke="rgb(60, 60, 60)" stroke-width="1px" opacity="0.25"></line><line x1="0" y1="269.97142791748047" x2="954.5839996337891" y2="269.97142791748047" fill="rgb(0, 0, 0)" stroke="rgb(60, 60, 60)" stroke-width="1px" opacity="0.25"></line><line x1="0" y1="215.97714233398438" x2="954.5839996337891" y2="215.97714233398438" fill="rgb(0, 0, 0)" stroke="rgb(60, 60, 60)" stroke-width="1px" opacity="0.25"></line><line x1="0" y1="161.98285675048828" x2="954.5839996337891" y2="161.98285675048828" fill="rgb(0, 0, 0)" stroke="rgb(60, 60, 60)" stroke-width="1px" opacity="0.25"></line><line x1="0" y1="107.98857116699219" x2="954.5839996337891" y2="107.98857116699219" fill="rgb(0, 0, 0)" stroke="rgb(60, 60, 60)" stroke-width="1px" opacity="0.25"></line><line x1="0" y1="53.994285583496115" x2="954.5839996337891" y2="53.994285583496115" fill="rgb(0, 0, 0)" stroke="rgb(60, 60, 60)" stroke-width="1px" opacity="0.25"></line><line x1="0" y1="0" x2="954.5839996337891" y2="0" fill="rgb(0, 0, 0)" stroke="rgb(60, 60, 60)" stroke-width="1px" opacity="0.25"></line></g></g></g><g><g><line x1="0" y1="323.96571350097656" x2="954.5839996337891" y2="323.96571350097656" fill="rgb(0, 0, 0)" stroke="rgb(153, 153, 153)" stroke-width="1.5px"></line></g></g><g><g><line x1="79.54866663614908" y1="0" x2="79.54866663614908" y2="377.95999908447266" fill="rgb(0, 0, 0)" stroke="rgb(153, 153, 153)" stroke-width="1.5px"></line></g></g><g><g><g><g><g><path style="fill: none;" stroke="rgb(0, 119, 187)" stroke-width="2px" d="M79.54866663614908,-157.4548230144646L95.45839996337891,91.49120406196015L111.36813329060872,115.37021620188536L127.27786661783854,142.48941019011727L143.18759994506834,150.1133296177777L159.09733327229816,153.72082364721248L175.00706659952797,154.21789809609254L190.91679992675782,154.72037930612896L206.82653325398763,154.91112211578005L222.73626658121745,154.9643143469657L238.64599990844727,155.0017497313529L254.55573323567708,155.01575581739598L270.4654665629069,155.02113683207062L286.3751998901367,155.02270736745413L302.28493321736653,155.02354412810928L318.1946665445963,155.02354412810928L334.10439987182616,155.02363424079522L350.01413319905595,155.02364711403607L365.92386652628585,155.02364711403607L381.83359985351564,155.02365998727691L397.7433331807455,155.02365998727691L413.65306650797527,155.02365998727691L429.5627998352051,155.02365998727691L445.4725331624349,155.02365998727691L461.38226648966474,155.02365998727691L477.29199981689453,155.02365998727691L493.2017331441244,155.02365998727691L509.11146647135416,155.02365998727691L525.021199798584,155.02365998727691L540.9309331258138,155.02365998727691L556.8406664530437,155.02365998727691L572.7503997802734,155.02365998727691L588.6601331075033,155.02365998727691L604.5698664347331,155.02365998727691L620.479599761963,155.02365998727691L636.3893330891926,155.02365998727691L652.2990664164225,155.02365998727691L668.2087997436523,155.02365998727691L684.1185330708822,155.02365998727691L700.0282663981119,155.02365998727691L715.9379997253418,155.02365998727691L731.8477330525717,155.02365998727691L747.7574663798014,155.02365998727691L763.6671997070313,155.02365998727691L779.5769330342611,155.02365998727691L795.486666361491,155.02365998727691L811.3963996887206,155.02365998727691L827.3061330159505,155.02365998727691L843.2158663431803,155.02365998727691L859.1255996704102,155.02365998727691" fill="none"></path></g><g><path style="fill: none;" stroke="rgb(51, 187, 238)" stroke-width="2px" d="M79.54866663614908,-207.62441724893142L95.45839996337891,47.660728325518L111.36813329060872,120.43779320834803L127.27786661783854,145.80452717340268L143.18759994506834,151.73834455655563L159.09733327229816,151.91142527976262L175.00706659952797,153.2762462745122L190.91679992675782,153.45953547771202L206.82653325398763,153.55968929151277L222.73626658121745,153.621159016564L238.64599990844727,153.63739217327384L254.55573323567708,153.65256972423413L270.4654665629069,153.65196468191425L286.3751998901367,153.65307178062722L302.28493321736653,153.6539214145232L318.1946665445963,153.65421749906272L334.10439987182616,153.65421749906272L350.01413319905595,153.65420462582188L365.92386652628585,153.65421749906272L381.83359985351564,153.65421749906272L397.7433331807455,153.65421749906272L413.65306650797527,153.65421749906272L429.5627998352051,153.65421749906272L445.4725331624349,153.65421749906272L461.38226648966474,153.65421749906272L477.29199981689453,153.65421749906272L493.2017331441244,153.65421749906272L509.11146647135416,153.65421749906272L525.021199798584,153.65421749906272L540.9309331258138,153.65421749906272L556.8406664530437,153.65421749906272L572.7503997802734,153.65421749906272L588.6601331075033,153.65421749906272L604.5698664347331,153.65421749906272L620.479599761963,153.65421749906272L636.3893330891926,153.65421749906272L652.2990664164225,153.65421749906272L668.2087997436523,153.65421749906272L684.1185330708822,153.65421749906272L700.0282663981119,153.65421749906272L715.9379997253418,153.65421749906272L731.8477330525717,153.65421749906272L747.7574663798014,153.65421749906272L763.6671997070313,153.65421749906272L779.5769330342611,153.65421749906272L795.486666361491,153.65421749906272L811.3963996887206,153.65421749906272L827.3061330159505,153.65421749906272L843.2158663431803,153.65421749906272L859.1255996704102,153.65421749906272" fill="none"></path></g><g><path style="fill: none;" stroke="rgb(0, 153, 136)" stroke-width="2px" d="M79.54866663614908,-272.9764027822457L95.45839996337891,28.870971729644232L111.36813329060872,95.86916155617293L127.27786661783854,121.9895851531801L143.18759994506834,128.92894425224404L159.09733327229816,131.74214644809035L175.00706659952797,132.48141805029263L190.91679992675782,132.5751094971874L206.82653325398763,132.71779649875134L222.73626658121745,132.6690069159358L238.64599990844727,132.67501871941204L254.55573323567708,132.67877770573978L270.4654665629069,132.6800521565838L286.3751998901367,132.68200888919273L302.28493321736653,132.68249807234497L318.1946665445963,132.6826911709577L334.10439987182616,132.68272979068024L350.01413319905595,132.68278128364364L365.92386652628585,132.68275553716197L381.83359985351564,132.68278128364364L397.7433331807455,132.68278128364364L413.65306650797527,132.68278128364364L429.5627998352051,132.68278128364364L445.4725331624349,132.68278128364364L461.38226648966474,132.68278128364364L477.29199981689453,132.68278128364364L493.2017331441244,132.68278128364364L509.11146647135416,132.68278128364364L525.021199798584,132.68278128364364L540.9309331258138,132.68278128364364L556.8406664530437,132.68278128364364L572.7503997802734,132.68278128364364L588.6601331075033,132.68278128364364L604.5698664347331,132.68278128364364L620.479599761963,132.68278128364364L636.3893330891926,132.68278128364364L652.2990664164225,132.68278128364364L668.2087997436523,132.68278128364364L684.1185330708822,132.68278128364364L700.0282663981119,132.68278128364364L715.9379997253418,132.68278128364364L731.8477330525717,132.68278128364364L747.7574663798014,132.68278128364364L763.6671997070313,132.68278128364364L779.5769330342611,132.68278128364364L795.486666361491,132.68278128364364L811.3963996887206,132.68278128364364L827.3061330159505,132.68278128364364L843.2158663431803,132.68278128364364L859.1255996704102,132.68278128364364" fill="none"></path></g><g><path style="fill: none;" stroke="rgb(255, 112, 67)" stroke-width="2px" d="M79.54866663614908,-213.81392294181566L95.45839996337891,168.0621675017101L111.36813329060872,262.1589283846315L127.27786661783854,285.67838447103986L143.18759994506834,296.373015967858L159.09733327229816,300.4309076840116L175.00706659952797,299.84109118974925L190.91679992675782,300.7989761680394L206.82653325398763,300.1577777420857L222.73626658121745,303.65192771331544L238.64599990844727,303.4556542375649L254.55573323567708,304.1311614595347L270.4654665629069,301.95879402058813L286.3751998901367,305.3070853455399L302.28493321736653,300.69086508223927L318.1946665445963,303.09199644768273L334.10439987182616,301.5575479765837L350.01413319905595,304.4045681761388L365.92386652628585,301.678012546133L381.83359985351564,301.3394913681625L397.7433331807455,299.21746795586387L413.65306650797527,304.3127948421304L429.5627998352051,301.7048098061141L445.4725331624349,302.7818028361992L461.38226648966474,304.1894273567698L477.29199981689453,303.36612406577433L493.2017331441244,298.7714455618784L509.11146647135416,301.77892105367846L525.021199798584,302.84406104725235L540.9309331258138,301.4915629623049L556.8406664530437,301.8695695882677L572.7503997802734,302.65135989583723L588.6601331075033,303.8176256328959L604.5698664347331,303.44016772882424L620.479599761963,300.50355620958453L636.3893330891926,302.33249776579737L652.2990664164225,301.22848058486125L668.2087997436523,302.12389816193445L684.1185330708822,302.4526018846029L700.0282663981119,302.26786283265255L715.9379997253418,302.73349117245016L731.8477330525717,302.8934910738001L747.7574663798014,303.66492485910703L763.6671997070313,300.911676564202L779.5769330342611,304.3525828112827L795.486666361491,302.88624987582284L811.3963996887206,301.2200132106932L827.3061330159505,302.4604143326428L843.2158663431803,302.62653706917126L859.1255996704102,302.14961246052917" fill="none"></path></g><g><path style="fill: none;" stroke="rgb(204, 51, 17)" stroke-width="2px" d="M79.54866663614908,-197.85120727570032L95.45839996337891,162.8936642869958L111.36813329060872,263.92832315614487L127.27786661783854,287.9721353071013L143.18759994506834,296.95539172890994L159.09733327229816,302.09098611255035L175.00706659952797,301.11479699492884L190.91679992675782,301.2822328020238L206.82653325398763,304.8223064508252L222.73626658121745,303.7531339145555L238.64599990844727,303.91467538649704L254.55573323567708,302.51136018330044L270.4654665629069,301.16531159201804L286.3751998901367,303.42023190621535L302.28493321736653,303.80445469835286L318.1946665445963,306.38539788281196L334.10439987182616,303.6002834893418L350.01413319905595,305.7248606307937L365.92386652628585,304.2310722909144L381.83359985351564,306.7980962837062L397.7433331807455,302.4945670406137L413.65306650797527,303.29847196680566L429.5627998352051,302.7574579285997L445.4725331624349,304.2020366961808L461.38226648966474,303.89170469735814L477.29199981689453,302.2879225602046L493.2017331441244,304.4839976813287L509.11146647135416,304.4202510018024L525.021199798584,303.87559544559144L540.9309331258138,302.5551098923238L556.8406664530437,303.6754439060353L572.7503997802734,302.15391212297254L588.6601331075033,302.1028842054045L604.5698664347331,303.9255967222018L620.479599761963,302.57705394050504L636.3893330891926,304.61683826279864L652.2990664164225,304.50416844058304L668.2087997436523,302.17186063902545L684.1185330708822,302.86403066211847L700.0282663981119,306.4221268481076L715.9379997253418,302.4827703245312L731.8477330525717,301.21463380517366L747.7574663798014,305.363545770746L763.6671997070313,303.7313057255419L779.5769330342611,303.65086406179034L795.486666361491,303.2360560585521L811.3963996887206,301.27803934381745L827.3061330159505,305.31366518076857L843.2158663431803,304.7511431754151L859.1255996704102,303.0399016602794" fill="none"></path></g><g><path style="fill: none;" stroke="rgb(238, 51, 119)" stroke-width="2px" d="M79.54866663614908,-171.7121432259446L95.45839996337891,160.86383741649843L111.36813329060872,263.4638694995747L127.27786661783854,288.3269958460187L143.18759994506834,301.76934818995255L159.09733327229816,302.59282044223414L175.00706659952797,302.77158631043085L190.91679992675782,301.07902064945597L206.82653325398763,303.5444570712475L222.73626658121745,303.03420846951417L238.64599990844727,303.29899494221513L254.55573323567708,302.71025014525344L270.4654665629069,303.2253374763907L286.3751998901367,302.52292839935785L302.28493321736653,301.6265179735842L318.1946665445963,303.2777251300233L334.10439987182616,304.69064377089285L350.01413319905595,301.6942231746714L365.92386652628585,301.6797681343537L381.83359985351564,303.30192521366325L397.7433331807455,302.10446117740844L413.65306650797527,302.8789008644535L429.5627998352051,303.82625392257455L445.4725331624349,303.6858197381591L461.38226648966474,303.13802150202605L477.29199981689453,303.9944041945366L493.2017331441244,305.4313410845191L509.11146647135416,301.9243516646982L525.021199798584,304.75081008030816L540.9309331258138,302.26852258624604L556.8406664530437,300.0775146945509L572.7503997802734,306.2387105216544L588.6601331075033,302.91155866733084L604.5698664347331,302.95758050336394L620.479599761963,304.69989802190776L636.3893330891926,302.5182843777218L652.2990664164225,302.9891827004917L668.2087997436523,303.039637758842L684.1185330708822,303.4642455166761L700.0282663981119,303.16593712480585L715.9379997253418,303.03452225475985L731.8477330525717,304.12452691303247L747.7574663798014,304.88232632712584L763.6671997070313,301.399417913467L779.5769330342611,304.7436654316373L795.486666361491,304.87551960102724L811.3963996887206,303.35118949723505L827.3061330159505,305.030873871586L843.2158663431803,301.5436497039327L859.1255996704102,303.33914014380093" fill="none"></path></g></g></g></g></g></g><g transform="translate(51, 377)" clip-path="url(#clip_1)"><clipPath id="clip_1"><rect width="954" height="22"></rect></clipPath><g><g><line x1="0" y1="0" x2="0" y2="5" style="visibility: inherit;" fill="rgb(0, 0, 0)" stroke="rgb(204, 204, 204)" stroke-width="1px"></line><line x1="79.54866663614908" y1="0" x2="79.54866663614908" y2="5" style="visibility: inherit;" fill="rgb(0, 0, 0)" stroke="rgb(204, 204, 204)" stroke-width="1px"></line><line x1="159.09733327229816" y1="0" x2="159.09733327229816" y2="5" style="visibility: inherit;" fill="rgb(0, 0, 0)" stroke="rgb(204, 204, 204)" stroke-width="1px"></line><line x1="238.64599990844727" y1="0" x2="238.64599990844727" y2="5" style="visibility: inherit;" fill="rgb(0, 0, 0)" stroke="rgb(204, 204, 204)" stroke-width="1px"></line><line x1="318.1946665445963" y1="0" x2="318.1946665445963" y2="5" style="visibility: inherit;" fill="rgb(0, 0, 0)" stroke="rgb(204, 204, 204)" stroke-width="1px"></line><line x1="397.7433331807455" y1="0" x2="397.7433331807455" y2="5" style="visibility: inherit;" fill="rgb(0, 0, 0)" stroke="rgb(204, 204, 204)" stroke-width="1px"></line><line x1="477.29199981689453" y1="0" x2="477.29199981689453" y2="5" style="visibility: inherit;" fill="rgb(0, 0, 0)" stroke="rgb(204, 204, 204)" stroke-width="1px"></line><line x1="556.8406664530437" y1="0" x2="556.8406664530437" y2="5" style="visibility: inherit;" fill="rgb(0, 0, 0)" stroke="rgb(204, 204, 204)" stroke-width="1px"></line><line x1="636.3893330891926" y1="0" x2="636.3893330891926" y2="5" style="visibility: inherit;" fill="rgb(0, 0, 0)" stroke="rgb(204, 204, 204)" stroke-width="1px"></line><line x1="715.9379997253418" y1="0" x2="715.9379997253418" y2="5" style="visibility: inherit;" fill="rgb(0, 0, 0)" stroke="rgb(204, 204, 204)" stroke-width="1px"></line><line x1="795.486666361491" y1="0" x2="795.486666361491" y2="5" style="visibility: inherit;" fill="rgb(0, 0, 0)" stroke="rgb(204, 204, 204)" stroke-width="1px"></line><line x1="875.0353329976399" y1="0" x2="875.0353329976399" y2="5" style="visibility: inherit;" fill="rgb(0, 0, 0)" stroke="rgb(204, 204, 204)" stroke-width="1px"></line><line x1="954.5839996337891" y1="0" x2="954.5839996337891" y2="5" style="visibility: inherit;" fill="rgb(0, 0, 0)" stroke="rgb(204, 204, 204)" stroke-width="1px"></line></g><g transform="translate(0, 8)"><text style="text-anchor: middle; visibility: hidden; font-family: Roboto, sans-serif; font-size: 12px; font-weight: 200;" x="0" y="0" dx="0em" dy="0.95em" fill="rgb(50, 49, 63)" stroke="none" stroke-width="1px">-5</text><text style="text-anchor: middle; visibility: inherit; font-family: Roboto, sans-serif; font-size: 12px; font-weight: 200;" x="79.54866663614908" y="0" dx="0em" dy="0.95em" fill="rgb(50, 49, 63)" stroke="none" stroke-width="1px">0</text><text style="text-anchor: middle; visibility: inherit; font-family: Roboto, sans-serif; font-size: 12px; font-weight: 200;" x="159.09733327229816" y="0" dx="0em" dy="0.95em" fill="rgb(50, 49, 63)" stroke="none" stroke-width="1px">5</text><text style="text-anchor: middle; visibility: inherit; font-family: Roboto, sans-serif; font-size: 12px; font-weight: 200;" x="238.64599990844727" y="0" dx="0em" dy="0.95em" fill="rgb(50, 49, 63)" stroke="none" stroke-width="1px">10</text><text style="text-anchor: middle; visibility: inherit; font-family: Roboto, sans-serif; font-size: 12px; font-weight: 200;" x="318.1946665445963" y="0" dx="0em" dy="0.95em" fill="rgb(50, 49, 63)" stroke="none" stroke-width="1px">15</text><text style="text-anchor: middle; visibility: inherit; font-family: Roboto, sans-serif; font-size: 12px; font-weight: 200;" x="397.7433331807455" y="0" dx="0em" dy="0.95em" fill="rgb(50, 49, 63)" stroke="none" stroke-width="1px">20</text><text style="text-anchor: middle; visibility: inherit; font-family: Roboto, sans-serif; font-size: 12px; font-weight: 200;" x="477.29199981689453" y="0" dx="0em" dy="0.95em" fill="rgb(50, 49, 63)" stroke="none" stroke-width="1px">25</text><text style="text-anchor: middle; visibility: inherit; font-family: Roboto, sans-serif; font-size: 12px; font-weight: 200;" x="556.8406664530437" y="0" dx="0em" dy="0.95em" fill="rgb(50, 49, 63)" stroke="none" stroke-width="1px">30</text><text style="text-anchor: middle; visibility: inherit; font-family: Roboto, sans-serif; font-size: 12px; font-weight: 200;" x="636.3893330891926" y="0" dx="0em" dy="0.95em" fill="rgb(50, 49, 63)" stroke="none" stroke-width="1px">35</text><text style="text-anchor: middle; visibility: inherit; font-family: Roboto, sans-serif; font-size: 12px; font-weight: 200;" x="715.9379997253418" y="0" dx="0em" dy="0.95em" fill="rgb(50, 49, 63)" stroke="none" stroke-width="1px">40</text><text style="text-anchor: middle; visibility: inherit; font-family: Roboto, sans-serif; font-size: 12px; font-weight: 200;" x="795.486666361491" y="0" dx="0em" dy="0.95em" fill="rgb(50, 49, 63)" stroke="none" stroke-width="1px">45</text><text style="text-anchor: middle; visibility: inherit; font-family: Roboto, sans-serif; font-size: 12px; font-weight: 200;" x="875.0353329976399" y="0" dx="0em" dy="0.95em" fill="rgb(50, 49, 63)" stroke="none" stroke-width="1px">50</text><text style="text-anchor: middle; visibility: hidden; font-family: Roboto, sans-serif; font-size: 12px; font-weight: 200;" x="954.5839996337891" y="0" dx="0em" dy="0.95em" fill="rgb(50, 49, 63)" stroke="none" stroke-width="1px">55</text></g><line x1="0" y1="0" x2="954.5839996337891" y2="0" fill="rgb(0, 0, 0)" stroke="rgb(204, 204, 204)" stroke-width="1px"></line></g></g></g></g></svg>