<svg viewBox="0 0 1006 400" xmlns="http://www.w3.org/2000/svg"><g><g><g><g><g><line x1="51.41600036621094" y1="377.95999908447266" x2="46.41600036621094" y2="377.95999908447266" style="visibility: inherit;" fill="rgb(0, 0, 0)" stroke="rgb(204, 204, 204)" stroke-width="1px"></line><line x1="51.41600036621094" y1="323.96571350097656" x2="46.41600036621094" y2="323.96571350097656" style="visibility: inherit;" fill="rgb(0, 0, 0)" stroke="rgb(204, 204, 204)" stroke-width="1px"></line><line x1="51.41600036621094" y1="269.97142791748047" x2="46.41600036621094" y2="269.97142791748047" style="visibility: inherit;" fill="rgb(0, 0, 0)" stroke="rgb(204, 204, 204)" stroke-width="1px"></line><line x1="51.41600036621094" y1="215.97714233398438" x2="46.41600036621094" y2="215.97714233398438" style="visibility: inherit;" fill="rgb(0, 0, 0)" stroke="rgb(204, 204, 204)" stroke-width="1px"></line><line x1="51.41600036621094" y1="161.98285675048828" x2="46.41600036621094" y2="161.98285675048828" style="visibility: inherit;" fill="rgb(0, 0, 0)" stroke="rgb(204, 204, 204)" stroke-width="1px"></line><line x1="51.41600036621094" y1="107.98857116699219" x2="46.41600036621094" y2="107.98857116699219" style="visibility: inherit;" fill="rgb(0, 0, 0)" stroke="rgb(204, 204, 204)" stroke-width="1px"></line><line x1="51.41600036621094" y1="53.994285583496115" x2="46.41600036621094" y2="53.994285583496115" style="visibility: inherit;" fill="rgb(0, 0, 0)" stroke="rgb(204, 204, 204)" stroke-width="1px"></line><line x1="51.41600036621094" y1="0" x2="46.41600036621094" y2="0" style="visibility: inherit;" fill="rgb(0, 0, 0)" stroke="rgb(204, 204, 204)" stroke-width="1px"></line></g><g transform="translate(41.41600036621094, 0)"><text style="text-anchor: end; visibility: hidden; font-family: Roboto, sans-serif; font-size: 12px; font-weight: 200;" x="0" y="377.95999908447266" dx="0em" dy="0.3em" fill="rgb(50, 49, 63)" stroke="none" stroke-width="1px">-0.5</text><text style="text-anchor: end; visibility: inherit; font-family: Roboto, sans-serif; font-size: 12px; font-weight: 200;" x="0" y="323.96571350097656" dx="0em" dy="0.3em" fill="rgb(50, 49, 63)" stroke="none" stroke-width="1px">0</text><text style="text-anchor: end; visibility: inherit; font-family: Roboto, sans-serif; font-size: 12px; font-weight: 200;" x="0" y="269.97142791748047" dx="0em" dy="0.3em" fill="rgb(50, 49, 63)" stroke="none" stroke-width="1px">0.5</text><text style="text-anchor: end; visibility: inherit; font-family: Roboto, sans-serif; font-size: 12px; font-weight: 200;" x="0" y="215.97714233398438" dx="0em" dy="0.3em" fill="rgb(50, 49, 63)" stroke="none" stroke-width="1px">1</text><text style="text-anchor: end; visibility: inherit; font-family: Roboto, sans-serif; font-size: 12px; font-weight: 200;" x="0" y="161.98285675048828" dx="0em" dy="0.3em" fill="rgb(50, 49, 63)" stroke="none" stroke-width="1px">1.5</text><text style="text-anchor: end; visibility: inherit; font-family: Roboto, sans-serif; font-size: 12px; font-weight: 200;" x="0" y="107.98857116699219" dx="0em" dy="0.3em" fill="rgb(50, 49, 63)" stroke="none" stroke-width="1px">2</text><text style="text-anchor: end; visibility: inherit; font-family: Roboto, sans-serif; font-size: 12px; font-weight: 200;" x="0" y="53.994285583496115" dx="0em" dy="0.3em" fill="rgb(50, 49, 63)" stroke="none" stroke-width="1px">2.5</text><text style="text-anchor: end; visibility: hidden; font-family: Roboto, sans-serif; font-size: 12px; font-weight: 200;" x="0" y="0" dx="0em" dy="0.3em" fill="rgb(50, 49, 63)" stroke="none" stroke-width="1px">3</text></g><line x1="51.41600036621094" y1="0" x2="51.41600036621094" y2="377.95999908447266" fill="rgb(0, 0, 0)" stroke="rgb(204, 204, 204)" stroke-width="1px"></line></g></g><g transform="translate(51, 0)" clip-path="url(#clip_0)"><clipPath id="clip_0"><rect width="954" height="377"></rect></clipPath><g><g><g><line x1="0" y1="0" x2="0" y2="377.95999908447266" fill="rgb(0, 0, 0)" stroke="rgb(60, 60, 60)" stroke-width="1px" opacity="0.25"></line><line x1="79.54866663614908" y1="0" x2="79.54866663614908" y2="377.95999908447266" fill="rgb(0, 0, 0)" stroke="rgb(60, 60, 60)" stroke-width="1px" opacity="0.25"></line><line x1="159.09733327229816" y1="0" x2="159.09733327229816" y2="377.95999908447266" fill="rgb(0, 0, 0)" stroke="rgb(60, 60, 60)" stroke-width="1px" opacity="0.25"></line><line x1="238.64599990844727" y1="0" x2="238.64599990844727" y2="377.95999908447266" fill="rgb(0, 0, 0)" stroke="rgb(60, 60, 60)" stroke-width="1px" opacity="0.25"></line><line x1="318.1946665445963" y1="0" x2="318.1946665445963" y2="377.95999908447266" fill="rgb(0, 0, 0)" stroke="rgb(60, 60, 60)" stroke-width="1px" opacity="0.25"></line><line x1="397.7433331807455" y1="0" x2="397.7433331807455" y2="377.95999908447266" fill="rgb(0, 0, 0)" stroke="rgb(60, 60, 60)" stroke-width="1px" opacity="0.25"></line><line x1="477.29199981689453" y1="0" x2="477.29199981689453" y2="377.95999908447266" fill="rgb(0, 0, 0)" stroke="rgb(60, 60, 60)" stroke-width="1px" opacity="0.25"></line><line x1="556.8406664530437" y1="0" x2="556.8406664530437" y2="377.95999908447266" fill="rgb(0, 0, 0)" stroke="rgb(60, 60, 60)" stroke-width="1px" opacity="0.25"></line><line x1="636.3893330891926" y1="0" x2="636.3893330891926" y2="377.95999908447266" fill="rgb(0, 0, 0)" stroke="rgb(60, 60, 60)" stroke-width="1px" opacity="0.25"></line><line x1="715.9379997253418" y1="0" x2="715.9379997253418" y2="377.95999908447266" fill="rgb(0, 0, 0)" stroke="rgb(60, 60, 60)" stroke-width="1px" opacity="0.25"></line><line x1="795.486666361491" y1="0" x2="795.486666361491" y2="377.95999908447266" fill="rgb(0, 0, 0)" stroke="rgb(60, 60, 60)" stroke-width="1px" opacity="0.25"></line><line x1="875.0353329976399" y1="0" x2="875.0353329976399" y2="377.95999908447266" fill="rgb(0, 0, 0)" stroke="rgb(60, 60, 60)" stroke-width="1px" opacity="0.25"></line><line x1="954.5839996337891" y1="0" x2="954.5839996337891" y2="377.95999908447266" fill="rgb(0, 0, 0)" stroke="rgb(60, 60, 60)" stroke-width="1px" opacity="0.25"></line></g><g><line x1="0" y1="377.95999908447266" x2="954.5839996337891" y2="377.95999908447266" fill="rgb(0, 0, 0)" stroke="rgb(60, 60, 60)" stroke-width="1px" opacity="0.25"></line><line x1="0" y1="323.96571350097656" x2="954.5839996337891" y2="323.96571350097656" fill="rgb(0, 0, 0)" stroke="rgb(60, 60, 60)" stroke-width="1px" opacity="0.25"></line><line x1="0" y1="269.97142791748047" x2="954.5839996337891" y2="269.97142791748047" fill="rgb(0, 0, 0)" stroke="rgb(60, 60, 60)" stroke-width="1px" opacity="0.25"></line><line x1="0" y1="215.97714233398438" x2="954.5839996337891" y2="215.97714233398438" fill="rgb(0, 0, 0)" stroke="rgb(60, 60, 60)" stroke-width="1px" opacity="0.25"></line><line x1="0" y1="161.98285675048828" x2="954.5839996337891" y2="161.98285675048828" fill="rgb(0, 0, 0)" stroke="rgb(60, 60, 60)" stroke-width="1px" opacity="0.25"></line><line x1="0" y1="107.98857116699219" x2="954.5839996337891" y2="107.98857116699219" fill="rgb(0, 0, 0)" stroke="rgb(60, 60, 60)" stroke-width="1px" opacity="0.25"></line><line x1="0" y1="53.994285583496115" x2="954.5839996337891" y2="53.994285583496115" fill="rgb(0, 0, 0)" stroke="rgb(60, 60, 60)" stroke-width="1px" opacity="0.25"></line><line x1="0" y1="0" x2="954.5839996337891" y2="0" fill="rgb(0, 0, 0)" stroke="rgb(60, 60, 60)" stroke-width="1px" opacity="0.25"></line></g></g></g><g><g><line x1="0" y1="323.96571350097656" x2="954.5839996337891" y2="323.96571350097656" fill="rgb(0, 0, 0)" stroke="rgb(153, 153, 153)" stroke-width="1.5px"></line></g></g><g><g><line x1="79.54866663614908" y1="0" x2="79.54866663614908" y2="377.95999908447266" fill="rgb(0, 0, 0)" stroke="rgb(153, 153, 153)" stroke-width="1.5px"></line></g></g><g><g><g><g><g><path style="fill: none;" stroke="rgb(51, 187, 238)" stroke-width="2px" d="M79.54866663614908,-226.76409427754695L95.45839996337891,43.84509973804597L111.36813329060872,124.37697916148319L127.27786661783854,137.55193015566874L143.18759994506834,140.2111683909679L159.09733327229816,142.2669734614974L175.00706659952797,142.7962310124985L190.91679992675782,143.41234431950397L206.82653325398763,143.43071443419464L222.73626658121745,143.47113641045874L238.64599990844727,143.48525835566943L254.55573323567708,143.5022124138668L270.4654665629069,143.50096370950453L286.3751998901367,143.50174897719626L302.28493321736653,143.50232827303444L318.1946665445963,143.5025084984063L334.10439987182616,143.5026114843331L350.01413319905595,143.50259861109225L365.92386652628585,143.5026114843331L381.83359985351564,143.50262435757392L397.7433331807455,143.50262435757392L413.65306650797527,143.50262435757392L429.5627998352051,143.50262435757392L445.4725331624349,143.50262435757392L461.38226648966474,143.50262435757392L477.29199981689453,143.50262435757392L493.2017331441244,143.50262435757392L509.11146647135416,143.50262435757392L525.021199798584,143.50262435757392L540.9309331258138,143.50262435757392L556.8406664530437,143.50262435757392L572.7503997802734,143.50262435757392L588.6601331075033,143.50262435757392L604.5698664347331,143.50262435757392L620.479599761963,143.50262435757392L636.3893330891926,143.50262435757392L652.2990664164225,143.50262435757392L668.2087997436523,143.50262435757392L684.1185330708822,143.50262435757392L700.0282663981119,143.50262435757392L715.9379997253418,143.50262435757392L731.8477330525717,143.50262435757392L747.7574663798014,143.50262435757392L763.6671997070313,143.50262435757392L779.5769330342611,143.50262435757392L795.486666361491,143.50262435757392L811.3963996887206,143.50262435757392L827.3061330159505,143.50262435757392L843.2158663431803,143.50262435757392L859.1255996704102,143.50262435757392" fill="none"></path></g><g><path style="fill: none;" stroke="rgb(0, 119, 187)" stroke-width="2px" d="M79.54866663614908,-195.10900100313302L95.45839996337891,63.91069748792508L111.36813329060872,113.98349782445257L127.27786661783854,137.99019964035324L143.18759994506834,144.29658148690032L159.09733327229816,147.1057028653977L175.00706659952797,147.2152412717769L190.91679992675782,147.89098343039225L206.82653325398763,148.10945520083075L222.73626658121745,148.14924638829328L238.64599990844727,148.1685047566025L254.55573323567708,148.16935439049848L270.4654665629069,148.17187754570477L286.3751998901367,148.17396301072222L302.28493321736653,148.1742204755392L318.1946665445963,148.174490813597L334.10439987182616,148.17451656007867L350.01413319905595,148.1745423065604L365.92386652628585,148.17452943331955L381.83359985351564,148.1745423065604L397.7433331807455,148.1745423065604L413.65306650797527,148.1745423065604L429.5627998352051,148.1745423065604L445.4725331624349,148.1745423065604L461.38226648966474,148.1745423065604L477.29199981689453,148.1745423065604L493.2017331441244,148.1745423065604L509.11146647135416,148.1745423065604L525.021199798584,148.1745423065604L540.9309331258138,148.1745423065604L556.8406664530437,148.1745423065604L572.7503997802734,148.1745423065604L588.6601331075033,148.1745423065604L604.5698664347331,148.1745423065604L620.479599761963,148.1745423065604L636.3893330891926,148.1745423065604L652.2990664164225,148.1745423065604L668.2087997436523,148.1745423065604L684.1185330708822,148.1745423065604L700.0282663981119,148.1745423065604L715.9379997253418,148.1745423065604L731.8477330525717,148.1745423065604L747.7574663798014,148.1745423065604L763.6671997070313,148.1745423065604L779.5769330342611,148.1745423065604L795.486666361491,148.1745423065604L811.3963996887206,148.1745423065604L827.3061330159505,148.1745423065604L843.2158663431803,148.1745423065604L859.1255996704102,148.1745423065604" fill="none"></path></g><g><path style="fill: none;" stroke="rgb(0, 153, 136)" stroke-width="2px" d="M79.54866663614908,-155.8217236804339L95.45839996337891,55.80078747175504L111.36813329060872,108.33840148704802L127.27786661783854,123.7107117081323L143.18759994506834,133.3472593565166L159.09733327229816,135.92152132897536L175.00706659952797,136.67494062287005L190.91679992675782,136.73413178429112L206.82653325398763,136.6732284818372L222.73626658121745,136.6609602833087L238.64599990844727,136.64883369042943L254.55573323567708,136.6610761424763L270.4654665629069,136.65322346555877L286.3751998901367,136.6561070715088L302.28493321736653,136.65633878984409L318.1946665445963,136.6565576349385L334.10439987182616,136.6565447616977L350.01413319905595,136.65657050817936L365.92386652628585,136.65658338142018L381.83359985351564,136.65657050817936L397.7433331807455,136.65658338142018L413.65306650797527,136.65658338142018L429.5627998352051,136.65658338142018L445.4725331624349,136.65658338142018L461.38226648966474,136.65658338142018L477.29199981689453,136.65658338142018L493.2017331441244,136.65658338142018L509.11146647135416,136.65658338142018L525.021199798584,136.65658338142018L540.9309331258138,136.65658338142018L556.8406664530437,136.65658338142018L572.7503997802734,136.65658338142018L588.6601331075033,136.65658338142018L604.5698664347331,136.65658338142018L620.479599761963,136.65658338142018L636.3893330891926,136.65658338142018L652.2990664164225,136.65658338142018L668.2087997436523,136.65658338142018L684.1185330708822,136.65658338142018L700.0282663981119,136.65658338142018L715.9379997253418,136.65658338142018L731.8477330525717,136.65658338142018L747.7574663798014,136.65658338142018L763.6671997070313,136.65658338142018L779.5769330342611,136.65658338142018L795.486666361491,136.65658338142018L811.3963996887206,136.65658338142018L827.3061330159505,136.65658338142018L843.2158663431803,136.65658338142018L859.1255996704102,136.65658338142018" fill="none"></path></g><g><path style="fill: none;" stroke="rgb(204, 51, 17)" stroke-width="2px" d="M79.54866663614908,-191.3287480815125L95.45839996337891,156.95078414228556L111.36813329060872,260.87797011738894L127.27786661783854,288.23225844830495L143.18759994506834,295.6657922987479L159.09733327229816,301.53958658728993L175.00706659952797,301.1549518514453L190.91679992675782,304.196744185037L206.82653325398763,301.780932497561L222.73626658121745,303.9666398323368L238.64599990844727,304.2175634337991L254.55573323567708,302.9292336270157L270.4654665629069,302.0455950653188L286.3751998901367,302.5271926603889L302.28493321736653,302.22633053936534L318.1946665445963,302.6602585235737L334.10439987182616,301.91602589617946L350.01413319905595,301.78755577997754L365.92386652628585,304.173347069795L381.83359985351564,302.2677695016564L397.7433331807455,304.2598777764679L413.65306650797527,304.3703157005514L429.5627998352051,303.2882699234333L445.4725331624349,301.511744985645L461.38226648966474,305.63141216631993L477.29199981689453,303.74737153012074L493.2017331441244,303.4860222127263L509.11146647135416,305.54753978388226L525.021199798584,304.3983471824988L540.9309331258138,303.7527074884524L556.8406664530437,303.8143606571857L572.7503997802734,300.2802778928442L588.6601331075033,303.3910241318854L604.5698664347331,301.54487909843374L620.479599761963,303.9470676787819L636.3893330891926,306.6540592010083L652.2990664164225,302.9818175975713L668.2087997436523,301.97025925071875L684.1185330708822,303.34589537693614L700.0282663981119,304.4298254746834L715.9379997253418,302.1129848720052L731.8477330525717,300.36425165205355L747.7574663798014,304.2439857606405L763.6671997070313,302.8735053673829L779.5769330342611,301.2740438116891L795.486666361491,302.06341323980814L811.3963996887206,302.32127069062244L827.3061330159505,303.2001638539116L843.2158663431803,302.95401622480404L859.1255996704102,299.40864523739356" fill="none"></path></g><g><path style="fill: none;" stroke="rgb(255, 112, 67)" stroke-width="2px" d="M79.54866663614908,-208.44485463468303L95.45839996337891,157.63329762558715L111.36813329060872,260.0309752357671L127.27786661783854,289.1607602543586L143.18759994506834,298.61100475202943L159.09733327229816,296.1259237647032L175.00706659952797,300.4305102227004L190.91679992675782,301.82605803420006L206.82653325398763,301.375307942513L222.73626658121745,301.90913549401535L238.64599990844727,301.5562445609478L254.55573323567708,303.52006710730507L270.4654665629069,302.5230458676806L286.3751998901367,301.3058551989807L302.28493321736653,302.0113425897314L318.1946665445963,302.821827351152L334.10439987182616,299.4066579308376L350.01413319905595,300.94900735350734L365.92386652628585,303.4031040592665L381.83359985351564,303.9152176717678L397.7433331807455,302.3940849591713L413.65306650797527,301.2797804496422L429.5627998352051,301.85056385731014L445.4725331624349,299.3059071204925L461.38226648966474,302.46529168176926L477.29199981689453,304.30030297104213L493.2017331441244,301.7613313792142L509.11146647135416,302.47323447137273L525.021199798584,304.4348396019939L540.9309331258138,303.51152893031235L556.8406664530437,301.3461307421301L572.7503997802734,302.0136098892758L588.6601331075033,305.2385964859161L604.5698664347331,302.80006031003245L620.479599761963,302.3703837136143L636.3893330891926,302.26514818798864L652.2990664164225,303.24769346827907L668.2087997436523,303.29370564938154L684.1185330708822,301.6652986116401L700.0282663981119,302.0365532227779L715.9379997253418,302.29519594128396L731.8477330525717,302.8816589563053L747.7574663798014,302.9850069429915L763.6671997070313,301.23039065197213L779.5769330342611,301.99349384129505L795.486666361491,302.6859937411848L811.3963996887206,303.3056568443542L827.3061330159505,302.10417474779956L843.2158663431803,303.470783513872L859.1255996704102,303.6792463395509" fill="none"></path></g><g><path style="fill: none;" stroke="rgb(238, 51, 119)" stroke-width="2px" d="M79.54866663614908,-217.1001523726372L95.45839996337891,159.70650731774364L111.36813329060872,257.9492241483076L127.27786661783854,290.18385785247665L143.18759994506834,294.5812281938888L159.09733327229816,304.18891403629095L175.00706659952797,300.0785767369209L190.91679992675782,300.6670785514616L206.82653325398763,303.0032467161186L222.73626658121745,303.1942856103092L238.64599990844727,302.96108846149514L254.55573323567708,303.3217242580881L270.4654665629069,303.6598930310904L286.3751998901367,306.609931340535L302.28493321736653,304.4268646292883L318.1946665445963,305.1460974229549L334.10439987182616,301.4009385650422L350.01413319905595,303.9216816478288L365.92386652628585,302.2329216386797L381.83359985351564,304.4501909417056L397.7433331807455,302.50198202734236L413.65306650797527,304.29068183266304L429.5627998352051,304.7925113348815L445.4725331624349,303.58538914968017L461.38226648966474,301.7212939910205L477.29199981689453,303.96827795223476L493.2017331441244,305.15717806501516L509.11146647135416,304.43675288741497L525.021199798584,304.81656015794147L540.9309331258138,302.3205626623758L556.8406664530437,304.7092906602618L572.7503997802734,305.5047797052491L588.6601331075033,300.8711499928561L604.5698664347331,301.579887876921L620.479599761963,299.5908740073785L636.3893330891926,302.41100200680125L652.2990664164225,303.9998173923134L668.2087997436523,304.39253974172107L684.1185330708822,302.98241459411565L700.0282663981119,302.283421753373L715.9379997253418,304.32527544913296L731.8477330525717,304.8403096781517L747.7574663798014,305.03644959402845L763.6671997070313,302.11536320325195L779.5769330342611,304.41601409640816L795.486666361491,302.62996617870226L811.3963996887206,303.4982711013936L827.3061330159505,303.71371283276744L843.2158663431803,301.8413224795361L859.1255996704102,303.0930842365344" fill="none"></path></g></g></g></g></g></g><g transform="translate(51, 377)" clip-path="url(#clip_1)"><clipPath id="clip_1"><rect width="954" height="22"></rect></clipPath><g><g><line x1="0" y1="0" x2="0" y2="5" style="visibility: inherit;" fill="rgb(0, 0, 0)" stroke="rgb(204, 204, 204)" stroke-width="1px"></line><line x1="79.54866663614908" y1="0" x2="79.54866663614908" y2="5" style="visibility: inherit;" fill="rgb(0, 0, 0)" stroke="rgb(204, 204, 204)" stroke-width="1px"></line><line x1="159.09733327229816" y1="0" x2="159.09733327229816" y2="5" style="visibility: inherit;" fill="rgb(0, 0, 0)" stroke="rgb(204, 204, 204)" stroke-width="1px"></line><line x1="238.64599990844727" y1="0" x2="238.64599990844727" y2="5" style="visibility: inherit;" fill="rgb(0, 0, 0)" stroke="rgb(204, 204, 204)" stroke-width="1px"></line><line x1="318.1946665445963" y1="0" x2="318.1946665445963" y2="5" style="visibility: inherit;" fill="rgb(0, 0, 0)" stroke="rgb(204, 204, 204)" stroke-width="1px"></line><line x1="397.7433331807455" y1="0" x2="397.7433331807455" y2="5" style="visibility: inherit;" fill="rgb(0, 0, 0)" stroke="rgb(204, 204, 204)" stroke-width="1px"></line><line x1="477.29199981689453" y1="0" x2="477.29199981689453" y2="5" style="visibility: inherit;" fill="rgb(0, 0, 0)" stroke="rgb(204, 204, 204)" stroke-width="1px"></line><line x1="556.8406664530437" y1="0" x2="556.8406664530437" y2="5" style="visibility: inherit;" fill="rgb(0, 0, 0)" stroke="rgb(204, 204, 204)" stroke-width="1px"></line><line x1="636.3893330891926" y1="0" x2="636.3893330891926" y2="5" style="visibility: inherit;" fill="rgb(0, 0, 0)" stroke="rgb(204, 204, 204)" stroke-width="1px"></line><line x1="715.9379997253418" y1="0" x2="715.9379997253418" y2="5" style="visibility: inherit;" fill="rgb(0, 0, 0)" stroke="rgb(204, 204, 204)" stroke-width="1px"></line><line x1="795.486666361491" y1="0" x2="795.486666361491" y2="5" style="visibility: inherit;" fill="rgb(0, 0, 0)" stroke="rgb(204, 204, 204)" stroke-width="1px"></line><line x1="875.0353329976399" y1="0" x2="875.0353329976399" y2="5" style="visibility: inherit;" fill="rgb(0, 0, 0)" stroke="rgb(204, 204, 204)" stroke-width="1px"></line><line x1="954.5839996337891" y1="0" x2="954.5839996337891" y2="5" style="visibility: inherit;" fill="rgb(0, 0, 0)" stroke="rgb(204, 204, 204)" stroke-width="1px"></line></g><g transform="translate(0, 8)"><text style="text-anchor: middle; visibility: hidden; font-family: Roboto, sans-serif; font-size: 12px; font-weight: 200;" x="0" y="0" dx="0em" dy="0.95em" fill="rgb(50, 49, 63)" stroke="none" stroke-width="1px">-5</text><text style="text-anchor: middle; visibility: inherit; font-family: Roboto, sans-serif; font-size: 12px; font-weight: 200;" x="79.54866663614908" y="0" dx="0em" dy="0.95em" fill="rgb(50, 49, 63)" stroke="none" stroke-width="1px">0</text><text style="text-anchor: middle; visibility: inherit; font-family: Roboto, sans-serif; font-size: 12px; font-weight: 200;" x="159.09733327229816" y="0" dx="0em" dy="0.95em" fill="rgb(50, 49, 63)" stroke="none" stroke-width="1px">5</text><text style="text-anchor: middle; visibility: inherit; font-family: Roboto, sans-serif; font-size: 12px; font-weight: 200;" x="238.64599990844727" y="0" dx="0em" dy="0.95em" fill="rgb(50, 49, 63)" stroke="none" stroke-width="1px">10</text><text style="text-anchor: middle; visibility: inherit; font-family: Roboto, sans-serif; font-size: 12px; font-weight: 200;" x="318.1946665445963" y="0" dx="0em" dy="0.95em" fill="rgb(50, 49, 63)" stroke="none" stroke-width="1px">15</text><text style="text-anchor: middle; visibility: inherit; font-family: Roboto, sans-serif; font-size: 12px; font-weight: 200;" x="397.7433331807455" y="0" dx="0em" dy="0.95em" fill="rgb(50, 49, 63)" stroke="none" stroke-width="1px">20</text><text style="text-anchor: middle; visibility: inherit; font-family: Roboto, sans-serif; font-size: 12px; font-weight: 200;" x="477.29199981689453" y="0" dx="0em" dy="0.95em" fill="rgb(50, 49, 63)" stroke="none" stroke-width="1px">25</text><text style="text-anchor: middle; visibility: inherit; font-family: Roboto, sans-serif; font-size: 12px; font-weight: 200;" x="556.8406664530437" y="0" dx="0em" dy="0.95em" fill="rgb(50, 49, 63)" stroke="none" stroke-width="1px">30</text><text style="text-anchor: middle; visibility: inherit; font-family: Roboto, sans-serif; font-size: 12px; font-weight: 200;" x="636.3893330891926" y="0" dx="0em" dy="0.95em" fill="rgb(50, 49, 63)" stroke="none" stroke-width="1px">35</text><text style="text-anchor: middle; visibility: inherit; font-family: Roboto, sans-serif; font-size: 12px; font-weight: 200;" x="715.9379997253418" y="0" dx="0em" dy="0.95em" fill="rgb(50, 49, 63)" stroke="none" stroke-width="1px">40</text><text style="text-anchor: middle; visibility: inherit; font-family: Roboto, sans-serif; font-size: 12px; font-weight: 200;" x="795.486666361491" y="0" dx="0em" dy="0.95em" fill="rgb(50, 49, 63)" stroke="none" stroke-width="1px">45</text><text style="text-anchor: middle; visibility: inherit; font-family: Roboto, sans-serif; font-size: 12px; font-weight: 200;" x="875.0353329976399" y="0" dx="0em" dy="0.95em" fill="rgb(50, 49, 63)" stroke="none" stroke-width="1px">50</text><text style="text-anchor: middle; visibility: hidden; font-family: Roboto, sans-serif; font-size: 12px; font-weight: 200;" x="954.5839996337891" y="0" dx="0em" dy="0.95em" fill="rgb(50, 49, 63)" stroke="none" stroke-width="1px">55</text></g><line x1="0" y1="0" x2="954.5839996337891" y2="0" fill="rgb(0, 0, 0)" stroke="rgb(204, 204, 204)" stroke-width="1px"></line></g></g></g></g></svg>