<svg viewBox="0 0 1006 400" xmlns="http://www.w3.org/2000/svg"><g><g><g><g><g><line x1="51.41600036621094" y1="377.95999908447266" x2="46.41600036621094" y2="377.95999908447266" style="visibility: inherit;" fill="rgb(0, 0, 0)" stroke="rgb(204, 204, 204)" stroke-width="1px"></line><line x1="51.41600036621094" y1="323.96571350097656" x2="46.41600036621094" y2="323.96571350097656" style="visibility: inherit;" fill="rgb(0, 0, 0)" stroke="rgb(204, 204, 204)" stroke-width="1px"></line><line x1="51.41600036621094" y1="269.97142791748047" x2="46.41600036621094" y2="269.97142791748047" style="visibility: inherit;" fill="rgb(0, 0, 0)" stroke="rgb(204, 204, 204)" stroke-width="1px"></line><line x1="51.41600036621094" y1="215.97714233398438" x2="46.41600036621094" y2="215.97714233398438" style="visibility: inherit;" fill="rgb(0, 0, 0)" stroke="rgb(204, 204, 204)" stroke-width="1px"></line><line x1="51.41600036621094" y1="161.98285675048828" x2="46.41600036621094" y2="161.98285675048828" style="visibility: inherit;" fill="rgb(0, 0, 0)" stroke="rgb(204, 204, 204)" stroke-width="1px"></line><line x1="51.41600036621094" y1="107.98857116699219" x2="46.41600036621094" y2="107.98857116699219" style="visibility: inherit;" fill="rgb(0, 0, 0)" stroke="rgb(204, 204, 204)" stroke-width="1px"></line><line x1="51.41600036621094" y1="53.994285583496115" x2="46.41600036621094" y2="53.994285583496115" style="visibility: inherit;" fill="rgb(0, 0, 0)" stroke="rgb(204, 204, 204)" stroke-width="1px"></line><line x1="51.41600036621094" y1="0" x2="46.41600036621094" y2="0" style="visibility: inherit;" fill="rgb(0, 0, 0)" stroke="rgb(204, 204, 204)" stroke-width="1px"></line></g><g transform="translate(41.41600036621094, 0)"><text style="text-anchor: end; visibility: hidden; font-family: Roboto, sans-serif; font-size: 12px; font-weight: 200;" x="0" y="377.95999908447266" dx="0em" dy="0.3em" fill="rgb(50, 49, 63)" stroke="none" stroke-width="1px">-0.5</text><text style="text-anchor: end; visibility: inherit; font-family: Roboto, sans-serif; font-size: 12px; font-weight: 200;" x="0" y="323.96571350097656" dx="0em" dy="0.3em" fill="rgb(50, 49, 63)" stroke="none" stroke-width="1px">0</text><text style="text-anchor: end; visibility: inherit; font-family: Roboto, sans-serif; font-size: 12px; font-weight: 200;" x="0" y="269.97142791748047" dx="0em" dy="0.3em" fill="rgb(50, 49, 63)" stroke="none" stroke-width="1px">0.5</text><text style="text-anchor: end; visibility: inherit; font-family: Roboto, sans-serif; font-size: 12px; font-weight: 200;" x="0" y="215.97714233398438" dx="0em" dy="0.3em" fill="rgb(50, 49, 63)" stroke="none" stroke-width="1px">1</text><text style="text-anchor: end; visibility: inherit; font-family: Roboto, sans-serif; font-size: 12px; font-weight: 200;" x="0" y="161.98285675048828" dx="0em" dy="0.3em" fill="rgb(50, 49, 63)" stroke="none" stroke-width="1px">1.5</text><text style="text-anchor: end; visibility: inherit; font-family: Roboto, sans-serif; font-size: 12px; font-weight: 200;" x="0" y="107.98857116699219" dx="0em" dy="0.3em" fill="rgb(50, 49, 63)" stroke="none" stroke-width="1px">2</text><text style="text-anchor: end; visibility: inherit; font-family: Roboto, sans-serif; font-size: 12px; font-weight: 200;" x="0" y="53.994285583496115" dx="0em" dy="0.3em" fill="rgb(50, 49, 63)" stroke="none" stroke-width="1px">2.5</text><text style="text-anchor: end; visibility: hidden; font-family: Roboto, sans-serif; font-size: 12px; font-weight: 200;" x="0" y="0" dx="0em" dy="0.3em" fill="rgb(50, 49, 63)" stroke="none" stroke-width="1px">3</text></g><line x1="51.41600036621094" y1="0" x2="51.41600036621094" y2="377.95999908447266" fill="rgb(0, 0, 0)" stroke="rgb(204, 204, 204)" stroke-width="1px"></line></g></g><g transform="translate(51, 0)" clip-path="url(#clip_0)"><clipPath id="clip_0"><rect width="954" height="377"></rect></clipPath><g><g><g><line x1="0" y1="0" x2="0" y2="377.95999908447266" fill="rgb(0, 0, 0)" stroke="rgb(60, 60, 60)" stroke-width="1px" opacity="0.25"></line><line x1="79.54866663614908" y1="0" x2="79.54866663614908" y2="377.95999908447266" fill="rgb(0, 0, 0)" stroke="rgb(60, 60, 60)" stroke-width="1px" opacity="0.25"></line><line x1="159.09733327229816" y1="0" x2="159.09733327229816" y2="377.95999908447266" fill="rgb(0, 0, 0)" stroke="rgb(60, 60, 60)" stroke-width="1px" opacity="0.25"></line><line x1="238.64599990844727" y1="0" x2="238.64599990844727" y2="377.95999908447266" fill="rgb(0, 0, 0)" stroke="rgb(60, 60, 60)" stroke-width="1px" opacity="0.25"></line><line x1="318.1946665445963" y1="0" x2="318.1946665445963" y2="377.95999908447266" fill="rgb(0, 0, 0)" stroke="rgb(60, 60, 60)" stroke-width="1px" opacity="0.25"></line><line x1="397.7433331807455" y1="0" x2="397.7433331807455" y2="377.95999908447266" fill="rgb(0, 0, 0)" stroke="rgb(60, 60, 60)" stroke-width="1px" opacity="0.25"></line><line x1="477.29199981689453" y1="0" x2="477.29199981689453" y2="377.95999908447266" fill="rgb(0, 0, 0)" stroke="rgb(60, 60, 60)" stroke-width="1px" opacity="0.25"></line><line x1="556.8406664530437" y1="0" x2="556.8406664530437" y2="377.95999908447266" fill="rgb(0, 0, 0)" stroke="rgb(60, 60, 60)" stroke-width="1px" opacity="0.25"></line><line x1="636.3893330891926" y1="0" x2="636.3893330891926" y2="377.95999908447266" fill="rgb(0, 0, 0)" stroke="rgb(60, 60, 60)" stroke-width="1px" opacity="0.25"></line><line x1="715.9379997253418" y1="0" x2="715.9379997253418" y2="377.95999908447266" fill="rgb(0, 0, 0)" stroke="rgb(60, 60, 60)" stroke-width="1px" opacity="0.25"></line><line x1="795.486666361491" y1="0" x2="795.486666361491" y2="377.95999908447266" fill="rgb(0, 0, 0)" stroke="rgb(60, 60, 60)" stroke-width="1px" opacity="0.25"></line><line x1="875.0353329976399" y1="0" x2="875.0353329976399" y2="377.95999908447266" fill="rgb(0, 0, 0)" stroke="rgb(60, 60, 60)" stroke-width="1px" opacity="0.25"></line><line x1="954.5839996337891" y1="0" x2="954.5839996337891" y2="377.95999908447266" fill="rgb(0, 0, 0)" stroke="rgb(60, 60, 60)" stroke-width="1px" opacity="0.25"></line></g><g><line x1="0" y1="377.95999908447266" x2="954.5839996337891" y2="377.95999908447266" fill="rgb(0, 0, 0)" stroke="rgb(60, 60, 60)" stroke-width="1px" opacity="0.25"></line><line x1="0" y1="323.96571350097656" x2="954.5839996337891" y2="323.96571350097656" fill="rgb(0, 0, 0)" stroke="rgb(60, 60, 60)" stroke-width="1px" opacity="0.25"></line><line x1="0" y1="269.97142791748047" x2="954.5839996337891" y2="269.97142791748047" fill="rgb(0, 0, 0)" stroke="rgb(60, 60, 60)" stroke-width="1px" opacity="0.25"></line><line x1="0" y1="215.97714233398438" x2="954.5839996337891" y2="215.97714233398438" fill="rgb(0, 0, 0)" stroke="rgb(60, 60, 60)" stroke-width="1px" opacity="0.25"></line><line x1="0" y1="161.98285675048828" x2="954.5839996337891" y2="161.98285675048828" fill="rgb(0, 0, 0)" stroke="rgb(60, 60, 60)" stroke-width="1px" opacity="0.25"></line><line x1="0" y1="107.98857116699219" x2="954.5839996337891" y2="107.98857116699219" fill="rgb(0, 0, 0)" stroke="rgb(60, 60, 60)" stroke-width="1px" opacity="0.25"></line><line x1="0" y1="53.994285583496115" x2="954.5839996337891" y2="53.994285583496115" fill="rgb(0, 0, 0)" stroke="rgb(60, 60, 60)" stroke-width="1px" opacity="0.25"></line><line x1="0" y1="0" x2="954.5839996337891" y2="0" fill="rgb(0, 0, 0)" stroke="rgb(60, 60, 60)" stroke-width="1px" opacity="0.25"></line></g></g></g><g><g><line x1="0" y1="323.96571350097656" x2="954.5839996337891" y2="323.96571350097656" fill="rgb(0, 0, 0)" stroke="rgb(153, 153, 153)" stroke-width="1.5px"></line></g></g><g><g><line x1="79.54866663614908" y1="0" x2="79.54866663614908" y2="377.95999908447266" fill="rgb(0, 0, 0)" stroke="rgb(153, 153, 153)" stroke-width="1.5px"></line></g></g><g><g><g><g><g><path style="fill: none;" stroke="rgb(0, 119, 187)" stroke-width="2px" d="M79.54866663614908,108.1083180533642L95.45839996337891,191.14318031468244L111.36813329060872,218.5007094839821L127.27786661783854,235.24982568704579L143.18759994506834,240.12364110887847L159.09733327229816,243.70495096642753L175.00706659952797,245.95077794512054L190.91679992675782,249.54390543776842L206.82653325398763,250.03098381512973L222.73626658121745,250.79035698291682L238.64599990844727,251.533799515154L254.55573323567708,251.87488246805333L270.4654665629069,251.33763063448532L286.3751998901367,251.57479435063578L302.28493321736653,251.28500482589698L318.1946665445963,251.36101487648648L334.10439987182616,251.24703520201453L350.01413319905595,251.23606076419128L365.92386652628585,251.25387089290507L381.83359985351564,251.25301482238865L397.7433331807455,251.2429543846656L413.65306650797527,251.26657678162246L429.5627998352051,251.2663772463893L445.4725331624349,251.26794134515237L461.38226648966474,251.26380903484005L477.29199981689453,251.26675700699434L493.2017331441244,251.26326835872442L509.11146647135416,251.26335847141036L525.021199798584,251.26352582354136L540.9309331258138,251.26402787993447L556.8406664530437,251.26395064048938L572.7503997802734,251.26429178137184L588.6601331075033,251.26449131660502L604.5698664347331,251.26449775322544L620.479599761963,251.2645556828093L636.3893330891926,251.2645685560501L652.2990664164225,251.26457499267053L668.2087997436523,251.26458786591138L684.1185330708822,251.26458142929096L700.0282663981119,251.26458786591138L715.9379997253418,251.26458786591138L731.8477330525717,251.26458786591138L747.7574663798014,251.26458786591138L763.6671997070313,251.26458786591138L779.5769330342611,251.26458786591138L795.486666361491,251.26458786591138L811.3963996887206,251.26458786591138L827.3061330159505,251.26458786591138L843.2158663431803,251.26458786591138L859.1255996704102,251.26458786591138" fill="none"></path></g><g><path style="fill: none;" stroke="rgb(51, 187, 238)" stroke-width="2px" d="M95.45839996337891,-70.75035333661799L111.36813329060872,70.76088364763201L127.27786661783854,109.95349115713178L143.18759994506834,116.02564438644184L159.09733327229816,131.3451743200476L175.00706659952797,134.78863751459173L190.91679992675782,137.74677952915044L206.82653325398763,140.88152953490862L222.73626658121745,140.51862000215078L238.64599990844727,139.41813813498268L254.55573323567708,138.44695509889607L270.4654665629069,137.4980813891998L286.3751998901367,131.1641508072371L302.28493321736653,137.18040842478328L318.1946665445963,135.19239384056166L334.10439987182616,141.34419381100088L350.01413319905595,138.14763937592946L365.92386652628585,141.13828632363038L381.83359985351564,138.27362978411293L397.7433331807455,131.76763546497023L413.65306650797527,138.6375563028978L429.5627998352051,140.83576516369249L445.4725331624349,138.31468254917854L461.38226648966474,134.35038090314814L477.29199981689453,135.08751554736955L493.2017331441244,140.4410715992799L509.11146647135416,137.23869845934496L525.021199798584,133.35137879358808L540.9309331258138,133.8020709556913L556.8406664530437,140.75834549323008L572.7503997802734,142.20855469452727L588.6601331075033,132.9457429744543L604.5698664347331,140.18377413444247L620.479599761963,140.46160441843313L636.3893330891926,144.5555782195297L652.2990664164225,138.59875635498065L668.2087997436523,137.3214733980003L684.1185330708822,143.4427380411471L700.0282663981119,139.64571128670102L715.9379997253418,145.89176912663243L731.8477330525717,140.33126285484286L747.7574663798014,134.15488786762398L763.6671997070313,140.94462128830673L779.5769330342611,134.50599263852382L795.486666361491,138.82638099966243L811.3963996887206,142.3117723396499L827.3061330159505,132.23239807932077L843.2158663431803,135.69213305029734L859.1255996704102,134.16634505197908" fill="none"></path></g><g><path style="fill: none;" stroke="rgb(255, 112, 67)" stroke-width="2px" d="M79.54866663614908,62.18702203128488L95.45839996337891,211.63611816776574L111.36813329060872,272.5278958527765L127.27786661783854,298.68384476706L143.18759994506834,307.9201730123975L159.09733327229816,313.90389914574223L175.00706659952797,315.20684249462124L190.91679992675782,316.7278142917071L206.82653325398763,317.0919813791803L222.73626658121745,316.3473512904749L238.64599990844727,317.5117986822637L254.55573323567708,317.50229742594L270.4654665629069,318.1589879926772L286.3751998901367,317.8032363841199L302.28493321736653,317.74617936465825L318.1946665445963,317.1648728871743L334.10439987182616,318.3922631855139L350.01413319905595,319.17832298386855L365.92386652628585,316.85198152715543L381.83359985351564,318.8586180588419L397.7433331807455,317.7899821758001L413.65306650797527,319.0037956302212L429.5627998352051,318.5863763705346L445.4725331624349,319.2600053062069L461.38226648966474,318.11819671531634L477.29199981689453,318.9584041807009L493.2017331441244,318.52397896756474L509.11146647135416,317.2041942013458L525.021199798584,317.50706012276515L540.9309331258138,318.8447869684166L556.8406664530437,317.66825964924664L572.7503997802734,318.6360550115462L588.6601331075033,317.3836656840565L604.5698664347331,317.67972367251093L620.479599761963,318.1172247856323L636.3893330891926,317.76409006556617L652.2990664164225,318.59354153593307L668.2087997436523,317.5873706403756L684.1185330708822,318.25329252766744L700.0282663981119,318.2991852290033L715.9379997253418,317.8748164307024L731.8477330525717,317.30810539231913L747.7574663798014,318.1100857690043L763.6671997070313,317.9725983498768L779.5769330342611,318.58001216209016L795.486666361491,319.0154121209318L811.3963996887206,318.79406559489627L827.3061330159505,317.9723348507282L843.2158663431803,319.166521038032L859.1255996704102,318.3411169950456" fill="none"></path></g><g><path style="fill: none;" stroke="rgb(204, 51, 17)" stroke-width="2px" d="M79.54866663614908,-619.6755902130099L95.45839996337891,9.043631921387702L111.36813329060872,152.62008431522736L127.27786661783854,213.38600354277335L143.18759994506834,237.7928056842429L159.09733327229816,246.0023996409227L175.00706659952797,245.17452795858117L190.91679992675782,243.29356724525496L206.82653325398763,247.60248554879763L222.73626658121745,249.53766835257738L238.64599990844727,248.55142362469815L254.55573323567708,249.86721044505612L270.4654665629069,248.7554838020069L286.3751998901367,253.15493960843654L302.28493321736653,250.39341060135575L318.1946665445963,248.22531868752594L334.10439987182616,251.86561373464244L350.01413319905595,246.5954505369482L365.92386652628585,251.4781871146888L381.83359985351564,251.425387517349L397.7433331807455,254.59555824530162L413.65306650797527,253.27428742434222L429.5627998352051,250.84545445374806L445.4725331624349,250.77579734751725L461.38226648966474,244.23081641846508L477.29199981689453,253.18929828826094L493.2017331441244,246.63616216113132L509.11146647135416,250.7449273159627L525.021199798584,242.52614830193764L540.9309331258138,251.59030660585813L556.8406664530437,248.11310908367068L572.7503997802734,247.73624495783312L588.6601331075033,249.56185073551114L604.5698664347331,251.55906968693944L620.479599761963,253.58317440187966L636.3893330891926,249.61988974187625L652.2990664164225,250.51421953009776L668.2087997436523,250.2935979284375L684.1185330708822,247.96557530692738L700.0282663981119,247.50482270710108L715.9379997253418,246.15712312267988L731.8477330525717,253.38826709881414L747.7574663798014,254.9947960637337L763.6671997070313,249.7926550706825L779.5769330342611,249.81034934022864L795.486666361491,252.05040267040113L811.3963996887206,250.69523016966738L827.3061330159505,247.52863820267066L843.2158663431803,254.85355086514483L859.1255996704102,249.86206758533717" fill="none"></path></g></g></g></g></g></g><g transform="translate(51, 377)" clip-path="url(#clip_1)"><clipPath id="clip_1"><rect width="954" height="22"></rect></clipPath><g><g><line x1="0" y1="0" x2="0" y2="5" style="visibility: inherit;" fill="rgb(0, 0, 0)" stroke="rgb(204, 204, 204)" stroke-width="1px"></line><line x1="79.54866663614908" y1="0" x2="79.54866663614908" y2="5" style="visibility: inherit;" fill="rgb(0, 0, 0)" stroke="rgb(204, 204, 204)" stroke-width="1px"></line><line x1="159.09733327229816" y1="0" x2="159.09733327229816" y2="5" style="visibility: inherit;" fill="rgb(0, 0, 0)" stroke="rgb(204, 204, 204)" stroke-width="1px"></line><line x1="238.64599990844727" y1="0" x2="238.64599990844727" y2="5" style="visibility: inherit;" fill="rgb(0, 0, 0)" stroke="rgb(204, 204, 204)" stroke-width="1px"></line><line x1="318.1946665445963" y1="0" x2="318.1946665445963" y2="5" style="visibility: inherit;" fill="rgb(0, 0, 0)" stroke="rgb(204, 204, 204)" stroke-width="1px"></line><line x1="397.7433331807455" y1="0" x2="397.7433331807455" y2="5" style="visibility: inherit;" fill="rgb(0, 0, 0)" stroke="rgb(204, 204, 204)" stroke-width="1px"></line><line x1="477.29199981689453" y1="0" x2="477.29199981689453" y2="5" style="visibility: inherit;" fill="rgb(0, 0, 0)" stroke="rgb(204, 204, 204)" stroke-width="1px"></line><line x1="556.8406664530437" y1="0" x2="556.8406664530437" y2="5" style="visibility: inherit;" fill="rgb(0, 0, 0)" stroke="rgb(204, 204, 204)" stroke-width="1px"></line><line x1="636.3893330891926" y1="0" x2="636.3893330891926" y2="5" style="visibility: inherit;" fill="rgb(0, 0, 0)" stroke="rgb(204, 204, 204)" stroke-width="1px"></line><line x1="715.9379997253418" y1="0" x2="715.9379997253418" y2="5" style="visibility: inherit;" fill="rgb(0, 0, 0)" stroke="rgb(204, 204, 204)" stroke-width="1px"></line><line x1="795.486666361491" y1="0" x2="795.486666361491" y2="5" style="visibility: inherit;" fill="rgb(0, 0, 0)" stroke="rgb(204, 204, 204)" stroke-width="1px"></line><line x1="875.0353329976399" y1="0" x2="875.0353329976399" y2="5" style="visibility: inherit;" fill="rgb(0, 0, 0)" stroke="rgb(204, 204, 204)" stroke-width="1px"></line><line x1="954.5839996337891" y1="0" x2="954.5839996337891" y2="5" style="visibility: inherit;" fill="rgb(0, 0, 0)" stroke="rgb(204, 204, 204)" stroke-width="1px"></line></g><g transform="translate(0, 8)"><text style="text-anchor: middle; visibility: hidden; font-family: Roboto, sans-serif; font-size: 12px; font-weight: 200;" x="0" y="0" dx="0em" dy="0.95em" fill="rgb(50, 49, 63)" stroke="none" stroke-width="1px">-5</text><text style="text-anchor: middle; visibility: inherit; font-family: Roboto, sans-serif; font-size: 12px; font-weight: 200;" x="79.54866663614908" y="0" dx="0em" dy="0.95em" fill="rgb(50, 49, 63)" stroke="none" stroke-width="1px">0</text><text style="text-anchor: middle; visibility: inherit; font-family: Roboto, sans-serif; font-size: 12px; font-weight: 200;" x="159.09733327229816" y="0" dx="0em" dy="0.95em" fill="rgb(50, 49, 63)" stroke="none" stroke-width="1px">5</text><text style="text-anchor: middle; visibility: inherit; font-family: Roboto, sans-serif; font-size: 12px; font-weight: 200;" x="238.64599990844727" y="0" dx="0em" dy="0.95em" fill="rgb(50, 49, 63)" stroke="none" stroke-width="1px">10</text><text style="text-anchor: middle; visibility: inherit; font-family: Roboto, sans-serif; font-size: 12px; font-weight: 200;" x="318.1946665445963" y="0" dx="0em" dy="0.95em" fill="rgb(50, 49, 63)" stroke="none" stroke-width="1px">15</text><text style="text-anchor: middle; visibility: inherit; font-family: Roboto, sans-serif; font-size: 12px; font-weight: 200;" x="397.7433331807455" y="0" dx="0em" dy="0.95em" fill="rgb(50, 49, 63)" stroke="none" stroke-width="1px">20</text><text style="text-anchor: middle; visibility: inherit; font-family: Roboto, sans-serif; font-size: 12px; font-weight: 200;" x="477.29199981689453" y="0" dx="0em" dy="0.95em" fill="rgb(50, 49, 63)" stroke="none" stroke-width="1px">25</text><text style="text-anchor: middle; visibility: inherit; font-family: Roboto, sans-serif; font-size: 12px; font-weight: 200;" x="556.8406664530437" y="0" dx="0em" dy="0.95em" fill="rgb(50, 49, 63)" stroke="none" stroke-width="1px">30</text><text style="text-anchor: middle; visibility: inherit; font-family: Roboto, sans-serif; font-size: 12px; font-weight: 200;" x="636.3893330891926" y="0" dx="0em" dy="0.95em" fill="rgb(50, 49, 63)" stroke="none" stroke-width="1px">35</text><text style="text-anchor: middle; visibility: inherit; font-family: Roboto, sans-serif; font-size: 12px; font-weight: 200;" x="715.9379997253418" y="0" dx="0em" dy="0.95em" fill="rgb(50, 49, 63)" stroke="none" stroke-width="1px">40</text><text style="text-anchor: middle; visibility: inherit; font-family: Roboto, sans-serif; font-size: 12px; font-weight: 200;" x="795.486666361491" y="0" dx="0em" dy="0.95em" fill="rgb(50, 49, 63)" stroke="none" stroke-width="1px">45</text><text style="text-anchor: middle; visibility: inherit; font-family: Roboto, sans-serif; font-size: 12px; font-weight: 200;" x="875.0353329976399" y="0" dx="0em" dy="0.95em" fill="rgb(50, 49, 63)" stroke="none" stroke-width="1px">50</text><text style="text-anchor: middle; visibility: hidden; font-family: Roboto, sans-serif; font-size: 12px; font-weight: 200;" x="954.5839996337891" y="0" dx="0em" dy="0.95em" fill="rgb(50, 49, 63)" stroke="none" stroke-width="1px">55</text></g><line x1="0" y1="0" x2="954.5839996337891" y2="0" fill="rgb(0, 0, 0)" stroke="rgb(204, 204, 204)" stroke-width="1px"></line></g></g></g></g></svg>