<svg viewBox="0 0 1006 400" xmlns="http://www.w3.org/2000/svg"><g><g><g><g><g><line x1="51.41600036621094" y1="377.95999908447266" x2="46.41600036621094" y2="377.95999908447266" style="visibility: inherit;" fill="rgb(0, 0, 0)" stroke="rgb(204, 204, 204)" stroke-width="1px"></line><line x1="51.41600036621094" y1="348.88615300105164" x2="46.41600036621094" y2="348.88615300105164" style="visibility: inherit;" fill="rgb(0, 0, 0)" stroke="rgb(204, 204, 204)" stroke-width="1px"></line><line x1="51.41600036621094" y1="319.8123069176307" x2="46.41600036621094" y2="319.8123069176307" style="visibility: inherit;" fill="rgb(0, 0, 0)" stroke="rgb(204, 204, 204)" stroke-width="1px"></line><line x1="51.41600036621094" y1="290.73846083420966" x2="46.41600036621094" y2="290.73846083420966" style="visibility: inherit;" fill="rgb(0, 0, 0)" stroke="rgb(204, 204, 204)" stroke-width="1px"></line><line x1="51.41600036621094" y1="261.66461475078864" x2="46.41600036621094" y2="261.66461475078864" style="visibility: inherit;" fill="rgb(0, 0, 0)" stroke="rgb(204, 204, 204)" stroke-width="1px"></line><line x1="51.41600036621094" y1="232.59076866736763" x2="46.41600036621094" y2="232.59076866736763" style="visibility: inherit;" fill="rgb(0, 0, 0)" stroke="rgb(204, 204, 204)" stroke-width="1px"></line><line x1="51.41600036621094" y1="203.51692258394684" x2="46.41600036621094" y2="203.51692258394684" style="visibility: inherit;" fill="rgb(0, 0, 0)" stroke="rgb(204, 204, 204)" stroke-width="1px"></line><line x1="51.41600036621094" y1="174.44307650052582" x2="46.41600036621094" y2="174.44307650052582" style="visibility: inherit;" fill="rgb(0, 0, 0)" stroke="rgb(204, 204, 204)" stroke-width="1px"></line><line x1="51.41600036621094" y1="145.3692304171048" x2="46.41600036621094" y2="145.3692304171048" style="visibility: inherit;" fill="rgb(0, 0, 0)" stroke="rgb(204, 204, 204)" stroke-width="1px"></line><line x1="51.41600036621094" y1="116.29538433368381" x2="46.41600036621094" y2="116.29538433368381" style="visibility: inherit;" fill="rgb(0, 0, 0)" stroke="rgb(204, 204, 204)" stroke-width="1px"></line><line x1="51.41600036621094" y1="87.22153825026282" x2="46.41600036621094" y2="87.22153825026282" style="visibility: inherit;" fill="rgb(0, 0, 0)" stroke="rgb(204, 204, 204)" stroke-width="1px"></line><line x1="51.41600036621094" y1="58.14769216684182" x2="46.41600036621094" y2="58.14769216684182" style="visibility: inherit;" fill="rgb(0, 0, 0)" stroke="rgb(204, 204, 204)" stroke-width="1px"></line><line x1="51.41600036621094" y1="29.073846083420996" x2="46.41600036621094" y2="29.073846083420996" style="visibility: inherit;" fill="rgb(0, 0, 0)" stroke="rgb(204, 204, 204)" stroke-width="1px"></line><line x1="51.41600036621094" y1="0" x2="46.41600036621094" y2="0" style="visibility: inherit;" fill="rgb(0, 0, 0)" stroke="rgb(204, 204, 204)" stroke-width="1px"></line></g><g transform="translate(41.41600036621094, 0)"><text style="text-anchor: end; visibility: hidden; font-family: Roboto, sans-serif; font-size: 12px; font-weight: 200;" x="0" y="377.95999908447266" dx="0em" dy="0.3em" fill="rgb(50, 49, 63)" stroke="none" stroke-width="1px">0.7</text><text style="text-anchor: end; visibility: inherit; font-family: Roboto, sans-serif; font-size: 12px; font-weight: 200;" x="0" y="348.88615300105164" dx="0em" dy="0.3em" fill="rgb(50, 49, 63)" stroke="none" stroke-width="1px">0.72</text><text style="text-anchor: end; visibility: inherit; font-family: Roboto, sans-serif; font-size: 12px; font-weight: 200;" x="0" y="319.8123069176307" dx="0em" dy="0.3em" fill="rgb(50, 49, 63)" stroke="none" stroke-width="1px">0.74</text><text style="text-anchor: end; visibility: inherit; font-family: Roboto, sans-serif; font-size: 12px; font-weight: 200;" x="0" y="290.73846083420966" dx="0em" dy="0.3em" fill="rgb(50, 49, 63)" stroke="none" stroke-width="1px">0.76</text><text style="text-anchor: end; visibility: inherit; font-family: Roboto, sans-serif; font-size: 12px; font-weight: 200;" x="0" y="261.66461475078864" dx="0em" dy="0.3em" fill="rgb(50, 49, 63)" stroke="none" stroke-width="1px">0.78</text><text style="text-anchor: end; visibility: inherit; font-family: Roboto, sans-serif; font-size: 12px; font-weight: 200;" x="0" y="232.59076866736763" dx="0em" dy="0.3em" fill="rgb(50, 49, 63)" stroke="none" stroke-width="1px">0.8</text><text style="text-anchor: end; visibility: inherit; font-family: Roboto, sans-serif; font-size: 12px; font-weight: 200;" x="0" y="203.51692258394684" dx="0em" dy="0.3em" fill="rgb(50, 49, 63)" stroke="none" stroke-width="1px">0.82</text><text style="text-anchor: end; visibility: inherit; font-family: Roboto, sans-serif; font-size: 12px; font-weight: 200;" x="0" y="174.44307650052582" dx="0em" dy="0.3em" fill="rgb(50, 49, 63)" stroke="none" stroke-width="1px">0.84</text><text style="text-anchor: end; visibility: inherit; font-family: Roboto, sans-serif; font-size: 12px; font-weight: 200;" x="0" y="145.3692304171048" dx="0em" dy="0.3em" fill="rgb(50, 49, 63)" stroke="none" stroke-width="1px">0.86</text><text style="text-anchor: end; visibility: inherit; font-family: Roboto, sans-serif; font-size: 12px; font-weight: 200;" x="0" y="116.29538433368381" dx="0em" dy="0.3em" fill="rgb(50, 49, 63)" stroke="none" stroke-width="1px">0.88</text><text style="text-anchor: end; visibility: inherit; font-family: Roboto, sans-serif; font-size: 12px; font-weight: 200;" x="0" y="87.22153825026282" dx="0em" dy="0.3em" fill="rgb(50, 49, 63)" stroke="none" stroke-width="1px">0.9</text><text style="text-anchor: end; visibility: inherit; font-family: Roboto, sans-serif; font-size: 12px; font-weight: 200;" x="0" y="58.14769216684182" dx="0em" dy="0.3em" fill="rgb(50, 49, 63)" stroke="none" stroke-width="1px">0.92</text><text style="text-anchor: end; visibility: inherit; font-family: Roboto, sans-serif; font-size: 12px; font-weight: 200;" x="0" y="29.073846083420996" dx="0em" dy="0.3em" fill="rgb(50, 49, 63)" stroke="none" stroke-width="1px">0.94</text><text style="text-anchor: end; visibility: hidden; font-family: Roboto, sans-serif; font-size: 12px; font-weight: 200;" x="0" y="0" dx="0em" dy="0.3em" fill="rgb(50, 49, 63)" stroke="none" stroke-width="1px">0.96</text></g><line x1="51.41600036621094" y1="0" x2="51.41600036621094" y2="377.95999908447266" fill="rgb(0, 0, 0)" stroke="rgb(204, 204, 204)" stroke-width="1px"></line></g></g><g transform="translate(51, 0)" clip-path="url(#clip_0)"><clipPath id="clip_0"><rect width="954" height="377"></rect></clipPath><g><g><g><line x1="0" y1="0" x2="0" y2="377.95999908447266" fill="rgb(0, 0, 0)" stroke="rgb(60, 60, 60)" stroke-width="1px" opacity="0.25"></line><line x1="79.54866663614908" y1="0" x2="79.54866663614908" y2="377.95999908447266" fill="rgb(0, 0, 0)" stroke="rgb(60, 60, 60)" stroke-width="1px" opacity="0.25"></line><line x1="159.09733327229816" y1="0" x2="159.09733327229816" y2="377.95999908447266" fill="rgb(0, 0, 0)" stroke="rgb(60, 60, 60)" stroke-width="1px" opacity="0.25"></line><line x1="238.64599990844727" y1="0" x2="238.64599990844727" y2="377.95999908447266" fill="rgb(0, 0, 0)" stroke="rgb(60, 60, 60)" stroke-width="1px" opacity="0.25"></line><line x1="318.1946665445963" y1="0" x2="318.1946665445963" y2="377.95999908447266" fill="rgb(0, 0, 0)" stroke="rgb(60, 60, 60)" stroke-width="1px" opacity="0.25"></line><line x1="397.7433331807455" y1="0" x2="397.7433331807455" y2="377.95999908447266" fill="rgb(0, 0, 0)" stroke="rgb(60, 60, 60)" stroke-width="1px" opacity="0.25"></line><line x1="477.29199981689453" y1="0" x2="477.29199981689453" y2="377.95999908447266" fill="rgb(0, 0, 0)" stroke="rgb(60, 60, 60)" stroke-width="1px" opacity="0.25"></line><line x1="556.8406664530437" y1="0" x2="556.8406664530437" y2="377.95999908447266" fill="rgb(0, 0, 0)" stroke="rgb(60, 60, 60)" stroke-width="1px" opacity="0.25"></line><line x1="636.3893330891926" y1="0" x2="636.3893330891926" y2="377.95999908447266" fill="rgb(0, 0, 0)" stroke="rgb(60, 60, 60)" stroke-width="1px" opacity="0.25"></line><line x1="715.9379997253418" y1="0" x2="715.9379997253418" y2="377.95999908447266" fill="rgb(0, 0, 0)" stroke="rgb(60, 60, 60)" stroke-width="1px" opacity="0.25"></line><line x1="795.486666361491" y1="0" x2="795.486666361491" y2="377.95999908447266" fill="rgb(0, 0, 0)" stroke="rgb(60, 60, 60)" stroke-width="1px" opacity="0.25"></line><line x1="875.0353329976399" y1="0" x2="875.0353329976399" y2="377.95999908447266" fill="rgb(0, 0, 0)" stroke="rgb(60, 60, 60)" stroke-width="1px" opacity="0.25"></line><line x1="954.5839996337891" y1="0" x2="954.5839996337891" y2="377.95999908447266" fill="rgb(0, 0, 0)" stroke="rgb(60, 60, 60)" stroke-width="1px" opacity="0.25"></line></g><g><line x1="0" y1="377.95999908447266" x2="954.5839996337891" y2="377.95999908447266" fill="rgb(0, 0, 0)" stroke="rgb(60, 60, 60)" stroke-width="1px" opacity="0.25"></line><line x1="0" y1="348.88615300105164" x2="954.5839996337891" y2="348.88615300105164" fill="rgb(0, 0, 0)" stroke="rgb(60, 60, 60)" stroke-width="1px" opacity="0.25"></line><line x1="0" y1="319.8123069176307" x2="954.5839996337891" y2="319.8123069176307" fill="rgb(0, 0, 0)" stroke="rgb(60, 60, 60)" stroke-width="1px" opacity="0.25"></line><line x1="0" y1="290.73846083420966" x2="954.5839996337891" y2="290.73846083420966" fill="rgb(0, 0, 0)" stroke="rgb(60, 60, 60)" stroke-width="1px" opacity="0.25"></line><line x1="0" y1="261.66461475078864" x2="954.5839996337891" y2="261.66461475078864" fill="rgb(0, 0, 0)" stroke="rgb(60, 60, 60)" stroke-width="1px" opacity="0.25"></line><line x1="0" y1="232.59076866736763" x2="954.5839996337891" y2="232.59076866736763" fill="rgb(0, 0, 0)" stroke="rgb(60, 60, 60)" stroke-width="1px" opacity="0.25"></line><line x1="0" y1="203.51692258394684" x2="954.5839996337891" y2="203.51692258394684" fill="rgb(0, 0, 0)" stroke="rgb(60, 60, 60)" stroke-width="1px" opacity="0.25"></line><line x1="0" y1="174.44307650052582" x2="954.5839996337891" y2="174.44307650052582" fill="rgb(0, 0, 0)" stroke="rgb(60, 60, 60)" stroke-width="1px" opacity="0.25"></line><line x1="0" y1="145.3692304171048" x2="954.5839996337891" y2="145.3692304171048" fill="rgb(0, 0, 0)" stroke="rgb(60, 60, 60)" stroke-width="1px" opacity="0.25"></line><line x1="0" y1="116.29538433368381" x2="954.5839996337891" y2="116.29538433368381" fill="rgb(0, 0, 0)" stroke="rgb(60, 60, 60)" stroke-width="1px" opacity="0.25"></line><line x1="0" y1="87.22153825026282" x2="954.5839996337891" y2="87.22153825026282" fill="rgb(0, 0, 0)" stroke="rgb(60, 60, 60)" stroke-width="1px" opacity="0.25"></line><line x1="0" y1="58.14769216684182" x2="954.5839996337891" y2="58.14769216684182" fill="rgb(0, 0, 0)" stroke="rgb(60, 60, 60)" stroke-width="1px" opacity="0.25"></line><line x1="0" y1="29.073846083420996" x2="954.5839996337891" y2="29.073846083420996" fill="rgb(0, 0, 0)" stroke="rgb(60, 60, 60)" stroke-width="1px" opacity="0.25"></line><line x1="0" y1="0" x2="954.5839996337891" y2="0" fill="rgb(0, 0, 0)" stroke="rgb(60, 60, 60)" stroke-width="1px" opacity="0.25"></line></g></g></g><g><g><line x1="0" y1="1395.5446120042066" x2="954.5839996337891" y2="1395.5446120042066" fill="rgb(0, 0, 0)" stroke="rgb(153, 153, 153)" stroke-width="1.5px"></line></g></g><g><g><line x1="79.54866663614908" y1="0" x2="79.54866663614908" y2="377.95999908447266" fill="rgb(0, 0, 0)" stroke="rgb(153, 153, 153)" stroke-width="1.5px"></line></g></g><g><g><g><g><g><path style="fill: none;" stroke="rgb(0, 153, 136)" stroke-width="2px" d="M79.54866663614908,404.97553971789165L95.45839996337891,365.6251493514346L111.36813329060872,337.6259247748158L127.27786661783854,298.65392104248895L143.18759994506834,278.60038254853697L159.09733327229816,304.7078472481316L175.00706659952797,303.5726873457411L190.91679992675782,285.7893820097567L206.82653325398763,304.32946061400145L222.73626658121745,294.113541373367L238.64599990844727,298.65392104248895L254.55573323567708,292.59999483684635L270.4654665629069,297.5188477869118L286.3751998901367,297.14046115278165L302.28493321736653,293.73515473923686L318.1946665445963,304.32946061400145L334.10439987182616,312.27523334348155L350.01413319905595,302.43761409016395L365.92386652628585,292.22169484952957L381.83359985351564,291.086534947139L397.7433331807455,299.4106943107493L413.65306650797527,297.5188477869118L429.5627998352051,302.05922745603374L445.4725331624349,293.73515473923686L461.38226648966474,295.24861462894415L477.29199981689453,303.1943873584243L493.2017331441244,304.7078472481316L509.11146647135416,295.62700126307436L525.021199798584,295.62700126307436L540.9309331258138,289.95146169156186L556.8406664530437,287.30284189946406L572.7503997802734,303.1943873584243L588.6601331075033,293.73515473923686L604.5698664347331,303.5726873457411L620.479599761963,311.8968467093514L636.3893330891926,295.24861462894415L652.2990664164225,289.1946884233015L668.2087997436523,312.27523334348155L684.1185330708822,299.7890809448795L700.0282663981119,298.2755344083588L715.9379997253418,291.84330821539936L731.8477330525717,289.1946884233015L747.7574663798014,301.6808408219036L763.6671997070313,301.3025408345868L779.5769330342611,299.03230767661915L795.486666361491,294.870227994814L811.3963996887206,294.4918413606838L827.3061330159505,312.27523334348155L843.2158663431803,290.70814831300885L859.1255996704102,295.62700126307436" fill="none"></path></g><g><path style="fill: none;" stroke="rgb(51, 187, 238)" stroke-width="2px" d="M79.54866663614908,237.73661893918597L95.45839996337891,172.27885051994767L111.36813329060872,144.65792593064572L127.27786661783854,151.09015212360512L143.18759994506834,142.76607940680822L159.09733327229816,139.7390729805802L175.00706659952797,139.36077299326342L190.91679992675782,139.7390729805802L206.82653325398763,144.27953929651554L222.73626658121745,135.95537993290523L238.64599990844727,138.98238635913324L254.55573323567708,141.25261951710092L270.4654665629069,138.98238635913324L286.3751998901367,132.17177353204366L302.28493321736653,131.79338689791348L318.1946665445963,133.3068467876208L334.10439987182616,139.36077299326342L350.01413319905595,134.4419200431979L365.92386652628585,138.98238635913324L381.83359985351564,136.3337665670354L397.7433331807455,142.0093061385479L413.65306650797527,135.95537993290523L429.5627998352051,134.4419200431979L445.4725331624349,143.1444660409384L461.38226648966474,129.14476710581565L477.29199981689453,134.8203066773281L493.2017331441244,134.0635334090678L509.11146647135416,138.98238635913324L525.021199798584,135.95537993290523L540.9309331258138,138.98238635913324L556.8406664530437,135.95537993290523L572.7503997802734,139.36077299326342L588.6601331075033,141.63091950441773L604.5698664347331,137.84722645674276L620.479599761963,137.46892646942595L636.3893330891926,140.49584624884056L652.2990664164225,139.7390729805802L668.2087997436523,139.7390729805802L684.1185330708822,133.3068467876208L700.0282663981119,131.4150002637833L715.9379997253418,135.19869331145827L731.8477330525717,134.4419200431979L747.7574663798014,137.09053983529577L763.6671997070313,140.49584624884056L779.5769330342611,145.0362259179625L795.486666361491,136.7121532011656L811.3963996887206,137.84722645674276L827.3061330159505,127.25292058197816L843.2158663431803,140.87423288297074L859.1255996704102,131.03661362965312" fill="none"></path></g><g><path style="fill: none;" stroke="rgb(0, 119, 187)" stroke-width="2px" d="M79.54866663614908,234.70961251295793L95.45839996337891,183.62984301615919L111.36813329060872,152.60361201331244L127.27786661783854,133.3068467876208L143.18759994506834,137.46892646942595L159.09733327229816,138.22561309087294L175.00706659952797,139.36077299326342L190.91679992675782,138.22561309087294L206.82653325398763,134.8203066773281L222.73626658121745,134.0635334090678L238.64599990844727,134.4419200431979L254.55573323567708,135.95537993290523L270.4654665629069,128.3880804843687L286.3751998901367,138.98238635913324L302.28493321736653,133.685233421751L318.1946665445963,130.27992700820622L334.10439987182616,129.52315373994585L350.01413319905595,136.3337665670354L365.92386652628585,141.63091950441773L381.83359985351564,132.55007351936044L397.7433331807455,131.03661362965312L413.65306650797527,128.0096938502385L429.5627998352051,135.57707994558845L445.4725331624349,129.14476710581565L461.38226648966474,132.55007351936044L477.29199981689453,138.60399972500306L493.2017331441244,138.60399972500306L509.11146647135416,132.55007351936044L525.021199798584,128.3880804843687L540.9309331258138,135.95537993290523L556.8406664530437,138.22561309087294L572.7503997802734,133.3068467876208L588.6601331075033,135.19869331145827L604.5698664347331,134.8203066773281L620.479599761963,136.3337665670354L636.3893330891926,138.22561309087294L652.2990664164225,133.685233421751L668.2087997436523,133.685233421751L684.1185330708822,135.19869331145827L700.0282663981119,133.685233421751L715.9379997253418,133.685233421751L731.8477330525717,128.0096938502385L747.7574663798014,134.4419200431979L763.6671997070313,131.03661362965312L779.5769330342611,132.55007351936044L795.486666361491,131.79338689791348L811.3963996887206,137.09053983529577L827.3061330159505,133.3068467876208L843.2158663431803,131.79338689791348L859.1255996704102,135.95537993290523" fill="none"></path></g><g><path style="fill: none;" stroke="rgb(238, 51, 119)" stroke-width="2px" d="M79.54866663614908,511.85438405028793L95.45839996337891,339.08219776767726L111.36813329060872,285.93399554132606L127.27786661783854,276.34453276159417L143.18759994506834,257.00314442700005L159.09733327229816,260.5788851225082L175.00706659952797,253.58995315343557L190.91679992675782,240.74993516889634L206.82653325398763,249.36410141696595L222.73626658121745,245.1382496804963L238.64599990844727,241.88760782887556L254.55573323567708,250.17676187987112L270.4654665629069,250.66441014570228L286.3751998901367,246.92612002825038L302.28493321736653,258.62846535281045L318.1946665445963,257.00314442700005L334.10439987182616,250.33931130181483L350.01413319905595,241.72514505374525L365.92386652628585,240.9124845908401L381.83359985351564,248.71399037600452L397.7433331807455,251.15197176472003L413.65306650797527,249.52665083890966L429.5627998352051,244.3255892175911L445.4725331624349,241.40004620985786L461.38226648966474,244.00057702051708L477.29199981689453,244.48813863953484L493.2017331441244,252.12718164956894L509.11146647135416,246.1134595653452L525.021199798584,250.33931130181483L540.9309331258138,255.5403729231334L556.8406664530437,247.25121887213783L572.7503997802734,243.18791655761189L588.6601331075033,241.88760782887556L604.5698664347331,254.07760141926673L620.479599761963,243.83802759857335L636.3893330891926,258.62846535281045L652.2990664164225,249.68920026085337L668.2087997436523,254.40261361634074L684.1185330708822,248.8765397979482L700.0282663981119,256.1904839640949L715.9379997253418,246.1134595653452L731.8477330525717,243.67547817662964L747.7574663798014,240.09973748112148L763.6671997070313,250.50186072375854L779.5769330342611,244.3255892175911L795.486666361491,246.43855840923263L811.3963996887206,249.20163864183561L827.3061330159505,242.05015725081932L843.2158663431803,241.07494736597036L859.1255996704102,247.41376829408154" fill="none"></path></g><g><path style="fill: none;" stroke="rgb(204, 51, 17)" stroke-width="2px" d="M79.54866663614908,323.15400070664765L95.45839996337891,159.4835422911243L111.36813329060872,112.18659937386651L127.27786661783854,93.98288369925162L143.18759994506834,83.25574825954051L159.09733327229816,80.00510640791977L175.00706659952797,79.68000756403232L190.91679992675782,77.89213721627824L206.82653325398763,78.5423349040531L222.73626658121745,79.3549953669583L238.64599990844727,79.3549953669583L254.55573323567708,79.19244594501457L270.4654665629069,79.19244594501457L286.3751998901367,83.25574825954051L302.28493321736653,81.3053284898427L318.1946665445963,78.7047976791834L334.10439987182616,81.14277906789899L350.01413319905595,75.12914363048866L365.92386652628585,78.3797854821094L381.83359985351564,79.02989652307086L397.7433331807455,80.00510640791977L413.65306650797527,80.33011860499379L429.5627998352051,76.42936571241158L445.4725331624349,83.25574825954051L461.38226648966474,78.05468663822195L477.29199981689453,81.79297675567385L493.2017331441244,79.84255698597602L509.11146647135416,80.00510640791977L525.021199798584,73.6662854798086L540.9309331258138,77.56712501920418L556.8406664530437,77.24202617531678L572.7503997802734,78.21723606016565L588.6601331075033,80.98031629276863L604.5698664347331,78.05468663822195L620.479599761963,82.93064941565306L636.3893330891926,79.19244594501457L652.2990664164225,80.98031629276863L668.2087997436523,79.84255698597602L684.1185330708822,77.89213721627824L700.0282663981119,80.33011860499379L715.9379997253418,82.76809999370936L731.8477330525717,81.79297675567385L747.7574663798014,73.82883490175233L763.6671997070313,76.42936571241158L779.5769330342611,80.00510640791977L795.486666361491,75.12914363048866L811.3963996887206,79.68000756403232L827.3061330159505,77.40457559726049L843.2158663431803,74.8040447866012L859.1255996704102,76.75446455629903" fill="none"></path></g><g><path style="fill: none;" stroke="rgb(255, 112, 67)" stroke-width="2px" d="M79.54866663614908,317.1402786224239L95.45839996337891,154.28248066980575L111.36813329060872,105.19766740479388L127.27786661783854,81.63042733373014L143.18759994506834,73.6662854798086L159.09733327229816,69.44043374333897L175.00706659952797,64.72702038785157L190.91679992675782,68.30276108335975L206.82653325398763,63.914359924946396L222.73626658121745,66.83990293267969L238.64599990844727,63.10169946204119L254.55573323567708,64.0769093468901L270.4654665629069,63.26424888398493L286.3751998901367,65.70223027270048L302.28493321736653,65.70223027270048L318.1946665445963,69.44043374333897L334.10439987182616,60.988730270399664L350.01413319905595,68.79032270237747L365.92386652628585,68.79032270237747L381.83359985351564,69.27797096820862L397.7433331807455,68.46522385849006L413.65306650797527,70.09063143111383L429.5627998352051,67.16500177656714L445.4725331624349,66.18979189171823L461.38226648966474,64.72702038785157L477.29199981689453,63.75181050300265L493.2017331441244,68.140211661416L509.11146647135416,64.88956980979526L525.021199798584,63.10169946204119L540.9309331258138,63.10169946204119L556.8406664530437,63.26424888398493L572.7503997802734,68.79032270237747L588.6601331075033,64.72702038785157L604.5698664347331,65.05211923173901L620.479599761963,68.95287212432122L636.3893330891926,63.42671165911524L652.2990664164225,65.05211923173901L668.2087997436523,67.32755119851085L684.1185330708822,65.21458200686932L700.0282663981119,68.30276108335975L715.9379997253418,66.67744015754938L731.8477330525717,63.75181050300265L747.7574663798014,64.2394587688338L763.6671997070313,65.70223027270048L779.5769330342611,63.26424888398493L795.486666361491,67.32755119851085L811.3963996887206,68.140211661416L827.3061330159505,66.67744015754938L843.2158663431803,68.140211661416L859.1255996704102,70.09063143111383" fill="none"></path></g></g></g></g></g></g><g transform="translate(51, 377)" clip-path="url(#clip_1)"><clipPath id="clip_1"><rect width="954" height="22"></rect></clipPath><g><g><line x1="0" y1="0" x2="0" y2="5" style="visibility: inherit;" fill="rgb(0, 0, 0)" stroke="rgb(204, 204, 204)" stroke-width="1px"></line><line x1="79.54866663614908" y1="0" x2="79.54866663614908" y2="5" style="visibility: inherit;" fill="rgb(0, 0, 0)" stroke="rgb(204, 204, 204)" stroke-width="1px"></line><line x1="159.09733327229816" y1="0" x2="159.09733327229816" y2="5" style="visibility: inherit;" fill="rgb(0, 0, 0)" stroke="rgb(204, 204, 204)" stroke-width="1px"></line><line x1="238.64599990844727" y1="0" x2="238.64599990844727" y2="5" style="visibility: inherit;" fill="rgb(0, 0, 0)" stroke="rgb(204, 204, 204)" stroke-width="1px"></line><line x1="318.1946665445963" y1="0" x2="318.1946665445963" y2="5" style="visibility: inherit;" fill="rgb(0, 0, 0)" stroke="rgb(204, 204, 204)" stroke-width="1px"></line><line x1="397.7433331807455" y1="0" x2="397.7433331807455" y2="5" style="visibility: inherit;" fill="rgb(0, 0, 0)" stroke="rgb(204, 204, 204)" stroke-width="1px"></line><line x1="477.29199981689453" y1="0" x2="477.29199981689453" y2="5" style="visibility: inherit;" fill="rgb(0, 0, 0)" stroke="rgb(204, 204, 204)" stroke-width="1px"></line><line x1="556.8406664530437" y1="0" x2="556.8406664530437" y2="5" style="visibility: inherit;" fill="rgb(0, 0, 0)" stroke="rgb(204, 204, 204)" stroke-width="1px"></line><line x1="636.3893330891926" y1="0" x2="636.3893330891926" y2="5" style="visibility: inherit;" fill="rgb(0, 0, 0)" stroke="rgb(204, 204, 204)" stroke-width="1px"></line><line x1="715.9379997253418" y1="0" x2="715.9379997253418" y2="5" style="visibility: inherit;" fill="rgb(0, 0, 0)" stroke="rgb(204, 204, 204)" stroke-width="1px"></line><line x1="795.486666361491" y1="0" x2="795.486666361491" y2="5" style="visibility: inherit;" fill="rgb(0, 0, 0)" stroke="rgb(204, 204, 204)" stroke-width="1px"></line><line x1="875.0353329976399" y1="0" x2="875.0353329976399" y2="5" style="visibility: inherit;" fill="rgb(0, 0, 0)" stroke="rgb(204, 204, 204)" stroke-width="1px"></line><line x1="954.5839996337891" y1="0" x2="954.5839996337891" y2="5" style="visibility: inherit;" fill="rgb(0, 0, 0)" stroke="rgb(204, 204, 204)" stroke-width="1px"></line></g><g transform="translate(0, 8)"><text style="text-anchor: middle; visibility: hidden; font-family: Roboto, sans-serif; font-size: 12px; font-weight: 200;" x="0" y="0" dx="0em" dy="0.95em" fill="rgb(50, 49, 63)" stroke="none" stroke-width="1px">-5</text><text style="text-anchor: middle; visibility: inherit; font-family: Roboto, sans-serif; font-size: 12px; font-weight: 200;" x="79.54866663614908" y="0" dx="0em" dy="0.95em" fill="rgb(50, 49, 63)" stroke="none" stroke-width="1px">0</text><text style="text-anchor: middle; visibility: inherit; font-family: Roboto, sans-serif; font-size: 12px; font-weight: 200;" x="159.09733327229816" y="0" dx="0em" dy="0.95em" fill="rgb(50, 49, 63)" stroke="none" stroke-width="1px">5</text><text style="text-anchor: middle; visibility: inherit; font-family: Roboto, sans-serif; font-size: 12px; font-weight: 200;" x="238.64599990844727" y="0" dx="0em" dy="0.95em" fill="rgb(50, 49, 63)" stroke="none" stroke-width="1px">10</text><text style="text-anchor: middle; visibility: inherit; font-family: Roboto, sans-serif; font-size: 12px; font-weight: 200;" x="318.1946665445963" y="0" dx="0em" dy="0.95em" fill="rgb(50, 49, 63)" stroke="none" stroke-width="1px">15</text><text style="text-anchor: middle; visibility: inherit; font-family: Roboto, sans-serif; font-size: 12px; font-weight: 200;" x="397.7433331807455" y="0" dx="0em" dy="0.95em" fill="rgb(50, 49, 63)" stroke="none" stroke-width="1px">20</text><text style="text-anchor: middle; visibility: inherit; font-family: Roboto, sans-serif; font-size: 12px; font-weight: 200;" x="477.29199981689453" y="0" dx="0em" dy="0.95em" fill="rgb(50, 49, 63)" stroke="none" stroke-width="1px">25</text><text style="text-anchor: middle; visibility: inherit; font-family: Roboto, sans-serif; font-size: 12px; font-weight: 200;" x="556.8406664530437" y="0" dx="0em" dy="0.95em" fill="rgb(50, 49, 63)" stroke="none" stroke-width="1px">30</text><text style="text-anchor: middle; visibility: inherit; font-family: Roboto, sans-serif; font-size: 12px; font-weight: 200;" x="636.3893330891926" y="0" dx="0em" dy="0.95em" fill="rgb(50, 49, 63)" stroke="none" stroke-width="1px">35</text><text style="text-anchor: middle; visibility: inherit; font-family: Roboto, sans-serif; font-size: 12px; font-weight: 200;" x="715.9379997253418" y="0" dx="0em" dy="0.95em" fill="rgb(50, 49, 63)" stroke="none" stroke-width="1px">40</text><text style="text-anchor: middle; visibility: inherit; font-family: Roboto, sans-serif; font-size: 12px; font-weight: 200;" x="795.486666361491" y="0" dx="0em" dy="0.95em" fill="rgb(50, 49, 63)" stroke="none" stroke-width="1px">45</text><text style="text-anchor: middle; visibility: inherit; font-family: Roboto, sans-serif; font-size: 12px; font-weight: 200;" x="875.0353329976399" y="0" dx="0em" dy="0.95em" fill="rgb(50, 49, 63)" stroke="none" stroke-width="1px">50</text><text style="text-anchor: middle; visibility: hidden; font-family: Roboto, sans-serif; font-size: 12px; font-weight: 200;" x="954.5839996337891" y="0" dx="0em" dy="0.95em" fill="rgb(50, 49, 63)" stroke="none" stroke-width="1px">55</text></g><line x1="0" y1="0" x2="954.5839996337891" y2="0" fill="rgb(0, 0, 0)" stroke="rgb(204, 204, 204)" stroke-width="1px"></line></g></g></g></g></svg>