<svg viewBox="0 0 1006 400" xmlns="http://www.w3.org/2000/svg"><g><g><g><g><g><line x1="51.41600036621094" y1="377.95999908447266" x2="46.41600036621094" y2="377.95999908447266" style="visibility: inherit;" fill="rgb(0, 0, 0)" stroke="rgb(204, 204, 204)" stroke-width="1px"></line><line x1="51.41600036621094" y1="346.4633324940999" x2="46.41600036621094" y2="346.4633324940999" style="visibility: inherit;" fill="rgb(0, 0, 0)" stroke="rgb(204, 204, 204)" stroke-width="1px"></line><line x1="51.41600036621094" y1="314.9666659037271" x2="46.41600036621094" y2="314.9666659037271" style="visibility: inherit;" fill="rgb(0, 0, 0)" stroke="rgb(204, 204, 204)" stroke-width="1px"></line><line x1="51.41600036621094" y1="283.46999931335444" x2="46.41600036621094" y2="283.46999931335444" style="visibility: inherit;" fill="rgb(0, 0, 0)" stroke="rgb(204, 204, 204)" stroke-width="1px"></line><line x1="51.41600036621094" y1="251.97333272298164" x2="46.41600036621094" y2="251.97333272298164" style="visibility: inherit;" fill="rgb(0, 0, 0)" stroke="rgb(204, 204, 204)" stroke-width="1px"></line><line x1="51.41600036621094" y1="220.4766661326089" x2="46.41600036621094" y2="220.4766661326089" style="visibility: inherit;" fill="rgb(0, 0, 0)" stroke="rgb(204, 204, 204)" stroke-width="1px"></line><line x1="51.41600036621094" y1="188.97999954223616" x2="46.41600036621094" y2="188.97999954223616" style="visibility: inherit;" fill="rgb(0, 0, 0)" stroke="rgb(204, 204, 204)" stroke-width="1px"></line><line x1="51.41600036621094" y1="157.4833329518634" x2="46.41600036621094" y2="157.4833329518634" style="visibility: inherit;" fill="rgb(0, 0, 0)" stroke="rgb(204, 204, 204)" stroke-width="1px"></line><line x1="51.41600036621094" y1="125.98666636149065" x2="46.41600036621094" y2="125.98666636149065" style="visibility: inherit;" fill="rgb(0, 0, 0)" stroke="rgb(204, 204, 204)" stroke-width="1px"></line><line x1="51.41600036621094" y1="94.48999977111791" x2="46.41600036621094" y2="94.48999977111791" style="visibility: inherit;" fill="rgb(0, 0, 0)" stroke="rgb(204, 204, 204)" stroke-width="1px"></line><line x1="51.41600036621094" y1="62.99333318074513" x2="46.41600036621094" y2="62.99333318074513" style="visibility: inherit;" fill="rgb(0, 0, 0)" stroke="rgb(204, 204, 204)" stroke-width="1px"></line><line x1="51.41600036621094" y1="31.496666590372737" x2="46.41600036621094" y2="31.496666590372737" style="visibility: inherit;" fill="rgb(0, 0, 0)" stroke="rgb(204, 204, 204)" stroke-width="1px"></line><line x1="51.41600036621094" y1="0" x2="46.41600036621094" y2="0" style="visibility: inherit;" fill="rgb(0, 0, 0)" stroke="rgb(204, 204, 204)" stroke-width="1px"></line></g><g transform="translate(41.41600036621094, 0)"><text style="text-anchor: end; visibility: hidden; font-family: Roboto, sans-serif; font-size: 12px; font-weight: 200;" x="0" y="377.95999908447266" dx="0em" dy="0.3em" fill="rgb(50, 49, 63)" stroke="none" stroke-width="1px">0.83</text><text style="text-anchor: end; visibility: inherit; font-family: Roboto, sans-serif; font-size: 12px; font-weight: 200;" x="0" y="346.4633324940999" dx="0em" dy="0.3em" fill="rgb(50, 49, 63)" stroke="none" stroke-width="1px">0.84</text><text style="text-anchor: end; visibility: inherit; font-family: Roboto, sans-serif; font-size: 12px; font-weight: 200;" x="0" y="314.9666659037271" dx="0em" dy="0.3em" fill="rgb(50, 49, 63)" stroke="none" stroke-width="1px">0.85</text><text style="text-anchor: end; visibility: inherit; font-family: Roboto, sans-serif; font-size: 12px; font-weight: 200;" x="0" y="283.46999931335444" dx="0em" dy="0.3em" fill="rgb(50, 49, 63)" stroke="none" stroke-width="1px">0.86</text><text style="text-anchor: end; visibility: inherit; font-family: Roboto, sans-serif; font-size: 12px; font-weight: 200;" x="0" y="251.97333272298164" dx="0em" dy="0.3em" fill="rgb(50, 49, 63)" stroke="none" stroke-width="1px">0.87</text><text style="text-anchor: end; visibility: inherit; font-family: Roboto, sans-serif; font-size: 12px; font-weight: 200;" x="0" y="220.4766661326089" dx="0em" dy="0.3em" fill="rgb(50, 49, 63)" stroke="none" stroke-width="1px">0.88</text><text style="text-anchor: end; visibility: inherit; font-family: Roboto, sans-serif; font-size: 12px; font-weight: 200;" x="0" y="188.97999954223616" dx="0em" dy="0.3em" fill="rgb(50, 49, 63)" stroke="none" stroke-width="1px">0.89</text><text style="text-anchor: end; visibility: inherit; font-family: Roboto, sans-serif; font-size: 12px; font-weight: 200;" x="0" y="157.4833329518634" dx="0em" dy="0.3em" fill="rgb(50, 49, 63)" stroke="none" stroke-width="1px">0.9</text><text style="text-anchor: end; visibility: inherit; font-family: Roboto, sans-serif; font-size: 12px; font-weight: 200;" x="0" y="125.98666636149065" dx="0em" dy="0.3em" fill="rgb(50, 49, 63)" stroke="none" stroke-width="1px">0.91</text><text style="text-anchor: end; visibility: inherit; font-family: Roboto, sans-serif; font-size: 12px; font-weight: 200;" x="0" y="94.48999977111791" dx="0em" dy="0.3em" fill="rgb(50, 49, 63)" stroke="none" stroke-width="1px">0.92</text><text style="text-anchor: end; visibility: inherit; font-family: Roboto, sans-serif; font-size: 12px; font-weight: 200;" x="0" y="62.99333318074513" dx="0em" dy="0.3em" fill="rgb(50, 49, 63)" stroke="none" stroke-width="1px">0.93</text><text style="text-anchor: end; visibility: inherit; font-family: Roboto, sans-serif; font-size: 12px; font-weight: 200;" x="0" y="31.496666590372737" dx="0em" dy="0.3em" fill="rgb(50, 49, 63)" stroke="none" stroke-width="1px">0.94</text><text style="text-anchor: end; visibility: hidden; font-family: Roboto, sans-serif; font-size: 12px; font-weight: 200;" x="0" y="0" dx="0em" dy="0.3em" fill="rgb(50, 49, 63)" stroke="none" stroke-width="1px">0.95</text></g><line x1="51.41600036621094" y1="0" x2="51.41600036621094" y2="377.95999908447266" fill="rgb(0, 0, 0)" stroke="rgb(204, 204, 204)" stroke-width="1px"></line></g></g><g transform="translate(51, 0)" clip-path="url(#clip_0)"><clipPath id="clip_0"><rect width="954" height="377"></rect></clipPath><g><g><g><line x1="0" y1="0" x2="0" y2="377.95999908447266" fill="rgb(0, 0, 0)" stroke="rgb(60, 60, 60)" stroke-width="1px" opacity="0.25"></line><line x1="79.54866663614908" y1="0" x2="79.54866663614908" y2="377.95999908447266" fill="rgb(0, 0, 0)" stroke="rgb(60, 60, 60)" stroke-width="1px" opacity="0.25"></line><line x1="159.09733327229816" y1="0" x2="159.09733327229816" y2="377.95999908447266" fill="rgb(0, 0, 0)" stroke="rgb(60, 60, 60)" stroke-width="1px" opacity="0.25"></line><line x1="238.64599990844727" y1="0" x2="238.64599990844727" y2="377.95999908447266" fill="rgb(0, 0, 0)" stroke="rgb(60, 60, 60)" stroke-width="1px" opacity="0.25"></line><line x1="318.1946665445963" y1="0" x2="318.1946665445963" y2="377.95999908447266" fill="rgb(0, 0, 0)" stroke="rgb(60, 60, 60)" stroke-width="1px" opacity="0.25"></line><line x1="397.7433331807455" y1="0" x2="397.7433331807455" y2="377.95999908447266" fill="rgb(0, 0, 0)" stroke="rgb(60, 60, 60)" stroke-width="1px" opacity="0.25"></line><line x1="477.29199981689453" y1="0" x2="477.29199981689453" y2="377.95999908447266" fill="rgb(0, 0, 0)" stroke="rgb(60, 60, 60)" stroke-width="1px" opacity="0.25"></line><line x1="556.8406664530437" y1="0" x2="556.8406664530437" y2="377.95999908447266" fill="rgb(0, 0, 0)" stroke="rgb(60, 60, 60)" stroke-width="1px" opacity="0.25"></line><line x1="636.3893330891926" y1="0" x2="636.3893330891926" y2="377.95999908447266" fill="rgb(0, 0, 0)" stroke="rgb(60, 60, 60)" stroke-width="1px" opacity="0.25"></line><line x1="715.9379997253418" y1="0" x2="715.9379997253418" y2="377.95999908447266" fill="rgb(0, 0, 0)" stroke="rgb(60, 60, 60)" stroke-width="1px" opacity="0.25"></line><line x1="795.486666361491" y1="0" x2="795.486666361491" y2="377.95999908447266" fill="rgb(0, 0, 0)" stroke="rgb(60, 60, 60)" stroke-width="1px" opacity="0.25"></line><line x1="875.0353329976399" y1="0" x2="875.0353329976399" y2="377.95999908447266" fill="rgb(0, 0, 0)" stroke="rgb(60, 60, 60)" stroke-width="1px" opacity="0.25"></line><line x1="954.5839996337891" y1="0" x2="954.5839996337891" y2="377.95999908447266" fill="rgb(0, 0, 0)" stroke="rgb(60, 60, 60)" stroke-width="1px" opacity="0.25"></line></g><g><line x1="0" y1="377.95999908447266" x2="954.5839996337891" y2="377.95999908447266" fill="rgb(0, 0, 0)" stroke="rgb(60, 60, 60)" stroke-width="1px" opacity="0.25"></line><line x1="0" y1="346.4633324940999" x2="954.5839996337891" y2="346.4633324940999" fill="rgb(0, 0, 0)" stroke="rgb(60, 60, 60)" stroke-width="1px" opacity="0.25"></line><line x1="0" y1="314.9666659037271" x2="954.5839996337891" y2="314.9666659037271" fill="rgb(0, 0, 0)" stroke="rgb(60, 60, 60)" stroke-width="1px" opacity="0.25"></line><line x1="0" y1="283.46999931335444" x2="954.5839996337891" y2="283.46999931335444" fill="rgb(0, 0, 0)" stroke="rgb(60, 60, 60)" stroke-width="1px" opacity="0.25"></line><line x1="0" y1="251.97333272298164" x2="954.5839996337891" y2="251.97333272298164" fill="rgb(0, 0, 0)" stroke="rgb(60, 60, 60)" stroke-width="1px" opacity="0.25"></line><line x1="0" y1="220.4766661326089" x2="954.5839996337891" y2="220.4766661326089" fill="rgb(0, 0, 0)" stroke="rgb(60, 60, 60)" stroke-width="1px" opacity="0.25"></line><line x1="0" y1="188.97999954223616" x2="954.5839996337891" y2="188.97999954223616" fill="rgb(0, 0, 0)" stroke="rgb(60, 60, 60)" stroke-width="1px" opacity="0.25"></line><line x1="0" y1="157.4833329518634" x2="954.5839996337891" y2="157.4833329518634" fill="rgb(0, 0, 0)" stroke="rgb(60, 60, 60)" stroke-width="1px" opacity="0.25"></line><line x1="0" y1="125.98666636149065" x2="954.5839996337891" y2="125.98666636149065" fill="rgb(0, 0, 0)" stroke="rgb(60, 60, 60)" stroke-width="1px" opacity="0.25"></line><line x1="0" y1="94.48999977111791" x2="954.5839996337891" y2="94.48999977111791" fill="rgb(0, 0, 0)" stroke="rgb(60, 60, 60)" stroke-width="1px" opacity="0.25"></line><line x1="0" y1="62.99333318074513" x2="954.5839996337891" y2="62.99333318074513" fill="rgb(0, 0, 0)" stroke="rgb(60, 60, 60)" stroke-width="1px" opacity="0.25"></line><line x1="0" y1="31.496666590372737" x2="954.5839996337891" y2="31.496666590372737" fill="rgb(0, 0, 0)" stroke="rgb(60, 60, 60)" stroke-width="1px" opacity="0.25"></line><line x1="0" y1="0" x2="954.5839996337891" y2="0" fill="rgb(0, 0, 0)" stroke="rgb(60, 60, 60)" stroke-width="1px" opacity="0.25"></line></g></g></g><g><g><line x1="0" y1="2992.1833260854087" x2="954.5839996337891" y2="2992.1833260854087" fill="rgb(0, 0, 0)" stroke="rgb(153, 153, 153)" stroke-width="1.5px"></line></g></g><g><g><line x1="79.54866663614908" y1="0" x2="79.54866663614908" y2="377.95999908447266" fill="rgb(0, 0, 0)" stroke="rgb(153, 153, 153)" stroke-width="1.5px"></line></g></g><g><g><g><g><g><path style="fill: none;" stroke="rgb(0, 119, 187)" stroke-width="2px" d="M79.54866663614908,504.913995091956L95.45839996337891,327.01766067605746L111.36813329060872,310.6216574694659L127.27786661783854,258.9743224626074L143.18759994506834,242.57850699077824L159.09733327229816,250.77650859407402L175.00706659952797,253.23583398115778L190.91679992675782,249.95667088679195L206.82653325398763,250.77650859407402L222.73626658121745,251.5961585665937L238.64599990844727,250.77650859407402L254.55573323567708,251.5961585665937L270.4654665629069,251.5961585665937L286.3751998901367,251.5961585665937L302.28493321736653,251.5961585665937L318.1946665445963,251.5961585665937L334.10439987182616,251.5961585665937L350.01413319905595,251.5961585665937L365.92386652628585,251.5961585665937L381.83359985351564,251.5961585665937L397.7433331807455,251.5961585665937L413.65306650797527,251.5961585665937L429.5627998352051,251.5961585665937L445.4725331624349,251.5961585665937L461.38226648966474,251.5961585665937L477.29199981689453,251.5961585665937L493.2017331441244,251.5961585665937L509.11146647135416,251.5961585665937L525.021199798584,251.5961585665937L540.9309331258138,251.5961585665937L556.8406664530437,251.5961585665937L572.7503997802734,251.5961585665937L588.6601331075033,251.5961585665937L604.5698664347331,251.5961585665937L620.479599761963,251.5961585665937L636.3893330891926,251.5961585665937L652.2990664164225,251.5961585665937L668.2087997436523,251.5961585665937L684.1185330708822,251.5961585665937L700.0282663981119,251.5961585665937L715.9379997253418,251.5961585665937L731.8477330525717,251.5961585665937L747.7574663798014,251.5961585665937L763.6671997070313,251.5961585665937L779.5769330342611,251.5961585665937L795.486666361491,251.5961585665937L811.3963996887206,251.5961585665937L827.3061330159505,251.5961585665937L843.2158663431803,251.5961585665937L859.1255996704102,251.5961585665937" fill="none"></path></g><g><path style="fill: none;" stroke="rgb(51, 187, 238)" stroke-width="2px" d="M79.54866663614908,497.5358311959423L95.45839996337891,356.5305039948747L111.36813329060872,304.8831689880163L127.27786661783854,249.95667088679195L143.18759994506834,240.11899386893208L159.09733327229816,240.11899386893208L175.00706659952797,242.57850699077824L190.91679992675782,245.037832377862L206.82653325398763,243.3981569632979L222.73626658121745,242.57850699077824L238.64599990844727,240.11899386893208L254.55573323567708,242.57850699077824L270.4654665629069,242.57850699077824L286.3751998901367,242.57850699077824L302.28493321736653,242.57850699077824L318.1946665445963,242.57850699077824L334.10439987182616,242.57850699077824L350.01413319905595,242.57850699077824L365.92386652628585,242.57850699077824L381.83359985351564,242.57850699077824L397.7433331807455,242.57850699077824L413.65306650797527,242.57850699077824L429.5627998352051,242.57850699077824L445.4725331624349,242.57850699077824L461.38226648966474,242.57850699077824L477.29199981689453,242.57850699077824L493.2017331441244,242.57850699077824L509.11146647135416,242.57850699077824L525.021199798584,242.57850699077824L540.9309331258138,242.57850699077824L556.8406664530437,242.57850699077824L572.7503997802734,242.57850699077824L588.6601331075033,242.57850699077824L604.5698664347331,242.57850699077824L620.479599761963,242.57850699077824L636.3893330891926,242.57850699077824L652.2990664164225,242.57850699077824L668.2087997436523,242.57850699077824L684.1185330708822,242.57850699077824L700.0282663981119,242.57850699077824L715.9379997253418,242.57850699077824L731.8477330525717,242.57850699077824L747.7574663798014,242.57850699077824L763.6671997070313,242.57850699077824L779.5769330342611,242.57850699077824L795.486666361491,242.57850699077824L811.3963996887206,242.57850699077824L827.3061330159505,242.57850699077824L843.2158663431803,242.57850699077824L859.1255996704102,242.57850699077824" fill="none"></path></g><g><path style="fill: none;" stroke="rgb(0, 153, 136)" stroke-width="2px" d="M79.54866663614908,564.7593317021102L95.45839996337891,356.5305039948747L111.36813329060872,294.2258419976367L127.27786661783854,250.77650859407402L143.18759994506834,249.1368331795099L159.09733327229816,243.3981569632979L175.00706659952797,249.1368331795099L190.91679992675782,245.037832377862L206.82653325398763,249.1368331795099L222.73626658121745,249.1368331795099L238.64599990844727,249.1368331795099L254.55573323567708,249.1368331795099L270.4654665629069,249.1368331795099L286.3751998901367,249.1368331795099L302.28493321736653,249.1368331795099L318.1946665445963,249.1368331795099L334.10439987182616,249.1368331795099L350.01413319905595,249.1368331795099L365.92386652628585,249.1368331795099L381.83359985351564,249.1368331795099L397.7433331807455,249.1368331795099L413.65306650797527,249.1368331795099L429.5627998352051,249.1368331795099L445.4725331624349,249.1368331795099L461.38226648966474,249.1368331795099L477.29199981689453,249.1368331795099L493.2017331441244,249.1368331795099L509.11146647135416,249.1368331795099L525.021199798584,249.1368331795099L540.9309331258138,249.1368331795099L556.8406664530437,249.1368331795099L572.7503997802734,249.1368331795099L588.6601331075033,249.1368331795099L604.5698664347331,249.1368331795099L620.479599761963,249.1368331795099L636.3893330891926,249.1368331795099L652.2990664164225,249.1368331795099L668.2087997436523,249.1368331795099L684.1185330708822,249.1368331795099L700.0282663981119,249.1368331795099L715.9379997253418,249.1368331795099L731.8477330525717,249.1368331795099L747.7574663798014,249.1368331795099L763.6671997070313,249.1368331795099L779.5769330342611,249.1368331795099L795.486666361491,249.1368331795099L811.3963996887206,249.1368331795099L827.3061330159505,249.1368331795099L843.2158663431803,249.1368331795099L859.1255996704102,249.1368331795099" fill="none"></path></g><g><path style="fill: none;" stroke="rgb(255, 112, 67)" stroke-width="2px" d="M79.54866663614908,656.3449845866352L95.45839996337891,277.77915040520446L111.36813329060872,157.34241923922644L127.27786661783854,124.23989952907868L143.18759994506834,93.95471539785967L159.09733327229816,84.09432247375268L175.00706659952797,88.67242238897597L190.91679992675782,91.48957023314233L206.82653325398763,87.2638484668928L222.73626658121745,80.92498421537493L238.64599990844727,83.39012938009228L254.55573323567708,82.6857485516695L270.4654665629069,91.48957023314233L286.3751998901367,78.46002678541997L302.28493321736653,94.30690581207107L318.1946665445963,83.39012938009228L334.10439987182616,82.6857485516695L350.01413319905595,84.44651288796409L365.92386652628585,80.92498421537493L381.83359985351564,84.44651288796409L397.7433331807455,90.43318672527055L413.65306650797527,84.44651288796409L429.5627998352051,81.27717462958633L445.4725331624349,78.46002678541997L461.38226648966474,78.10783637120858L477.29199981689453,81.9815554580091L493.2017331441244,91.48957023314233L509.11146647135416,80.22079112171456L525.021199798584,81.9815554580091L540.9309331258138,81.9815554580091L556.8406664530437,83.74231979430367L572.7503997802734,79.51641029329176L588.6601331075033,86.20727722425863L604.5698664347331,81.62936504379773L620.479599761963,85.50308413059825L636.3893330891926,81.27717462958633L652.2990664164225,81.9815554580091L668.2087997436523,85.50308413059825L684.1185330708822,83.39012938009228L700.0282663981119,84.79870330217545L715.9379997253418,83.03793896588091L731.8477330525717,80.57279380116357L747.7574663798014,81.27717462958633L763.6671997070313,83.74231979430367L779.5769330342611,84.09432247375268L795.486666361491,85.50308413059825L811.3963996887206,86.91165805268143L827.3061330159505,87.9680415605532L843.2158663431803,84.09432247375268L859.1255996704102,79.86860070750315" fill="none"></path></g><g><path style="fill: none;" stroke="rgb(204, 51, 17)" stroke-width="2px" d="M79.54866663614908,649.3017395066945L95.45839996337891,270.0317122316034L111.36813329060872,149.2429783861764L127.27786661783854,111.21035608135632L143.18759994506834,91.13756755369332L159.09733327229816,73.1775460417739L175.00706659952797,84.09432247375268L190.91679992675782,80.57279380116357L206.82653325398763,73.1775460417739L222.73626658121745,79.86860070750315L238.64599990844727,74.58630769861945L254.55573323567708,74.93831037806846L270.4654665629069,79.86860070750315L286.3751998901367,79.86860070750315L302.28493321736653,75.29050079227987L318.1946665445963,67.19105993922982L334.10439987182616,79.16421987908039L350.01413319905595,75.99488162070263L365.92386652628585,79.51641029329176L381.83359985351564,72.82554336232488L397.7433331807455,79.16421987908039L413.65306650797527,78.10783637120858L429.5627998352051,74.23411728440806L445.4725331624349,75.29050079227987L461.38226648966474,77.05126512857441L477.29199981689453,84.44651288796409L493.2017331441244,80.57279380116357L509.11146647135416,75.29050079227987L525.021199798584,76.6992624491254L540.9309331258138,78.46002678541997L556.8406664530437,78.81202946486898L572.7503997802734,77.05126512857441L588.6601331075033,78.46002678541997L604.5698664347331,73.52973645598529L620.479599761963,81.62936504379773L636.3893330891926,83.03793896588091L652.2990664164225,72.12116253390211L668.2087997436523,76.34707203491404L684.1185330708822,74.23411728440806L700.0282663981119,65.07810518872384L715.9379997253418,79.86860070750315L731.8477330525717,81.62936504379773L747.7574663798014,75.29050079227987L763.6671997070313,78.46002678541997L779.5769330342611,81.27717462958633L795.486666361491,81.27717462958633L811.3963996887206,80.57279380116357L827.3061330159505,74.93831037806846L843.2158663431803,75.29050079227987L859.1255996704102,80.92498421537493" fill="none"></path></g><g><path style="fill: none;" stroke="rgb(238, 51, 119)" stroke-width="2px" d="M79.54866663614908,646.4845916625281L95.45839996337891,278.13134081941587L111.36813329060872,158.0468000676492L127.27786661783854,113.32312309709992L143.18759994506834,87.2638484668928L159.09733327229816,73.1775460417739L175.00706659952797,79.16421987908039L190.91679992675782,79.86860070750315L206.82653325398763,71.41678170547935L222.73626658121745,75.29050079227987L238.64599990844727,73.1775460417739L254.55573323567708,79.86860070750315L270.4654665629069,77.05126512857441L286.3751998901367,73.1775460417739L302.28493321736653,72.82554336232488L318.1946665445963,70.36039819760754L334.10439987182616,72.12116253390211L350.01413319905595,73.52973645598529L365.92386652628585,77.4034555427858L381.83359985351564,71.06477902603034L397.7433331807455,75.99488162070263L413.65306650797527,74.23411728440806L429.5627998352051,77.75564595699721L445.4725331624349,78.81202946486898L461.38226648966474,77.05126512857441L477.29199981689453,77.4034555427858L493.2017331441244,74.58630769861945L509.11146647135416,78.46002678541997L525.021199798584,77.75564595699721L540.9309331258138,79.51641029329176L556.8406664530437,79.16421987908039L572.7503997802734,72.82554336232488L588.6601331075033,78.46002678541997L604.5698664347331,81.62936504379773L620.479599761963,76.6992624491254L636.3893330891926,81.62936504379773L652.2990664164225,74.93831037806846L668.2087997436523,75.29050079227987L684.1185330708822,73.52973645598529L700.0282663981119,71.06477902603034L715.9379997253418,78.46002678541997L731.8477330525717,77.4034555427858L747.7574663798014,67.54325035344118L763.6671997070313,82.6857485516695L779.5769330342611,73.8819268701967L795.486666361491,78.46002678541997L811.3963996887206,73.1775460417739L827.3061330159505,72.82554336232488L843.2158663431803,83.03793896588091L859.1255996704102,77.75564595699721" fill="none"></path></g></g></g></g></g></g><g transform="translate(51, 377)" clip-path="url(#clip_1)"><clipPath id="clip_1"><rect width="954" height="22"></rect></clipPath><g><g><line x1="0" y1="0" x2="0" y2="5" style="visibility: inherit;" fill="rgb(0, 0, 0)" stroke="rgb(204, 204, 204)" stroke-width="1px"></line><line x1="79.54866663614908" y1="0" x2="79.54866663614908" y2="5" style="visibility: inherit;" fill="rgb(0, 0, 0)" stroke="rgb(204, 204, 204)" stroke-width="1px"></line><line x1="159.09733327229816" y1="0" x2="159.09733327229816" y2="5" style="visibility: inherit;" fill="rgb(0, 0, 0)" stroke="rgb(204, 204, 204)" stroke-width="1px"></line><line x1="238.64599990844727" y1="0" x2="238.64599990844727" y2="5" style="visibility: inherit;" fill="rgb(0, 0, 0)" stroke="rgb(204, 204, 204)" stroke-width="1px"></line><line x1="318.1946665445963" y1="0" x2="318.1946665445963" y2="5" style="visibility: inherit;" fill="rgb(0, 0, 0)" stroke="rgb(204, 204, 204)" stroke-width="1px"></line><line x1="397.7433331807455" y1="0" x2="397.7433331807455" y2="5" style="visibility: inherit;" fill="rgb(0, 0, 0)" stroke="rgb(204, 204, 204)" stroke-width="1px"></line><line x1="477.29199981689453" y1="0" x2="477.29199981689453" y2="5" style="visibility: inherit;" fill="rgb(0, 0, 0)" stroke="rgb(204, 204, 204)" stroke-width="1px"></line><line x1="556.8406664530437" y1="0" x2="556.8406664530437" y2="5" style="visibility: inherit;" fill="rgb(0, 0, 0)" stroke="rgb(204, 204, 204)" stroke-width="1px"></line><line x1="636.3893330891926" y1="0" x2="636.3893330891926" y2="5" style="visibility: inherit;" fill="rgb(0, 0, 0)" stroke="rgb(204, 204, 204)" stroke-width="1px"></line><line x1="715.9379997253418" y1="0" x2="715.9379997253418" y2="5" style="visibility: inherit;" fill="rgb(0, 0, 0)" stroke="rgb(204, 204, 204)" stroke-width="1px"></line><line x1="795.486666361491" y1="0" x2="795.486666361491" y2="5" style="visibility: inherit;" fill="rgb(0, 0, 0)" stroke="rgb(204, 204, 204)" stroke-width="1px"></line><line x1="875.0353329976399" y1="0" x2="875.0353329976399" y2="5" style="visibility: inherit;" fill="rgb(0, 0, 0)" stroke="rgb(204, 204, 204)" stroke-width="1px"></line><line x1="954.5839996337891" y1="0" x2="954.5839996337891" y2="5" style="visibility: inherit;" fill="rgb(0, 0, 0)" stroke="rgb(204, 204, 204)" stroke-width="1px"></line></g><g transform="translate(0, 8)"><text style="text-anchor: middle; visibility: hidden; font-family: Roboto, sans-serif; font-size: 12px; font-weight: 200;" x="0" y="0" dx="0em" dy="0.95em" fill="rgb(50, 49, 63)" stroke="none" stroke-width="1px">-5</text><text style="text-anchor: middle; visibility: inherit; font-family: Roboto, sans-serif; font-size: 12px; font-weight: 200;" x="79.54866663614908" y="0" dx="0em" dy="0.95em" fill="rgb(50, 49, 63)" stroke="none" stroke-width="1px">0</text><text style="text-anchor: middle; visibility: inherit; font-family: Roboto, sans-serif; font-size: 12px; font-weight: 200;" x="159.09733327229816" y="0" dx="0em" dy="0.95em" fill="rgb(50, 49, 63)" stroke="none" stroke-width="1px">5</text><text style="text-anchor: middle; visibility: inherit; font-family: Roboto, sans-serif; font-size: 12px; font-weight: 200;" x="238.64599990844727" y="0" dx="0em" dy="0.95em" fill="rgb(50, 49, 63)" stroke="none" stroke-width="1px">10</text><text style="text-anchor: middle; visibility: inherit; font-family: Roboto, sans-serif; font-size: 12px; font-weight: 200;" x="318.1946665445963" y="0" dx="0em" dy="0.95em" fill="rgb(50, 49, 63)" stroke="none" stroke-width="1px">15</text><text style="text-anchor: middle; visibility: inherit; font-family: Roboto, sans-serif; font-size: 12px; font-weight: 200;" x="397.7433331807455" y="0" dx="0em" dy="0.95em" fill="rgb(50, 49, 63)" stroke="none" stroke-width="1px">20</text><text style="text-anchor: middle; visibility: inherit; font-family: Roboto, sans-serif; font-size: 12px; font-weight: 200;" x="477.29199981689453" y="0" dx="0em" dy="0.95em" fill="rgb(50, 49, 63)" stroke="none" stroke-width="1px">25</text><text style="text-anchor: middle; visibility: inherit; font-family: Roboto, sans-serif; font-size: 12px; font-weight: 200;" x="556.8406664530437" y="0" dx="0em" dy="0.95em" fill="rgb(50, 49, 63)" stroke="none" stroke-width="1px">30</text><text style="text-anchor: middle; visibility: inherit; font-family: Roboto, sans-serif; font-size: 12px; font-weight: 200;" x="636.3893330891926" y="0" dx="0em" dy="0.95em" fill="rgb(50, 49, 63)" stroke="none" stroke-width="1px">35</text><text style="text-anchor: middle; visibility: inherit; font-family: Roboto, sans-serif; font-size: 12px; font-weight: 200;" x="715.9379997253418" y="0" dx="0em" dy="0.95em" fill="rgb(50, 49, 63)" stroke="none" stroke-width="1px">40</text><text style="text-anchor: middle; visibility: inherit; font-family: Roboto, sans-serif; font-size: 12px; font-weight: 200;" x="795.486666361491" y="0" dx="0em" dy="0.95em" fill="rgb(50, 49, 63)" stroke="none" stroke-width="1px">45</text><text style="text-anchor: middle; visibility: inherit; font-family: Roboto, sans-serif; font-size: 12px; font-weight: 200;" x="875.0353329976399" y="0" dx="0em" dy="0.95em" fill="rgb(50, 49, 63)" stroke="none" stroke-width="1px">50</text><text style="text-anchor: middle; visibility: hidden; font-family: Roboto, sans-serif; font-size: 12px; font-weight: 200;" x="954.5839996337891" y="0" dx="0em" dy="0.95em" fill="rgb(50, 49, 63)" stroke="none" stroke-width="1px">55</text></g><line x1="0" y1="0" x2="954.5839996337891" y2="0" fill="rgb(0, 0, 0)" stroke="rgb(204, 204, 204)" stroke-width="1px"></line></g></g></g></g></svg>