<svg viewBox="0 0 1006 400" xmlns="http://www.w3.org/2000/svg"><g><g><g><g><g><line x1="51.41600036621094" y1="377.95999908447266" x2="46.41600036621094" y2="377.95999908447266" style="visibility: inherit;" fill="rgb(0, 0, 0)" stroke="rgb(204, 204, 204)" stroke-width="1px"></line><line x1="51.41600036621094" y1="323.96571350097656" x2="46.41600036621094" y2="323.96571350097656" style="visibility: inherit;" fill="rgb(0, 0, 0)" stroke="rgb(204, 204, 204)" stroke-width="1px"></line><line x1="51.41600036621094" y1="269.97142791748047" x2="46.41600036621094" y2="269.97142791748047" style="visibility: inherit;" fill="rgb(0, 0, 0)" stroke="rgb(204, 204, 204)" stroke-width="1px"></line><line x1="51.41600036621094" y1="215.97714233398438" x2="46.41600036621094" y2="215.97714233398438" style="visibility: inherit;" fill="rgb(0, 0, 0)" stroke="rgb(204, 204, 204)" stroke-width="1px"></line><line x1="51.41600036621094" y1="161.98285675048828" x2="46.41600036621094" y2="161.98285675048828" style="visibility: inherit;" fill="rgb(0, 0, 0)" stroke="rgb(204, 204, 204)" stroke-width="1px"></line><line x1="51.41600036621094" y1="107.98857116699219" x2="46.41600036621094" y2="107.98857116699219" style="visibility: inherit;" fill="rgb(0, 0, 0)" stroke="rgb(204, 204, 204)" stroke-width="1px"></line><line x1="51.41600036621094" y1="53.994285583496115" x2="46.41600036621094" y2="53.994285583496115" style="visibility: inherit;" fill="rgb(0, 0, 0)" stroke="rgb(204, 204, 204)" stroke-width="1px"></line><line x1="51.41600036621094" y1="0" x2="46.41600036621094" y2="0" style="visibility: inherit;" fill="rgb(0, 0, 0)" stroke="rgb(204, 204, 204)" stroke-width="1px"></line></g><g transform="translate(41.41600036621094, 0)"><text style="text-anchor: end; visibility: hidden; font-family: Roboto, sans-serif; font-size: 12px; font-weight: 200;" x="0" y="377.95999908447266" dx="0em" dy="0.3em" fill="rgb(50, 49, 63)" stroke="none" stroke-width="1px">-0.5</text><text style="text-anchor: end; visibility: inherit; font-family: Roboto, sans-serif; font-size: 12px; font-weight: 200;" x="0" y="323.96571350097656" dx="0em" dy="0.3em" fill="rgb(50, 49, 63)" stroke="none" stroke-width="1px">0</text><text style="text-anchor: end; visibility: inherit; font-family: Roboto, sans-serif; font-size: 12px; font-weight: 200;" x="0" y="269.97142791748047" dx="0em" dy="0.3em" fill="rgb(50, 49, 63)" stroke="none" stroke-width="1px">0.5</text><text style="text-anchor: end; visibility: inherit; font-family: Roboto, sans-serif; font-size: 12px; font-weight: 200;" x="0" y="215.97714233398438" dx="0em" dy="0.3em" fill="rgb(50, 49, 63)" stroke="none" stroke-width="1px">1</text><text style="text-anchor: end; visibility: inherit; font-family: Roboto, sans-serif; font-size: 12px; font-weight: 200;" x="0" y="161.98285675048828" dx="0em" dy="0.3em" fill="rgb(50, 49, 63)" stroke="none" stroke-width="1px">1.5</text><text style="text-anchor: end; visibility: inherit; font-family: Roboto, sans-serif; font-size: 12px; font-weight: 200;" x="0" y="107.98857116699219" dx="0em" dy="0.3em" fill="rgb(50, 49, 63)" stroke="none" stroke-width="1px">2</text><text style="text-anchor: end; visibility: inherit; font-family: Roboto, sans-serif; font-size: 12px; font-weight: 200;" x="0" y="53.994285583496115" dx="0em" dy="0.3em" fill="rgb(50, 49, 63)" stroke="none" stroke-width="1px">2.5</text><text style="text-anchor: end; visibility: hidden; font-family: Roboto, sans-serif; font-size: 12px; font-weight: 200;" x="0" y="0" dx="0em" dy="0.3em" fill="rgb(50, 49, 63)" stroke="none" stroke-width="1px">3</text></g><line x1="51.41600036621094" y1="0" x2="51.41600036621094" y2="377.95999908447266" fill="rgb(0, 0, 0)" stroke="rgb(204, 204, 204)" stroke-width="1px"></line></g></g><g transform="translate(51, 0)" clip-path="url(#clip_0)"><clipPath id="clip_0"><rect width="954" height="377"></rect></clipPath><g><g><g><line x1="0" y1="0" x2="0" y2="377.95999908447266" fill="rgb(0, 0, 0)" stroke="rgb(60, 60, 60)" stroke-width="1px" opacity="0.25"></line><line x1="79.54866663614908" y1="0" x2="79.54866663614908" y2="377.95999908447266" fill="rgb(0, 0, 0)" stroke="rgb(60, 60, 60)" stroke-width="1px" opacity="0.25"></line><line x1="159.09733327229816" y1="0" x2="159.09733327229816" y2="377.95999908447266" fill="rgb(0, 0, 0)" stroke="rgb(60, 60, 60)" stroke-width="1px" opacity="0.25"></line><line x1="238.64599990844727" y1="0" x2="238.64599990844727" y2="377.95999908447266" fill="rgb(0, 0, 0)" stroke="rgb(60, 60, 60)" stroke-width="1px" opacity="0.25"></line><line x1="318.1946665445963" y1="0" x2="318.1946665445963" y2="377.95999908447266" fill="rgb(0, 0, 0)" stroke="rgb(60, 60, 60)" stroke-width="1px" opacity="0.25"></line><line x1="397.7433331807455" y1="0" x2="397.7433331807455" y2="377.95999908447266" fill="rgb(0, 0, 0)" stroke="rgb(60, 60, 60)" stroke-width="1px" opacity="0.25"></line><line x1="477.29199981689453" y1="0" x2="477.29199981689453" y2="377.95999908447266" fill="rgb(0, 0, 0)" stroke="rgb(60, 60, 60)" stroke-width="1px" opacity="0.25"></line><line x1="556.8406664530437" y1="0" x2="556.8406664530437" y2="377.95999908447266" fill="rgb(0, 0, 0)" stroke="rgb(60, 60, 60)" stroke-width="1px" opacity="0.25"></line><line x1="636.3893330891926" y1="0" x2="636.3893330891926" y2="377.95999908447266" fill="rgb(0, 0, 0)" stroke="rgb(60, 60, 60)" stroke-width="1px" opacity="0.25"></line><line x1="715.9379997253418" y1="0" x2="715.9379997253418" y2="377.95999908447266" fill="rgb(0, 0, 0)" stroke="rgb(60, 60, 60)" stroke-width="1px" opacity="0.25"></line><line x1="795.486666361491" y1="0" x2="795.486666361491" y2="377.95999908447266" fill="rgb(0, 0, 0)" stroke="rgb(60, 60, 60)" stroke-width="1px" opacity="0.25"></line><line x1="875.0353329976399" y1="0" x2="875.0353329976399" y2="377.95999908447266" fill="rgb(0, 0, 0)" stroke="rgb(60, 60, 60)" stroke-width="1px" opacity="0.25"></line><line x1="954.5839996337891" y1="0" x2="954.5839996337891" y2="377.95999908447266" fill="rgb(0, 0, 0)" stroke="rgb(60, 60, 60)" stroke-width="1px" opacity="0.25"></line></g><g><line x1="0" y1="377.95999908447266" x2="954.5839996337891" y2="377.95999908447266" fill="rgb(0, 0, 0)" stroke="rgb(60, 60, 60)" stroke-width="1px" opacity="0.25"></line><line x1="0" y1="323.96571350097656" x2="954.5839996337891" y2="323.96571350097656" fill="rgb(0, 0, 0)" stroke="rgb(60, 60, 60)" stroke-width="1px" opacity="0.25"></line><line x1="0" y1="269.97142791748047" x2="954.5839996337891" y2="269.97142791748047" fill="rgb(0, 0, 0)" stroke="rgb(60, 60, 60)" stroke-width="1px" opacity="0.25"></line><line x1="0" y1="215.97714233398438" x2="954.5839996337891" y2="215.97714233398438" fill="rgb(0, 0, 0)" stroke="rgb(60, 60, 60)" stroke-width="1px" opacity="0.25"></line><line x1="0" y1="161.98285675048828" x2="954.5839996337891" y2="161.98285675048828" fill="rgb(0, 0, 0)" stroke="rgb(60, 60, 60)" stroke-width="1px" opacity="0.25"></line><line x1="0" y1="107.98857116699219" x2="954.5839996337891" y2="107.98857116699219" fill="rgb(0, 0, 0)" stroke="rgb(60, 60, 60)" stroke-width="1px" opacity="0.25"></line><line x1="0" y1="53.994285583496115" x2="954.5839996337891" y2="53.994285583496115" fill="rgb(0, 0, 0)" stroke="rgb(60, 60, 60)" stroke-width="1px" opacity="0.25"></line><line x1="0" y1="0" x2="954.5839996337891" y2="0" fill="rgb(0, 0, 0)" stroke="rgb(60, 60, 60)" stroke-width="1px" opacity="0.25"></line></g></g></g><g><g><line x1="0" y1="323.96571350097656" x2="954.5839996337891" y2="323.96571350097656" fill="rgb(0, 0, 0)" stroke="rgb(153, 153, 153)" stroke-width="1.5px"></line></g></g><g><g><line x1="79.54866663614908" y1="0" x2="79.54866663614908" y2="377.95999908447266" fill="rgb(0, 0, 0)" stroke="rgb(153, 153, 153)" stroke-width="1.5px"></line></g></g><g><g><g><g><g><path style="fill: none;" stroke="rgb(51, 187, 238)" stroke-width="2px" d="M79.54866663614908,-124.10792842775122L95.45839996337891,36.337039478021325L111.36813329060872,130.84842170218874L127.27786661783854,137.67614405661516L143.18759994506834,143.45749077515939L159.09733327229816,143.71996328281784L175.00706659952797,144.40176873787274L190.91679992675782,144.66337873839439L206.82653325398763,144.93903344468163L222.73626658121745,144.9287348520029L238.64599990844727,144.93934240246202L254.55573323567708,144.94507099463954L270.4654665629069,144.95213840386535L286.3751998901367,144.95403077027007L302.28493321736653,144.9548160379618L318.1946665445963,144.95489327740688L334.10439987182616,144.95493189712946L350.01413319905595,144.95495764361112L365.92386652628585,144.95495764361112L381.83359985351564,144.95495764361112L397.7433331807455,144.95495764361112L413.65306650797527,144.95495764361112L429.5627998352051,144.95495764361112L445.4725331624349,144.95495764361112L461.38226648966474,144.95495764361112L477.29199981689453,144.95495764361112L493.2017331441244,144.95495764361112L509.11146647135416,144.95495764361112L525.021199798584,144.95495764361112L540.9309331258138,144.95495764361112L556.8406664530437,144.95495764361112L572.7503997802734,144.95495764361112L588.6601331075033,144.95495764361112L604.5698664347331,144.95495764361112L620.479599761963,144.95495764361112L636.3893330891926,144.95495764361112L652.2990664164225,144.95495764361112L668.2087997436523,144.95495764361112L684.1185330708822,144.95495764361112L700.0282663981119,144.95495764361112L715.9379997253418,144.95495764361112L731.8477330525717,144.95495764361112L747.7574663798014,144.95495764361112L763.6671997070313,144.95495764361112L779.5769330342611,144.95495764361112L795.486666361491,144.95495764361112L811.3963996887206,144.95495764361112L827.3061330159505,144.95495764361112L843.2158663431803,144.95495764361112L859.1255996704102,144.95495764361112" fill="none"></path></g><g><path style="fill: none;" stroke="rgb(0, 119, 187)" stroke-width="2px" d="M79.54866663614908,-168.01031408757262L95.45839996337891,47.247497294283654L111.36813329060872,125.80296092350362L127.27786661783854,143.80062700997402L143.18759994506834,145.38368805682697L159.09733327229816,150.31726749929842L175.00706659952797,149.83588553101256L190.91679992675782,150.11598150539248L206.82653325398763,150.23932002596123L222.73626658121745,150.30646685022657L238.64599990844727,150.3220305984123L254.55573323567708,150.32712840178826L270.4654665629069,150.33338479684062L286.3751998901367,150.33581783936097L302.28493321736653,150.33583071260185L318.1946665445963,150.33602381121455L334.10439987182616,150.33601093797373L350.01413319905595,150.33599806473285L365.92386652628585,150.33602381121455L381.83359985351564,150.33601093797373L397.7433331807455,150.33601093797373L413.65306650797527,150.33601093797373L429.5627998352051,150.33601093797373L445.4725331624349,150.33601093797373L461.38226648966474,150.33601093797373L477.29199981689453,150.33601093797373L493.2017331441244,150.33601093797373L509.11146647135416,150.33601093797373L525.021199798584,150.33601093797373L540.9309331258138,150.33601093797373L556.8406664530437,150.33601093797373L572.7503997802734,150.33601093797373L588.6601331075033,150.33601093797373L604.5698664347331,150.33601093797373L620.479599761963,150.33601093797373L636.3893330891926,150.33601093797373L652.2990664164225,150.33601093797373L668.2087997436523,150.33601093797373L684.1185330708822,150.33601093797373L700.0282663981119,150.33601093797373L715.9379997253418,150.33601093797373L731.8477330525717,150.33601093797373L747.7574663798014,150.33601093797373L763.6671997070313,150.33601093797373L779.5769330342611,150.33601093797373L795.486666361491,150.33601093797373L811.3963996887206,150.33601093797373L827.3061330159505,150.33601093797373L843.2158663431803,150.33601093797373L859.1255996704102,150.33601093797373" fill="none"></path></g><g><path style="fill: none;" stroke="rgb(0, 153, 136)" stroke-width="2px" d="M79.54866663614908,-252.18179340312054L95.45839996337891,36.4268432061799L111.36813329060872,98.56396855593628L127.27786661783854,126.97718071425153L143.18759994506834,132.1126383197079L159.09733327229816,135.12500242472015L175.00706659952797,136.29899049713276L190.91679992675782,136.5119782669699L206.82653325398763,136.651846028788L222.73626658121745,136.66722955160185L238.64599990844727,136.6519490147148L254.55573323567708,136.6633418328656L270.4654665629069,136.67183817182558L286.3751998901367,136.67473465101648L302.28493321736653,136.67519808768705L318.1946665445963,136.67551991870823L334.10439987182616,136.67553279194908L350.01413319905595,136.67554566518993L365.92386652628585,136.6755585384308L381.83359985351564,136.67557141167163L397.7433331807455,136.67558428491247L413.65306650797527,136.67558428491247L429.5627998352051,136.67558428491247L445.4725331624349,136.67558428491247L461.38226648966474,136.67558428491247L477.29199981689453,136.67558428491247L493.2017331441244,136.67558428491247L509.11146647135416,136.67558428491247L525.021199798584,136.67558428491247L540.9309331258138,136.67558428491247L556.8406664530437,136.67558428491247L572.7503997802734,136.67558428491247L588.6601331075033,136.67558428491247L604.5698664347331,136.67558428491247L620.479599761963,136.67558428491247L636.3893330891926,136.67558428491247L652.2990664164225,136.67558428491247L668.2087997436523,136.67558428491247L684.1185330708822,136.67558428491247L700.0282663981119,136.67558428491247L715.9379997253418,136.67558428491247L731.8477330525717,136.67558428491247L747.7574663798014,136.67558428491247L763.6671997070313,136.67558428491247L779.5769330342611,136.67558428491247L795.486666361491,136.67558428491247L811.3963996887206,136.67558428491247L827.3061330159505,136.67558428491247L843.2158663431803,136.67558428491247L859.1255996704102,136.67558428491247" fill="none"></path></g><g><path style="fill: none;" stroke="rgb(204, 51, 17)" stroke-width="2px" d="M79.54866663614908,-203.59668914524084L95.45839996337891,169.130479139998L111.36813329060872,258.5782750623657L127.27786661783854,288.0934334189956L143.18759994506834,297.5186024526488L159.09733327229816,299.5414037519531L175.00706659952797,302.30798550606687L190.91679992675782,304.07005057607216L206.82653325398763,303.6014227711569L222.73626658121745,301.5149649050122L238.64599990844727,305.9304639878492L254.55573323567708,303.1014277057593L270.4654665629069,306.44064661422317L286.3751998901367,303.71751848459326L302.28493321736653,305.02621054008864L318.1946665445963,304.0086130341231L334.10439987182616,303.85953929594325L350.01413319905595,303.00756890673347L365.92386652628585,302.66370050634555L381.83359985351564,304.6810612522363L397.7433331807455,304.22483198741315L413.65306650797527,303.4371344714493L429.5627998352051,302.19520787045917L445.4725331624349,304.1979623154523L461.38226648966474,301.80455006705256L477.29199981689453,304.2621145020653L493.2017331441244,303.6304648025109L509.11146647135416,305.51659251288265L525.021199798584,302.78160491012113L540.9309331258138,304.10410673473666L556.8406664530437,305.41896668175355L572.7503997802734,300.13250596114517L588.6601331075033,302.8271874468103L604.5698664347331,304.31208520472865L620.479599761963,302.45552893774084L636.3893330891926,302.63815195072675L652.2990664164225,302.53643081985274L668.2087997436523,303.41284266596836L684.1185330708822,302.0678448529702L700.0282663981119,303.00666456156387L715.9379997253418,304.2272441109171L731.8477330525717,303.5193896530054L747.7574663798014,305.6172821753337L763.6671997070313,302.56482597085414L779.5769330342611,302.27051954773265L795.486666361491,304.3975780063581L811.3963996887206,303.46614110139103L827.3061330159505,303.16622999103515L843.2158663431803,301.3569828841653L859.1255996704102,304.1761679186959" fill="none"></path></g><g><path style="fill: none;" stroke="rgb(255, 112, 67)" stroke-width="2px" d="M79.54866663614908,-195.056684152325L95.45839996337891,159.80165344085435L111.36813329060872,257.6730995687294L127.27786661783854,291.27515788060964L143.18759994506834,299.7157186971265L159.09733327229816,301.29956983913644L175.00706659952797,304.60891639221154L190.91679992675782,304.4943268479544L206.82653325398763,305.68418440802293L222.73626658121745,304.0506860035259L238.64599990844727,304.26625003068784L254.55573323567708,304.40789751805323L270.4654665629069,304.64010986394237L286.3751998901367,304.3492148496457L302.28493321736653,303.5034397075942L318.1946665445963,302.48464659938486L334.10439987182616,305.0153793170698L350.01413319905595,303.5930873477075L365.92386652628585,305.2019849889432L381.83359985351564,301.0586921930012L397.7433331807455,303.63275784853704L413.65306650797527,303.90561745240507L429.5627998352051,304.55495176657496L445.4725331624349,305.21621957501134L461.38226648966474,303.72081403425045L477.29199981689453,306.80559011903506L493.2017331441244,303.07886413286224L509.11146647135416,305.21710461031967L525.021199798584,304.3870782692911L540.9309331258138,300.86441406958215L556.8406664530437,303.83431257134566L572.7503997802734,302.4876879025353L588.6601331075033,305.2706074084408L604.5698664347331,303.68545285079495L620.479599761963,304.92723462782556L636.3893330891926,303.0744180373042L652.2990664164225,303.4534175119675L668.2087997436523,304.62545850670176L684.1185330708822,304.41144087759676L700.0282663981119,305.23599770041983L715.9379997253418,304.4093715041304L731.8477330525717,303.0035138358662L747.7574663798014,300.0487655294262L763.6671997070313,303.8542162108524L779.5769330342611,303.7774595122937L795.486666361491,304.2666362279133L811.3963996887206,304.81695761925266L827.3061330159505,303.80671395212175L843.2158663431803,302.13141935290014L859.1255996704102,306.2644698765921" fill="none"></path></g><g><path style="fill: none;" stroke="rgb(238, 51, 119)" stroke-width="2px" d="M79.54866663614908,-210.26049652394428L95.45839996337891,156.1204601075624L111.36813329060872,262.65768922806274L127.27786661783854,287.60887497853037L143.18759994506834,298.821981077984L159.09733327229816,300.3191164604839L175.00706659952797,304.5295802180178L190.91679992675782,303.29754187515437L206.82653325398763,300.76306787184785L222.73626658121745,304.171647802003L238.64599990844727,301.26004416226647L254.55573323567708,304.4039325598719L270.4654665629069,300.8923683120845L286.3751998901367,302.4700145520055L302.28493321736653,303.1349737622552L318.1946665445963,303.4076499224411L334.10439987182616,300.3960099372266L350.01413319905595,301.4224449230346L365.92386652628585,303.6925942811556L381.83359985351564,301.13607324374107L397.7433331807455,304.0123993760876L413.65306650797527,304.22119368771837L429.5627998352051,302.44321890117953L445.4725331624349,302.1655447052342L461.38226648966474,303.3826838809707L477.29199981689453,302.129914792876L493.2017331441244,302.4965366464635L509.11146647135416,301.64986520501793L525.021199798584,300.92332201970453L540.9309331258138,303.2563121030271L556.8406664530437,302.34621581307647L572.7503997802734,300.9766751664008L588.6601331075033,302.5087919717512L604.5698664347331,303.2184358101408L620.479599761963,303.24561926734737L636.3893330891926,301.5080938127094L652.2990664164225,303.45888381186273L668.2087997436523,302.5994501612711L684.1185330708822,303.5541876321738L700.0282663981119,302.73750601443976L715.9379997253418,300.76695398142897L731.8477330525717,302.4469296128541L747.7574663798014,303.9318450714786L763.6671997070313,301.4858472433682L779.5769330342611,302.90303014526876L795.486666361491,301.3752435763088L811.3963996887206,302.0452667976772L827.3061330159505,302.3862886026825L843.2158663431803,304.3879488222035L859.1255996704102,303.99066129975995" fill="none"></path></g></g></g></g></g></g><g transform="translate(51, 377)" clip-path="url(#clip_1)"><clipPath id="clip_1"><rect width="954" height="22"></rect></clipPath><g><g><line x1="0" y1="0" x2="0" y2="5" style="visibility: inherit;" fill="rgb(0, 0, 0)" stroke="rgb(204, 204, 204)" stroke-width="1px"></line><line x1="79.54866663614908" y1="0" x2="79.54866663614908" y2="5" style="visibility: inherit;" fill="rgb(0, 0, 0)" stroke="rgb(204, 204, 204)" stroke-width="1px"></line><line x1="159.09733327229816" y1="0" x2="159.09733327229816" y2="5" style="visibility: inherit;" fill="rgb(0, 0, 0)" stroke="rgb(204, 204, 204)" stroke-width="1px"></line><line x1="238.64599990844727" y1="0" x2="238.64599990844727" y2="5" style="visibility: inherit;" fill="rgb(0, 0, 0)" stroke="rgb(204, 204, 204)" stroke-width="1px"></line><line x1="318.1946665445963" y1="0" x2="318.1946665445963" y2="5" style="visibility: inherit;" fill="rgb(0, 0, 0)" stroke="rgb(204, 204, 204)" stroke-width="1px"></line><line x1="397.7433331807455" y1="0" x2="397.7433331807455" y2="5" style="visibility: inherit;" fill="rgb(0, 0, 0)" stroke="rgb(204, 204, 204)" stroke-width="1px"></line><line x1="477.29199981689453" y1="0" x2="477.29199981689453" y2="5" style="visibility: inherit;" fill="rgb(0, 0, 0)" stroke="rgb(204, 204, 204)" stroke-width="1px"></line><line x1="556.8406664530437" y1="0" x2="556.8406664530437" y2="5" style="visibility: inherit;" fill="rgb(0, 0, 0)" stroke="rgb(204, 204, 204)" stroke-width="1px"></line><line x1="636.3893330891926" y1="0" x2="636.3893330891926" y2="5" style="visibility: inherit;" fill="rgb(0, 0, 0)" stroke="rgb(204, 204, 204)" stroke-width="1px"></line><line x1="715.9379997253418" y1="0" x2="715.9379997253418" y2="5" style="visibility: inherit;" fill="rgb(0, 0, 0)" stroke="rgb(204, 204, 204)" stroke-width="1px"></line><line x1="795.486666361491" y1="0" x2="795.486666361491" y2="5" style="visibility: inherit;" fill="rgb(0, 0, 0)" stroke="rgb(204, 204, 204)" stroke-width="1px"></line><line x1="875.0353329976399" y1="0" x2="875.0353329976399" y2="5" style="visibility: inherit;" fill="rgb(0, 0, 0)" stroke="rgb(204, 204, 204)" stroke-width="1px"></line><line x1="954.5839996337891" y1="0" x2="954.5839996337891" y2="5" style="visibility: inherit;" fill="rgb(0, 0, 0)" stroke="rgb(204, 204, 204)" stroke-width="1px"></line></g><g transform="translate(0, 8)"><text style="text-anchor: middle; visibility: hidden; font-family: Roboto, sans-serif; font-size: 12px; font-weight: 200;" x="0" y="0" dx="0em" dy="0.95em" fill="rgb(50, 49, 63)" stroke="none" stroke-width="1px">-5</text><text style="text-anchor: middle; visibility: inherit; font-family: Roboto, sans-serif; font-size: 12px; font-weight: 200;" x="79.54866663614908" y="0" dx="0em" dy="0.95em" fill="rgb(50, 49, 63)" stroke="none" stroke-width="1px">0</text><text style="text-anchor: middle; visibility: inherit; font-family: Roboto, sans-serif; font-size: 12px; font-weight: 200;" x="159.09733327229816" y="0" dx="0em" dy="0.95em" fill="rgb(50, 49, 63)" stroke="none" stroke-width="1px">5</text><text style="text-anchor: middle; visibility: inherit; font-family: Roboto, sans-serif; font-size: 12px; font-weight: 200;" x="238.64599990844727" y="0" dx="0em" dy="0.95em" fill="rgb(50, 49, 63)" stroke="none" stroke-width="1px">10</text><text style="text-anchor: middle; visibility: inherit; font-family: Roboto, sans-serif; font-size: 12px; font-weight: 200;" x="318.1946665445963" y="0" dx="0em" dy="0.95em" fill="rgb(50, 49, 63)" stroke="none" stroke-width="1px">15</text><text style="text-anchor: middle; visibility: inherit; font-family: Roboto, sans-serif; font-size: 12px; font-weight: 200;" x="397.7433331807455" y="0" dx="0em" dy="0.95em" fill="rgb(50, 49, 63)" stroke="none" stroke-width="1px">20</text><text style="text-anchor: middle; visibility: inherit; font-family: Roboto, sans-serif; font-size: 12px; font-weight: 200;" x="477.29199981689453" y="0" dx="0em" dy="0.95em" fill="rgb(50, 49, 63)" stroke="none" stroke-width="1px">25</text><text style="text-anchor: middle; visibility: inherit; font-family: Roboto, sans-serif; font-size: 12px; font-weight: 200;" x="556.8406664530437" y="0" dx="0em" dy="0.95em" fill="rgb(50, 49, 63)" stroke="none" stroke-width="1px">30</text><text style="text-anchor: middle; visibility: inherit; font-family: Roboto, sans-serif; font-size: 12px; font-weight: 200;" x="636.3893330891926" y="0" dx="0em" dy="0.95em" fill="rgb(50, 49, 63)" stroke="none" stroke-width="1px">35</text><text style="text-anchor: middle; visibility: inherit; font-family: Roboto, sans-serif; font-size: 12px; font-weight: 200;" x="715.9379997253418" y="0" dx="0em" dy="0.95em" fill="rgb(50, 49, 63)" stroke="none" stroke-width="1px">40</text><text style="text-anchor: middle; visibility: inherit; font-family: Roboto, sans-serif; font-size: 12px; font-weight: 200;" x="795.486666361491" y="0" dx="0em" dy="0.95em" fill="rgb(50, 49, 63)" stroke="none" stroke-width="1px">45</text><text style="text-anchor: middle; visibility: inherit; font-family: Roboto, sans-serif; font-size: 12px; font-weight: 200;" x="875.0353329976399" y="0" dx="0em" dy="0.95em" fill="rgb(50, 49, 63)" stroke="none" stroke-width="1px">50</text><text style="text-anchor: middle; visibility: hidden; font-family: Roboto, sans-serif; font-size: 12px; font-weight: 200;" x="954.5839996337891" y="0" dx="0em" dy="0.95em" fill="rgb(50, 49, 63)" stroke="none" stroke-width="1px">55</text></g><line x1="0" y1="0" x2="954.5839996337891" y2="0" fill="rgb(0, 0, 0)" stroke="rgb(204, 204, 204)" stroke-width="1px"></line></g></g></g></g></svg>