<svg viewBox="0 0 1006 400" xmlns="http://www.w3.org/2000/svg"><g><g><g><g><g><line x1="51.41600036621094" y1="377.95999908447266" x2="46.41600036621094" y2="377.95999908447266" style="visibility: inherit;" fill="rgb(0, 0, 0)" stroke="rgb(204, 204, 204)" stroke-width="1px"></line><line x1="51.41600036621094" y1="352.7626658121745" x2="46.41600036621094" y2="352.7626658121745" style="visibility: inherit;" fill="rgb(0, 0, 0)" stroke="rgb(204, 204, 204)" stroke-width="1px"></line><line x1="51.41600036621094" y1="327.5653325398763" x2="46.41600036621094" y2="327.5653325398763" style="visibility: inherit;" fill="rgb(0, 0, 0)" stroke="rgb(204, 204, 204)" stroke-width="1px"></line><line x1="51.41600036621094" y1="302.3679992675781" x2="46.41600036621094" y2="302.3679992675781" style="visibility: inherit;" fill="rgb(0, 0, 0)" stroke="rgb(204, 204, 204)" stroke-width="1px"></line><line x1="51.41600036621094" y1="277.17066599528" x2="46.41600036621094" y2="277.17066599528" style="visibility: inherit;" fill="rgb(0, 0, 0)" stroke="rgb(204, 204, 204)" stroke-width="1px"></line><line x1="51.41600036621094" y1="251.9733327229818" x2="46.41600036621094" y2="251.9733327229818" style="visibility: inherit;" fill="rgb(0, 0, 0)" stroke="rgb(204, 204, 204)" stroke-width="1px"></line><line x1="51.41600036621094" y1="226.77599945068354" x2="46.41600036621094" y2="226.77599945068354" style="visibility: inherit;" fill="rgb(0, 0, 0)" stroke="rgb(204, 204, 204)" stroke-width="1px"></line><line x1="51.41600036621094" y1="201.57866617838545" x2="46.41600036621094" y2="201.57866617838545" style="visibility: inherit;" fill="rgb(0, 0, 0)" stroke="rgb(204, 204, 204)" stroke-width="1px"></line><line x1="51.41600036621094" y1="176.38133290608724" x2="46.41600036621094" y2="176.38133290608724" style="visibility: inherit;" fill="rgb(0, 0, 0)" stroke="rgb(204, 204, 204)" stroke-width="1px"></line><line x1="51.41600036621094" y1="151.18399963378906" x2="46.41600036621094" y2="151.18399963378906" style="visibility: inherit;" fill="rgb(0, 0, 0)" stroke="rgb(204, 204, 204)" stroke-width="1px"></line><line x1="51.41600036621094" y1="125.9866663614909" x2="46.41600036621094" y2="125.9866663614909" style="visibility: inherit;" fill="rgb(0, 0, 0)" stroke="rgb(204, 204, 204)" stroke-width="1px"></line><line x1="51.41600036621094" y1="100.78933308919268" x2="46.41600036621094" y2="100.78933308919268" style="visibility: inherit;" fill="rgb(0, 0, 0)" stroke="rgb(204, 204, 204)" stroke-width="1px"></line><line x1="51.41600036621094" y1="75.59199981689456" x2="46.41600036621094" y2="75.59199981689456" style="visibility: inherit;" fill="rgb(0, 0, 0)" stroke="rgb(204, 204, 204)" stroke-width="1px"></line><line x1="51.41600036621094" y1="50.39466654459634" x2="46.41600036621094" y2="50.39466654459634" style="visibility: inherit;" fill="rgb(0, 0, 0)" stroke="rgb(204, 204, 204)" stroke-width="1px"></line><line x1="51.41600036621094" y1="25.197333272298213" x2="46.41600036621094" y2="25.197333272298213" style="visibility: inherit;" fill="rgb(0, 0, 0)" stroke="rgb(204, 204, 204)" stroke-width="1px"></line><line x1="51.41600036621094" y1="0" x2="46.41600036621094" y2="0" style="visibility: inherit;" fill="rgb(0, 0, 0)" stroke="rgb(204, 204, 204)" stroke-width="1px"></line></g><g transform="translate(41.41600036621094, 0)"><text style="text-anchor: end; visibility: hidden; font-family: Roboto, sans-serif; font-size: 12px; font-weight: 200;" x="0" y="377.95999908447266" dx="0em" dy="0.3em" fill="rgb(50, 49, 63)" stroke="none" stroke-width="1px">-0.4</text><text style="text-anchor: end; visibility: inherit; font-family: Roboto, sans-serif; font-size: 12px; font-weight: 200;" x="0" y="352.7626658121745" dx="0em" dy="0.3em" fill="rgb(50, 49, 63)" stroke="none" stroke-width="1px">-0.2</text><text style="text-anchor: end; visibility: inherit; font-family: Roboto, sans-serif; font-size: 12px; font-weight: 200;" x="0" y="327.5653325398763" dx="0em" dy="0.3em" fill="rgb(50, 49, 63)" stroke="none" stroke-width="1px">0</text><text style="text-anchor: end; visibility: inherit; font-family: Roboto, sans-serif; font-size: 12px; font-weight: 200;" x="0" y="302.3679992675781" dx="0em" dy="0.3em" fill="rgb(50, 49, 63)" stroke="none" stroke-width="1px">0.2</text><text style="text-anchor: end; visibility: inherit; font-family: Roboto, sans-serif; font-size: 12px; font-weight: 200;" x="0" y="277.17066599528" dx="0em" dy="0.3em" fill="rgb(50, 49, 63)" stroke="none" stroke-width="1px">0.4</text><text style="text-anchor: end; visibility: inherit; font-family: Roboto, sans-serif; font-size: 12px; font-weight: 200;" x="0" y="251.9733327229818" dx="0em" dy="0.3em" fill="rgb(50, 49, 63)" stroke="none" stroke-width="1px">0.6</text><text style="text-anchor: end; visibility: inherit; font-family: Roboto, sans-serif; font-size: 12px; font-weight: 200;" x="0" y="226.77599945068354" dx="0em" dy="0.3em" fill="rgb(50, 49, 63)" stroke="none" stroke-width="1px">0.8</text><text style="text-anchor: end; visibility: inherit; font-family: Roboto, sans-serif; font-size: 12px; font-weight: 200;" x="0" y="201.57866617838545" dx="0em" dy="0.3em" fill="rgb(50, 49, 63)" stroke="none" stroke-width="1px">1</text><text style="text-anchor: end; visibility: inherit; font-family: Roboto, sans-serif; font-size: 12px; font-weight: 200;" x="0" y="176.38133290608724" dx="0em" dy="0.3em" fill="rgb(50, 49, 63)" stroke="none" stroke-width="1px">1.2</text><text style="text-anchor: end; visibility: inherit; font-family: Roboto, sans-serif; font-size: 12px; font-weight: 200;" x="0" y="151.18399963378906" dx="0em" dy="0.3em" fill="rgb(50, 49, 63)" stroke="none" stroke-width="1px">1.4</text><text style="text-anchor: end; visibility: inherit; font-family: Roboto, sans-serif; font-size: 12px; font-weight: 200;" x="0" y="125.9866663614909" dx="0em" dy="0.3em" fill="rgb(50, 49, 63)" stroke="none" stroke-width="1px">1.6</text><text style="text-anchor: end; visibility: inherit; font-family: Roboto, sans-serif; font-size: 12px; font-weight: 200;" x="0" y="100.78933308919268" dx="0em" dy="0.3em" fill="rgb(50, 49, 63)" stroke="none" stroke-width="1px">1.8</text><text style="text-anchor: end; visibility: inherit; font-family: Roboto, sans-serif; font-size: 12px; font-weight: 200;" x="0" y="75.59199981689456" dx="0em" dy="0.3em" fill="rgb(50, 49, 63)" stroke="none" stroke-width="1px">2</text><text style="text-anchor: end; visibility: inherit; font-family: Roboto, sans-serif; font-size: 12px; font-weight: 200;" x="0" y="50.39466654459634" dx="0em" dy="0.3em" fill="rgb(50, 49, 63)" stroke="none" stroke-width="1px">2.2</text><text style="text-anchor: end; visibility: inherit; font-family: Roboto, sans-serif; font-size: 12px; font-weight: 200;" x="0" y="25.197333272298213" dx="0em" dy="0.3em" fill="rgb(50, 49, 63)" stroke="none" stroke-width="1px">2.4</text><text style="text-anchor: end; visibility: hidden; font-family: Roboto, sans-serif; font-size: 12px; font-weight: 200;" x="0" y="0" dx="0em" dy="0.3em" fill="rgb(50, 49, 63)" stroke="none" stroke-width="1px">2.6</text></g><line x1="51.41600036621094" y1="0" x2="51.41600036621094" y2="377.95999908447266" fill="rgb(0, 0, 0)" stroke="rgb(204, 204, 204)" stroke-width="1px"></line></g></g><g transform="translate(51, 0)" clip-path="url(#clip_0)"><clipPath id="clip_0"><rect width="954" height="377"></rect></clipPath><g><g><g><line x1="0" y1="0" x2="0" y2="377.95999908447266" fill="rgb(0, 0, 0)" stroke="rgb(60, 60, 60)" stroke-width="1px" opacity="0.25"></line><line x1="79.54866663614908" y1="0" x2="79.54866663614908" y2="377.95999908447266" fill="rgb(0, 0, 0)" stroke="rgb(60, 60, 60)" stroke-width="1px" opacity="0.25"></line><line x1="159.09733327229816" y1="0" x2="159.09733327229816" y2="377.95999908447266" fill="rgb(0, 0, 0)" stroke="rgb(60, 60, 60)" stroke-width="1px" opacity="0.25"></line><line x1="238.64599990844727" y1="0" x2="238.64599990844727" y2="377.95999908447266" fill="rgb(0, 0, 0)" stroke="rgb(60, 60, 60)" stroke-width="1px" opacity="0.25"></line><line x1="318.1946665445963" y1="0" x2="318.1946665445963" y2="377.95999908447266" fill="rgb(0, 0, 0)" stroke="rgb(60, 60, 60)" stroke-width="1px" opacity="0.25"></line><line x1="397.7433331807455" y1="0" x2="397.7433331807455" y2="377.95999908447266" fill="rgb(0, 0, 0)" stroke="rgb(60, 60, 60)" stroke-width="1px" opacity="0.25"></line><line x1="477.29199981689453" y1="0" x2="477.29199981689453" y2="377.95999908447266" fill="rgb(0, 0, 0)" stroke="rgb(60, 60, 60)" stroke-width="1px" opacity="0.25"></line><line x1="556.8406664530437" y1="0" x2="556.8406664530437" y2="377.95999908447266" fill="rgb(0, 0, 0)" stroke="rgb(60, 60, 60)" stroke-width="1px" opacity="0.25"></line><line x1="636.3893330891926" y1="0" x2="636.3893330891926" y2="377.95999908447266" fill="rgb(0, 0, 0)" stroke="rgb(60, 60, 60)" stroke-width="1px" opacity="0.25"></line><line x1="715.9379997253418" y1="0" x2="715.9379997253418" y2="377.95999908447266" fill="rgb(0, 0, 0)" stroke="rgb(60, 60, 60)" stroke-width="1px" opacity="0.25"></line><line x1="795.486666361491" y1="0" x2="795.486666361491" y2="377.95999908447266" fill="rgb(0, 0, 0)" stroke="rgb(60, 60, 60)" stroke-width="1px" opacity="0.25"></line><line x1="875.0353329976399" y1="0" x2="875.0353329976399" y2="377.95999908447266" fill="rgb(0, 0, 0)" stroke="rgb(60, 60, 60)" stroke-width="1px" opacity="0.25"></line><line x1="954.5839996337891" y1="0" x2="954.5839996337891" y2="377.95999908447266" fill="rgb(0, 0, 0)" stroke="rgb(60, 60, 60)" stroke-width="1px" opacity="0.25"></line></g><g><line x1="0" y1="377.95999908447266" x2="954.5839996337891" y2="377.95999908447266" fill="rgb(0, 0, 0)" stroke="rgb(60, 60, 60)" stroke-width="1px" opacity="0.25"></line><line x1="0" y1="352.7626658121745" x2="954.5839996337891" y2="352.7626658121745" fill="rgb(0, 0, 0)" stroke="rgb(60, 60, 60)" stroke-width="1px" opacity="0.25"></line><line x1="0" y1="327.5653325398763" x2="954.5839996337891" y2="327.5653325398763" fill="rgb(0, 0, 0)" stroke="rgb(60, 60, 60)" stroke-width="1px" opacity="0.25"></line><line x1="0" y1="302.3679992675781" x2="954.5839996337891" y2="302.3679992675781" fill="rgb(0, 0, 0)" stroke="rgb(60, 60, 60)" stroke-width="1px" opacity="0.25"></line><line x1="0" y1="277.17066599528" x2="954.5839996337891" y2="277.17066599528" fill="rgb(0, 0, 0)" stroke="rgb(60, 60, 60)" stroke-width="1px" opacity="0.25"></line><line x1="0" y1="251.9733327229818" x2="954.5839996337891" y2="251.9733327229818" fill="rgb(0, 0, 0)" stroke="rgb(60, 60, 60)" stroke-width="1px" opacity="0.25"></line><line x1="0" y1="226.77599945068354" x2="954.5839996337891" y2="226.77599945068354" fill="rgb(0, 0, 0)" stroke="rgb(60, 60, 60)" stroke-width="1px" opacity="0.25"></line><line x1="0" y1="201.57866617838545" x2="954.5839996337891" y2="201.57866617838545" fill="rgb(0, 0, 0)" stroke="rgb(60, 60, 60)" stroke-width="1px" opacity="0.25"></line><line x1="0" y1="176.38133290608724" x2="954.5839996337891" y2="176.38133290608724" fill="rgb(0, 0, 0)" stroke="rgb(60, 60, 60)" stroke-width="1px" opacity="0.25"></line><line x1="0" y1="151.18399963378906" x2="954.5839996337891" y2="151.18399963378906" fill="rgb(0, 0, 0)" stroke="rgb(60, 60, 60)" stroke-width="1px" opacity="0.25"></line><line x1="0" y1="125.9866663614909" x2="954.5839996337891" y2="125.9866663614909" fill="rgb(0, 0, 0)" stroke="rgb(60, 60, 60)" stroke-width="1px" opacity="0.25"></line><line x1="0" y1="100.78933308919268" x2="954.5839996337891" y2="100.78933308919268" fill="rgb(0, 0, 0)" stroke="rgb(60, 60, 60)" stroke-width="1px" opacity="0.25"></line><line x1="0" y1="75.59199981689456" x2="954.5839996337891" y2="75.59199981689456" fill="rgb(0, 0, 0)" stroke="rgb(60, 60, 60)" stroke-width="1px" opacity="0.25"></line><line x1="0" y1="50.39466654459634" x2="954.5839996337891" y2="50.39466654459634" fill="rgb(0, 0, 0)" stroke="rgb(60, 60, 60)" stroke-width="1px" opacity="0.25"></line><line x1="0" y1="25.197333272298213" x2="954.5839996337891" y2="25.197333272298213" fill="rgb(0, 0, 0)" stroke="rgb(60, 60, 60)" stroke-width="1px" opacity="0.25"></line><line x1="0" y1="0" x2="954.5839996337891" y2="0" fill="rgb(0, 0, 0)" stroke="rgb(60, 60, 60)" stroke-width="1px" opacity="0.25"></line></g></g></g><g><g><line x1="0" y1="327.5653325398763" x2="954.5839996337891" y2="327.5653325398763" fill="rgb(0, 0, 0)" stroke="rgb(153, 153, 153)" stroke-width="1.5px"></line></g></g><g><g><line x1="79.54866663614908" y1="0" x2="79.54866663614908" y2="377.95999908447266" fill="rgb(0, 0, 0)" stroke="rgb(153, 153, 153)" stroke-width="1.5px"></line></g></g><g><g><g><g><g><path style="fill: none;" stroke="rgb(0, 119, 187)" stroke-width="2px" d="M79.54866663614908,75.73170451766188L95.45839996337891,172.60571048919988L111.36813329060872,204.52282785338275L127.27786661783854,224.06346342362374L143.18759994506834,229.7495814157619L159.09733327229816,233.92777624956912L175.00706659952797,236.54790772471097L190.91679992675782,240.73988979946685L206.82653325398763,241.3081479063883L222.73626658121745,242.19408326880662L238.64599990844727,243.06143288975L254.55573323567708,243.45936300146585L270.4654665629069,242.83256919563655L286.3751998901367,243.1092601978121L302.28493321736653,242.7711724189501L318.1946665445963,242.85985081130457L334.10439987182616,242.72687452442065L350.01413319905595,242.71407101362684L365.92386652628585,242.73484949712625L381.83359985351564,242.73385074819043L397.7433331807455,242.7221135708469L413.65306650797527,242.7496730339632L429.5627998352051,242.74944024285787L445.4725331624349,242.75126502474814L461.38226648966474,242.7464439960504L477.29199981689453,242.74988329689702L493.2017331441244,242.74581320724883L509.11146647135416,242.7459183387157L525.021199798584,242.74611358286862L540.9309331258138,242.74669931532722L556.8406664530437,242.74660920264128L572.7503997802734,242.74700720033752L588.6601331075033,242.74723999144285L604.5698664347331,242.7472475008333L620.479599761963,242.74731508534776L636.3893330891926,242.7473301041288L652.2990664164225,242.74733761351925L668.2087997436523,242.74735263230028L684.1185330708822,242.7473451229098L700.0282663981119,242.74735263230028L715.9379997253418,242.74735263230028L731.8477330525717,242.74735263230028L747.7574663798014,242.74735263230028L763.6671997070313,242.74735263230028L779.5769330342611,242.74735263230028L795.486666361491,242.74735263230028L811.3963996887206,242.74735263230028L827.3061330159505,242.74735263230028L843.2158663431803,242.74735263230028L859.1255996704102,242.74735263230028" fill="none"></path></g><g><path style="fill: none;" stroke="rgb(51, 187, 238)" stroke-width="2px" d="M95.45839996337891,-142.95054769984492L111.36813329060872,55.9395043658413L127.27786661783854,63.56856450768051L143.18759994506834,93.4428873567514L159.09733327229816,107.6686917290943L175.00706659952797,112.74888451158843L190.91679992675782,115.94594743967339L206.82653325398763,115.4363902382506L222.73626658121745,115.74759439914075L238.64599990844727,115.91442301837573L254.55573323567708,115.93240049922055L270.4654665629069,115.96185232874161L286.3751998901367,115.95820276496109L302.28493321736653,115.96029037551865L318.1946665445963,115.96077097651035L334.10439987182616,115.96090614553925L350.01413319905595,115.96089112675824L365.92386652628585,115.96086108919629L381.83359985351564,115.96092116432023L397.7433331807455,115.96092116432023L413.65306650797527,115.96092116432023L429.5627998352051,115.96092116432023L445.4725331624349,115.96092116432023L461.38226648966474,115.96092116432023L477.29199981689453,115.96092116432023L493.2017331441244,115.96092116432023L509.11146647135416,115.96092116432023L525.021199798584,115.96092116432023L540.9309331258138,115.96092116432023L556.8406664530437,115.96092116432023L572.7503997802734,115.96092116432023L588.6601331075033,115.96092116432023L604.5698664347331,115.96092116432023L620.479599761963,115.96092116432023L636.3893330891926,115.96092116432023L652.2990664164225,115.96092116432023L668.2087997436523,115.96092116432023L684.1185330708822,115.96092116432023L700.0282663981119,115.96092116432023L715.9379997253418,115.96092116432023L731.8477330525717,115.96092116432023L747.7574663798014,115.96092116432023L763.6671997070313,115.96092116432023L779.5769330342611,115.96092116432023L795.486666361491,115.96092116432023L811.3963996887206,115.96092116432023L827.3061330159505,115.96092116432023L843.2158663431803,115.96092116432023L859.1255996704102,115.96092116432023" fill="none"></path></g><g><path style="fill: none;" stroke="rgb(255, 112, 67)" stroke-width="2px" d="M79.54866663614908,22.156859158569336L95.45839996337891,196.5141379844637L111.36813329060872,267.5545452836429L127.27786661783854,298.06981901697367L143.18759994506834,308.84553530320073L159.09733327229816,315.82654912543626L175.00706659952797,317.3466496991284L190.91679992675782,319.1211167957286L206.82653325398763,319.5459783977807L222.73626658121745,318.677243294291L238.64599990844727,320.03576525137794L254.55573323567708,320.02468045233366L270.4654665629069,320.7908194468604L286.3751998901367,320.3757759035435L302.28493321736653,320.30920938083824L318.1946665445963,319.6310184904403L334.10439987182616,321.0629738385032L350.01413319905595,321.9800436032503L365.92386652628585,319.2659785704183L381.83359985351564,321.6070545240525L397.7433331807455,320.3603126605038L413.65306650797527,321.77642835732837L429.5627998352051,321.28943922102735L445.4725331624349,322.0753396459784L461.38226648966474,320.7432296232727L477.29199981689453,321.7234716662213L493.2017331441244,321.21664225089586L509.11146647135416,319.6768933569737L525.021199798584,320.030236931963L540.9309331258138,321.59091825188966L556.8406664530437,320.2183030461914L572.7503997802734,321.34739763554086L588.6601331075033,319.88627675346953L604.5698664347331,320.2316777399997L620.479599761963,320.742095705308L636.3893330891926,320.3301051985642L652.2990664164225,321.2977985806589L668.2087997436523,320.12393253584185L684.1185330708822,320.90084140434897L700.0282663981119,320.95438288924083L715.9379997253418,320.4592859578898L731.8477330525717,319.79812307977596L747.7574663798014,320.7337668525753L763.6671997070313,320.57336486359327L779.5769330342611,321.2820143111755L795.486666361491,321.7899809298241L811.3963996887206,321.531743316116L827.3061330159505,320.5730574479199L843.2158663431803,321.96627466644094L859.1255996704102,321.00330328295684" fill="none"></path></g><g><path style="fill: none;" stroke="rgb(204, 51, 17)" stroke-width="2px" d="M95.45839996337891,-2.1505873100321464L111.36813329060872,167.95367311516367L127.27786661783854,229.89408461705548L143.18759994506834,248.78550334144938L159.09733327229816,259.6917065516113L175.00706659952797,260.596175089771L190.91679992675782,263.94347088409717L206.82653325398763,265.20186826036786L222.73626658121745,262.5241209866538L238.64599990844727,263.0180811840186L254.55573323567708,265.45007989909146L270.4654665629069,261.8873472008567L286.3751998901367,261.89361003252947L302.28493321736653,262.94961056148605L318.1946665445963,262.0405988420769L334.10439987182616,265.65986598665256L350.01413319905595,262.98398855117176L365.92386652628585,264.03311047843493L381.83359985351564,261.6045886111613L397.7433331807455,264.5376889539596L413.65306650797527,263.3213479191557L429.5627998352051,263.8459389203493L445.4725331624349,263.5322341324243L461.38226648966474,259.82827232715175L477.29199981689453,266.15896260711594L493.2017331441244,262.01268643760733L509.11146647135416,258.616076475901L525.021199798584,266.26095139412257L540.9309331258138,265.0008080845618L556.8406664530437,264.2256512507245L572.7503997802734,265.3732550796332L588.6601331075033,266.5217074696679L604.5698664347331,264.44902558038615L620.479599761963,261.1018874832604L636.3893330891926,265.0373375146243L652.2990664164225,262.946741974317L668.2087997436523,266.2583493903161L684.1185330708822,264.6889656254796L700.0282663981119,265.8013128660147L715.9379997253418,263.9642794051586L731.8477330525717,267.00982911592297L747.7574663798014,263.8837937578341L763.6671997070313,266.58619811523823L779.5769330342611,262.5241284960443L795.486666361491,262.50865164223427L811.3963996887206,266.48825313501305L827.3061330159505,263.14934532986973L843.2158663431803,265.2991824517914L859.1255996704102,269.3724185346513" fill="none"></path></g></g></g></g></g></g><g transform="translate(51, 377)" clip-path="url(#clip_1)"><clipPath id="clip_1"><rect width="954" height="22"></rect></clipPath><g><g><line x1="0" y1="0" x2="0" y2="5" style="visibility: inherit;" fill="rgb(0, 0, 0)" stroke="rgb(204, 204, 204)" stroke-width="1px"></line><line x1="79.54866663614908" y1="0" x2="79.54866663614908" y2="5" style="visibility: inherit;" fill="rgb(0, 0, 0)" stroke="rgb(204, 204, 204)" stroke-width="1px"></line><line x1="159.09733327229816" y1="0" x2="159.09733327229816" y2="5" style="visibility: inherit;" fill="rgb(0, 0, 0)" stroke="rgb(204, 204, 204)" stroke-width="1px"></line><line x1="238.64599990844727" y1="0" x2="238.64599990844727" y2="5" style="visibility: inherit;" fill="rgb(0, 0, 0)" stroke="rgb(204, 204, 204)" stroke-width="1px"></line><line x1="318.1946665445963" y1="0" x2="318.1946665445963" y2="5" style="visibility: inherit;" fill="rgb(0, 0, 0)" stroke="rgb(204, 204, 204)" stroke-width="1px"></line><line x1="397.7433331807455" y1="0" x2="397.7433331807455" y2="5" style="visibility: inherit;" fill="rgb(0, 0, 0)" stroke="rgb(204, 204, 204)" stroke-width="1px"></line><line x1="477.29199981689453" y1="0" x2="477.29199981689453" y2="5" style="visibility: inherit;" fill="rgb(0, 0, 0)" stroke="rgb(204, 204, 204)" stroke-width="1px"></line><line x1="556.8406664530437" y1="0" x2="556.8406664530437" y2="5" style="visibility: inherit;" fill="rgb(0, 0, 0)" stroke="rgb(204, 204, 204)" stroke-width="1px"></line><line x1="636.3893330891926" y1="0" x2="636.3893330891926" y2="5" style="visibility: inherit;" fill="rgb(0, 0, 0)" stroke="rgb(204, 204, 204)" stroke-width="1px"></line><line x1="715.9379997253418" y1="0" x2="715.9379997253418" y2="5" style="visibility: inherit;" fill="rgb(0, 0, 0)" stroke="rgb(204, 204, 204)" stroke-width="1px"></line><line x1="795.486666361491" y1="0" x2="795.486666361491" y2="5" style="visibility: inherit;" fill="rgb(0, 0, 0)" stroke="rgb(204, 204, 204)" stroke-width="1px"></line><line x1="875.0353329976399" y1="0" x2="875.0353329976399" y2="5" style="visibility: inherit;" fill="rgb(0, 0, 0)" stroke="rgb(204, 204, 204)" stroke-width="1px"></line><line x1="954.5839996337891" y1="0" x2="954.5839996337891" y2="5" style="visibility: inherit;" fill="rgb(0, 0, 0)" stroke="rgb(204, 204, 204)" stroke-width="1px"></line></g><g transform="translate(0, 8)"><text style="text-anchor: middle; visibility: hidden; font-family: Roboto, sans-serif; font-size: 12px; font-weight: 200;" x="0" y="0" dx="0em" dy="0.95em" fill="rgb(50, 49, 63)" stroke="none" stroke-width="1px">-5</text><text style="text-anchor: middle; visibility: inherit; font-family: Roboto, sans-serif; font-size: 12px; font-weight: 200;" x="79.54866663614908" y="0" dx="0em" dy="0.95em" fill="rgb(50, 49, 63)" stroke="none" stroke-width="1px">0</text><text style="text-anchor: middle; visibility: inherit; font-family: Roboto, sans-serif; font-size: 12px; font-weight: 200;" x="159.09733327229816" y="0" dx="0em" dy="0.95em" fill="rgb(50, 49, 63)" stroke="none" stroke-width="1px">5</text><text style="text-anchor: middle; visibility: inherit; font-family: Roboto, sans-serif; font-size: 12px; font-weight: 200;" x="238.64599990844727" y="0" dx="0em" dy="0.95em" fill="rgb(50, 49, 63)" stroke="none" stroke-width="1px">10</text><text style="text-anchor: middle; visibility: inherit; font-family: Roboto, sans-serif; font-size: 12px; font-weight: 200;" x="318.1946665445963" y="0" dx="0em" dy="0.95em" fill="rgb(50, 49, 63)" stroke="none" stroke-width="1px">15</text><text style="text-anchor: middle; visibility: inherit; font-family: Roboto, sans-serif; font-size: 12px; font-weight: 200;" x="397.7433331807455" y="0" dx="0em" dy="0.95em" fill="rgb(50, 49, 63)" stroke="none" stroke-width="1px">20</text><text style="text-anchor: middle; visibility: inherit; font-family: Roboto, sans-serif; font-size: 12px; font-weight: 200;" x="477.29199981689453" y="0" dx="0em" dy="0.95em" fill="rgb(50, 49, 63)" stroke="none" stroke-width="1px">25</text><text style="text-anchor: middle; visibility: inherit; font-family: Roboto, sans-serif; font-size: 12px; font-weight: 200;" x="556.8406664530437" y="0" dx="0em" dy="0.95em" fill="rgb(50, 49, 63)" stroke="none" stroke-width="1px">30</text><text style="text-anchor: middle; visibility: inherit; font-family: Roboto, sans-serif; font-size: 12px; font-weight: 200;" x="636.3893330891926" y="0" dx="0em" dy="0.95em" fill="rgb(50, 49, 63)" stroke="none" stroke-width="1px">35</text><text style="text-anchor: middle; visibility: inherit; font-family: Roboto, sans-serif; font-size: 12px; font-weight: 200;" x="715.9379997253418" y="0" dx="0em" dy="0.95em" fill="rgb(50, 49, 63)" stroke="none" stroke-width="1px">40</text><text style="text-anchor: middle; visibility: inherit; font-family: Roboto, sans-serif; font-size: 12px; font-weight: 200;" x="795.486666361491" y="0" dx="0em" dy="0.95em" fill="rgb(50, 49, 63)" stroke="none" stroke-width="1px">45</text><text style="text-anchor: middle; visibility: inherit; font-family: Roboto, sans-serif; font-size: 12px; font-weight: 200;" x="875.0353329976399" y="0" dx="0em" dy="0.95em" fill="rgb(50, 49, 63)" stroke="none" stroke-width="1px">50</text><text style="text-anchor: middle; visibility: hidden; font-family: Roboto, sans-serif; font-size: 12px; font-weight: 200;" x="954.5839996337891" y="0" dx="0em" dy="0.95em" fill="rgb(50, 49, 63)" stroke="none" stroke-width="1px">55</text></g><line x1="0" y1="0" x2="954.5839996337891" y2="0" fill="rgb(0, 0, 0)" stroke="rgb(204, 204, 204)" stroke-width="1px"></line></g></g></g></g></svg>