<svg viewBox="0 0 1006 400" xmlns="http://www.w3.org/2000/svg"><g><g><g><g><g><line x1="51.41600036621094" y1="377.95999908447266" x2="46.41600036621094" y2="377.95999908447266" style="visibility: inherit;" fill="rgb(0, 0, 0)" stroke="rgb(204, 204, 204)" stroke-width="1px"></line><line x1="51.41600036621094" y1="330.7149991989135" x2="46.41600036621094" y2="330.7149991989135" style="visibility: inherit;" fill="rgb(0, 0, 0)" stroke="rgb(204, 204, 204)" stroke-width="1px"></line><line x1="51.41600036621094" y1="283.4699993133546" x2="46.41600036621094" y2="283.4699993133546" style="visibility: inherit;" fill="rgb(0, 0, 0)" stroke="rgb(204, 204, 204)" stroke-width="1px"></line><line x1="51.41600036621094" y1="236.2249994277955" x2="46.41600036621094" y2="236.2249994277955" style="visibility: inherit;" fill="rgb(0, 0, 0)" stroke="rgb(204, 204, 204)" stroke-width="1px"></line><line x1="51.41600036621094" y1="188.97999954223633" x2="46.41600036621094" y2="188.97999954223633" style="visibility: inherit;" fill="rgb(0, 0, 0)" stroke="rgb(204, 204, 204)" stroke-width="1px"></line><line x1="51.41600036621094" y1="141.73499965667716" x2="46.41600036621094" y2="141.73499965667716" style="visibility: inherit;" fill="rgb(0, 0, 0)" stroke="rgb(204, 204, 204)" stroke-width="1px"></line><line x1="51.41600036621094" y1="94.48999977111804" x2="46.41600036621094" y2="94.48999977111804" style="visibility: inherit;" fill="rgb(0, 0, 0)" stroke="rgb(204, 204, 204)" stroke-width="1px"></line><line x1="51.41600036621094" y1="47.24499988555887" x2="46.41600036621094" y2="47.24499988555887" style="visibility: inherit;" fill="rgb(0, 0, 0)" stroke="rgb(204, 204, 204)" stroke-width="1px"></line><line x1="51.41600036621094" y1="0" x2="46.41600036621094" y2="0" style="visibility: inherit;" fill="rgb(0, 0, 0)" stroke="rgb(204, 204, 204)" stroke-width="1px"></line></g><g transform="translate(41.41600036621094, 0)"><text style="text-anchor: end; visibility: hidden; font-family: Roboto, sans-serif; font-size: 12px; font-weight: 200;" x="0" y="377.95999908447266" dx="0em" dy="0.3em" fill="rgb(50, 49, 63)" stroke="none" stroke-width="1px">0.78</text><text style="text-anchor: end; visibility: inherit; font-family: Roboto, sans-serif; font-size: 12px; font-weight: 200;" x="0" y="330.7149991989135" dx="0em" dy="0.3em" fill="rgb(50, 49, 63)" stroke="none" stroke-width="1px">0.8</text><text style="text-anchor: end; visibility: inherit; font-family: Roboto, sans-serif; font-size: 12px; font-weight: 200;" x="0" y="283.4699993133546" dx="0em" dy="0.3em" fill="rgb(50, 49, 63)" stroke="none" stroke-width="1px">0.82</text><text style="text-anchor: end; visibility: inherit; font-family: Roboto, sans-serif; font-size: 12px; font-weight: 200;" x="0" y="236.2249994277955" dx="0em" dy="0.3em" fill="rgb(50, 49, 63)" stroke="none" stroke-width="1px">0.84</text><text style="text-anchor: end; visibility: inherit; font-family: Roboto, sans-serif; font-size: 12px; font-weight: 200;" x="0" y="188.97999954223633" dx="0em" dy="0.3em" fill="rgb(50, 49, 63)" stroke="none" stroke-width="1px">0.86</text><text style="text-anchor: end; visibility: inherit; font-family: Roboto, sans-serif; font-size: 12px; font-weight: 200;" x="0" y="141.73499965667716" dx="0em" dy="0.3em" fill="rgb(50, 49, 63)" stroke="none" stroke-width="1px">0.88</text><text style="text-anchor: end; visibility: inherit; font-family: Roboto, sans-serif; font-size: 12px; font-weight: 200;" x="0" y="94.48999977111804" dx="0em" dy="0.3em" fill="rgb(50, 49, 63)" stroke="none" stroke-width="1px">0.9</text><text style="text-anchor: end; visibility: inherit; font-family: Roboto, sans-serif; font-size: 12px; font-weight: 200;" x="0" y="47.24499988555887" dx="0em" dy="0.3em" fill="rgb(50, 49, 63)" stroke="none" stroke-width="1px">0.92</text><text style="text-anchor: end; visibility: hidden; font-family: Roboto, sans-serif; font-size: 12px; font-weight: 200;" x="0" y="0" dx="0em" dy="0.3em" fill="rgb(50, 49, 63)" stroke="none" stroke-width="1px">0.94</text></g><line x1="51.41600036621094" y1="0" x2="51.41600036621094" y2="377.95999908447266" fill="rgb(0, 0, 0)" stroke="rgb(204, 204, 204)" stroke-width="1px"></line></g></g><g transform="translate(51, 0)" clip-path="url(#clip_0)"><clipPath id="clip_0"><rect width="954" height="377"></rect></clipPath><g><g><g><line x1="0" y1="0" x2="0" y2="377.95999908447266" fill="rgb(0, 0, 0)" stroke="rgb(60, 60, 60)" stroke-width="1px" opacity="0.25"></line><line x1="79.54866663614908" y1="0" x2="79.54866663614908" y2="377.95999908447266" fill="rgb(0, 0, 0)" stroke="rgb(60, 60, 60)" stroke-width="1px" opacity="0.25"></line><line x1="159.09733327229816" y1="0" x2="159.09733327229816" y2="377.95999908447266" fill="rgb(0, 0, 0)" stroke="rgb(60, 60, 60)" stroke-width="1px" opacity="0.25"></line><line x1="238.64599990844727" y1="0" x2="238.64599990844727" y2="377.95999908447266" fill="rgb(0, 0, 0)" stroke="rgb(60, 60, 60)" stroke-width="1px" opacity="0.25"></line><line x1="318.1946665445963" y1="0" x2="318.1946665445963" y2="377.95999908447266" fill="rgb(0, 0, 0)" stroke="rgb(60, 60, 60)" stroke-width="1px" opacity="0.25"></line><line x1="397.7433331807455" y1="0" x2="397.7433331807455" y2="377.95999908447266" fill="rgb(0, 0, 0)" stroke="rgb(60, 60, 60)" stroke-width="1px" opacity="0.25"></line><line x1="477.29199981689453" y1="0" x2="477.29199981689453" y2="377.95999908447266" fill="rgb(0, 0, 0)" stroke="rgb(60, 60, 60)" stroke-width="1px" opacity="0.25"></line><line x1="556.8406664530437" y1="0" x2="556.8406664530437" y2="377.95999908447266" fill="rgb(0, 0, 0)" stroke="rgb(60, 60, 60)" stroke-width="1px" opacity="0.25"></line><line x1="636.3893330891926" y1="0" x2="636.3893330891926" y2="377.95999908447266" fill="rgb(0, 0, 0)" stroke="rgb(60, 60, 60)" stroke-width="1px" opacity="0.25"></line><line x1="715.9379997253418" y1="0" x2="715.9379997253418" y2="377.95999908447266" fill="rgb(0, 0, 0)" stroke="rgb(60, 60, 60)" stroke-width="1px" opacity="0.25"></line><line x1="795.486666361491" y1="0" x2="795.486666361491" y2="377.95999908447266" fill="rgb(0, 0, 0)" stroke="rgb(60, 60, 60)" stroke-width="1px" opacity="0.25"></line><line x1="875.0353329976399" y1="0" x2="875.0353329976399" y2="377.95999908447266" fill="rgb(0, 0, 0)" stroke="rgb(60, 60, 60)" stroke-width="1px" opacity="0.25"></line><line x1="954.5839996337891" y1="0" x2="954.5839996337891" y2="377.95999908447266" fill="rgb(0, 0, 0)" stroke="rgb(60, 60, 60)" stroke-width="1px" opacity="0.25"></line></g><g><line x1="0" y1="377.95999908447266" x2="954.5839996337891" y2="377.95999908447266" fill="rgb(0, 0, 0)" stroke="rgb(60, 60, 60)" stroke-width="1px" opacity="0.25"></line><line x1="0" y1="330.7149991989135" x2="954.5839996337891" y2="330.7149991989135" fill="rgb(0, 0, 0)" stroke="rgb(60, 60, 60)" stroke-width="1px" opacity="0.25"></line><line x1="0" y1="283.4699993133546" x2="954.5839996337891" y2="283.4699993133546" fill="rgb(0, 0, 0)" stroke="rgb(60, 60, 60)" stroke-width="1px" opacity="0.25"></line><line x1="0" y1="236.2249994277955" x2="954.5839996337891" y2="236.2249994277955" fill="rgb(0, 0, 0)" stroke="rgb(60, 60, 60)" stroke-width="1px" opacity="0.25"></line><line x1="0" y1="188.97999954223633" x2="954.5839996337891" y2="188.97999954223633" fill="rgb(0, 0, 0)" stroke="rgb(60, 60, 60)" stroke-width="1px" opacity="0.25"></line><line x1="0" y1="141.73499965667716" x2="954.5839996337891" y2="141.73499965667716" fill="rgb(0, 0, 0)" stroke="rgb(60, 60, 60)" stroke-width="1px" opacity="0.25"></line><line x1="0" y1="94.48999977111804" x2="954.5839996337891" y2="94.48999977111804" fill="rgb(0, 0, 0)" stroke="rgb(60, 60, 60)" stroke-width="1px" opacity="0.25"></line><line x1="0" y1="47.24499988555887" x2="954.5839996337891" y2="47.24499988555887" fill="rgb(0, 0, 0)" stroke="rgb(60, 60, 60)" stroke-width="1px" opacity="0.25"></line><line x1="0" y1="0" x2="954.5839996337891" y2="0" fill="rgb(0, 0, 0)" stroke="rgb(60, 60, 60)" stroke-width="1px" opacity="0.25"></line></g></g></g><g><g><line x1="0" y1="2220.5149946212778" x2="954.5839996337891" y2="2220.5149946212778" fill="rgb(0, 0, 0)" stroke="rgb(153, 153, 153)" stroke-width="1.5px"></line></g></g><g><g><line x1="79.54866663614908" y1="0" x2="79.54866663614908" y2="377.95999908447266" fill="rgb(0, 0, 0)" stroke="rgb(153, 153, 153)" stroke-width="1.5px"></line></g></g><g><g><g><g><g><path style="fill: none;" stroke="rgb(0, 119, 187)" stroke-width="2px" d="M79.54866663614908,690.7706269870771L95.45839996337891,335.38787700892084L111.36813329060872,342.1512564918542L127.27786661783854,237.62687685090475L143.18759994506834,226.55963100688416L159.09733327229816,222.8705021251867L175.00706659952797,205.65475507869428L190.91679992675782,207.49924911900712L206.82653325398763,208.7290056799302L222.73626658121745,209.9586214397815L238.64599990844727,209.34374315931996L254.55573323567708,208.7290056799302L270.4654665629069,208.7290056799302L286.3751998901367,208.7290056799302L302.28493321736653,208.7290056799302L318.1946665445963,208.7290056799302L334.10439987182616,208.7290056799302L350.01413319905595,208.7290056799302L365.92386652628585,208.7290056799302L381.83359985351564,208.7290056799302L397.7433331807455,208.7290056799302L413.65306650797527,208.7290056799302L429.5627998352051,208.7290056799302L445.4725331624349,208.7290056799302L461.38226648966474,208.7290056799302L477.29199981689453,208.7290056799302L493.2017331441244,208.7290056799302L509.11146647135416,208.7290056799302L525.021199798584,208.7290056799302L540.9309331258138,208.7290056799302L556.8406664530437,208.7290056799302L572.7503997802734,208.7290056799302L588.6601331075033,208.7290056799302L604.5698664347331,208.7290056799302L620.479599761963,208.7290056799302L636.3893330891926,208.7290056799302L652.2990664164225,208.7290056799302L668.2087997436523,208.7290056799302L684.1185330708822,208.7290056799302L700.0282663981119,208.7290056799302L715.9379997253418,208.7290056799302L731.8477330525717,208.7290056799302L747.7574663798014,208.7290056799302L763.6671997070313,208.7290056799302L779.5769330342611,208.7290056799302L795.486666361491,208.7290056799302L811.3963996887206,208.7290056799302L827.3061330159505,208.7290056799302L843.2158663431803,208.7290056799302L859.1255996704102,208.7290056799302" fill="none"></path></g><g><path style="fill: none;" stroke="rgb(51, 187, 238)" stroke-width="2px" d="M79.54866663614908,436.8380060486343L95.45839996337891,341.5363782113927L111.36813329060872,254.84262389739717L127.27786661783854,212.41799376055587L143.18759994506834,185.3647574309659L159.09733327229816,177.986499667571L175.00706659952797,177.37162138710946L190.91679992675782,175.52712734679662L206.82653325398763,179.21625622849407L222.73626658121745,179.21625622849407L238.64599990844727,179.21625622849407L254.55573323567708,179.21625622849407L270.4654665629069,179.21625622849407L286.3751998901367,179.21625622849407L302.28493321736653,179.21625622849407L318.1946665445963,179.21625622849407L334.10439987182616,179.21625622849407L350.01413319905595,179.21625622849407L365.92386652628585,179.21625622849407L381.83359985351564,179.21625622849407L397.7433331807455,179.21625622849407L413.65306650797527,179.21625622849407L429.5627998352051,179.21625622849407L445.4725331624349,179.21625622849407L461.38226648966474,179.21625622849407L477.29199981689453,179.21625622849407L493.2017331441244,179.21625622849407L509.11146647135416,179.21625622849407L525.021199798584,179.21625622849407L540.9309331258138,179.21625622849407L556.8406664530437,179.21625622849407L572.7503997802734,179.21625622849407L588.6601331075033,179.21625622849407L604.5698664347331,179.21625622849407L620.479599761963,179.21625622849407L636.3893330891926,179.21625622849407L652.2990664164225,179.21625622849407L668.2087997436523,179.21625622849407L684.1185330708822,179.21625622849407L700.0282663981119,179.21625622849407L715.9379997253418,179.21625622849407L731.8477330525717,179.21625622849407L747.7574663798014,179.21625622849407L763.6671997070313,179.21625622849407L779.5769330342611,179.21625622849407L795.486666361491,179.21625622849407L811.3963996887206,179.21625622849407L827.3061330159505,179.21625622849407L843.2158663431803,179.21625622849407L859.1255996704102,179.21625622849407" fill="none"></path></g><g><path style="fill: none;" stroke="rgb(0, 153, 136)" stroke-width="2px" d="M79.54866663614908,407.939994076588L95.45839996337891,343.3808722517055L111.36813329060872,227.17436848627392L127.27786661783854,219.7962515239508L143.18759994506834,200.12113215668398L159.09733327229816,192.12799611282753L175.00706659952797,189.66862379205315L190.91679992675782,188.43886723113005L206.82653325398763,184.74987915050437L222.73626658121745,182.29050682973L238.64599990844727,184.13500087004283L254.55573323567708,183.5201225895813L270.4654665629069,183.5201225895813L286.3751998901367,182.90524430911975L302.28493321736653,182.90524430911975L318.1946665445963,182.90524430911975L334.10439987182616,182.90524430911975L350.01413319905595,182.90524430911975L365.92386652628585,182.90524430911975L381.83359985351564,182.90524430911975L397.7433331807455,182.90524430911975L413.65306650797527,182.90524430911975L429.5627998352051,182.90524430911975L445.4725331624349,182.90524430911975L461.38226648966474,182.90524430911975L477.29199981689453,182.90524430911975L493.2017331441244,182.90524430911975L509.11146647135416,182.90524430911975L525.021199798584,182.90524430911975L540.9309331258138,182.90524430911975L556.8406664530437,182.90524430911975L572.7503997802734,182.90524430911975L588.6601331075033,182.90524430911975L604.5698664347331,182.90524430911975L620.479599761963,182.90524430911975L636.3893330891926,182.90524430911975L652.2990664164225,182.90524430911975L668.2087997436523,182.90524430911975L684.1185330708822,182.90524430911975L700.0282663981119,182.90524430911975L715.9379997253418,182.90524430911975L731.8477330525717,182.90524430911975L747.7574663798014,182.90524430911975L763.6671997070313,182.90524430911975L779.5769330342611,182.90524430911975L795.486666361491,182.90524430911975L811.3963996887206,182.90524430911975L827.3061330159505,182.90524430911975L843.2158663431803,182.90524430911975L859.1255996704102,182.90524430911975" fill="none"></path></g><g><path style="fill: none;" stroke="rgb(255, 112, 67)" stroke-width="2px" d="M79.54866663614908,803.2706833389825L95.45839996337891,341.59650026904256L111.36813329060872,241.49679430876722L127.27786661783854,187.08886655490718L143.18759994506834,140.0763742951992L159.09733327229816,130.5682187189942L175.00706659952797,123.17292402591389L190.91679992675782,124.49349727813481L206.82653325398763,118.94706145859257L222.73626658121745,119.47534707990965L238.64599990844727,115.51362732324688L254.55573323567708,117.62648820637165L270.4654665629069,118.15477382768873L286.3751998901367,119.47534707990965L302.28493321736653,121.32420595344766L318.1946665445963,126.34235615167286L334.10439987182616,116.57005776480926L350.01413319905595,119.47534707990965L365.92386652628585,121.06006314278912L381.83359985351564,121.32420595344766L397.7433331807455,121.32420595344766L413.65306650797527,118.68305944900581L429.5627998352051,126.6064989623314L445.4725331624349,130.30407590833565L461.38226648966474,124.22935446747627L477.29199981689453,119.21120426925111L493.2017331441244,121.58820796303442L509.11146647135416,121.32420595344766L525.021199798584,120.2676347108135L540.9309331258138,123.70120964723097L556.8406664530437,119.7394898905682L572.7503997802734,131.36050634989803L588.6601331075033,121.58820796303442L604.5698664347331,118.41891663834727L620.479599761963,121.58820796303442L636.3893330891926,122.90878121525535L652.2990664164225,120.53177752147204L668.2087997436523,117.3623453957131L684.1185330708822,120.2676347108135L700.0282663981119,121.32420595344766L715.9379997253418,125.02178289945189L731.8477330525717,124.49349727813481L747.7574663798014,124.75764008879335L763.6671997070313,121.85235077369296L779.5769330342611,114.9853417019298L795.486666361491,121.06006314278912L811.3963996887206,121.06006314278912L827.3061330159505,126.07821334101432L843.2158663431803,121.58820796303442L859.1255996704102,122.64477920566858" fill="none"></path></g><g><path style="fill: none;" stroke="rgb(204, 51, 17)" stroke-width="2px" d="M79.54866663614908,666.9869323452814L95.45839996337891,270.2854038480408L111.36813329060872,180.7501431044611L127.27786661783854,121.32420595344766L143.18759994506834,94.12017167598177L159.09733327229816,87.2531626042186L175.00706659952797,77.74500702801359L190.91679992675782,82.76329802731053L206.82653325398763,81.17858196443106L222.73626658121745,79.5938659015516L238.64599990844727,86.7250177839733L254.55573323567708,88.04559103619422L270.4654665629069,83.55558565821437L286.3751998901367,79.5938659015516L302.28493321736653,83.02744083796907L318.1946665445963,79.06558028023451L334.10439987182616,82.23501240599344L350.01413319905595,80.65029634311398L365.92386652628585,75.10386052357174L381.83359985351564,76.95271939710975L397.7433331807455,80.12215152286868L413.65306650797527,81.17858196443106L429.5627998352051,76.95271939710975L445.4725331624349,78.27329264933067L461.38226648966474,83.29144284755583L477.29199981689453,79.32972309089305L493.2017331441244,79.5938659015516L509.11146647135416,85.40444453175238L525.021199798584,80.91443915377252L540.9309331258138,80.12215152286868L556.8406664530437,85.93258935199768L572.7503997802734,73.51928526176405L588.6601331075033,78.00914983867213L604.5698664347331,86.7250177839733L620.479599761963,74.3115728926679L636.3893330891926,74.04743008200936L652.2990664164225,82.76329802731053L668.2087997436523,79.06558028023451L684.1185330708822,81.70686758574814L700.0282663981119,80.12215152286868L715.9379997253418,83.81972846887291L731.8477330525717,84.61201609977675L747.7574663798014,80.38629433352722L763.6671997070313,83.02744083796907L779.5769330342611,79.5938659015516L795.486666361491,76.1604317662059L811.3963996887206,84.08387127953145L827.3061330159505,79.85800871221014L843.2158663431803,80.91443915377252L859.1255996704102,81.17858196443106" fill="none"></path></g><g><path style="fill: none;" stroke="rgb(238, 51, 119)" stroke-width="2px" d="M79.54866663614908,655.6300586966101L95.45839996337891,266.5876861009648L111.36813329060872,164.90326407781L127.27786661783854,122.1164935843515L143.18759994506834,94.3843144866403L159.09733327229816,85.93258935199768L175.00706659952797,81.9708695953349L190.91679992675782,80.38629433352722L206.82653325398763,79.32972309089305L222.73626658121745,80.12215152286868L238.64599990844727,82.76329802731053L254.55573323567708,78.53743545998921L270.4654665629069,84.8761589104353L286.3751998901367,89.89444990973223L302.28493321736653,83.02744083796907L318.1946665445963,73.51928526176405L334.10439987182616,78.27329264933067L350.01413319905595,76.95271939710975L365.92386652628585,79.5938659015516L381.83359985351564,83.55558565821437L397.7433331807455,75.36800333423028L413.65306650797527,79.5938659015516L429.5627998352051,80.91443915377252L445.4725331624349,77.74500702801359L461.38226648966474,79.06558028023451L477.29199981689453,86.19673216265622L493.2017331441244,81.70686758574814L509.11146647135416,79.5938659015516L525.021199798584,80.65029634311398L540.9309331258138,78.00914983867213L556.8406664530437,85.14030172109383L572.7503997802734,86.46087497331476L588.6601331075033,81.70686758574814L604.5698664347331,79.85800871221014L620.479599761963,84.61201609977675L636.3893330891926,76.95271939710975L652.2990664164225,82.76329802731053L668.2087997436523,89.36616428841515L684.1185330708822,79.32972309089305L700.0282663981119,80.91443915377252L715.9379997253418,83.29144284755583L731.8477330525717,79.5938659015516L747.7574663798014,85.93258935199768L763.6671997070313,79.32972309089305L779.5769330342611,79.85800871221014L795.486666361491,86.7250177839733L811.3963996887206,80.12215152286868L827.3061330159505,73.51928526176405L843.2158663431803,76.6885765864512L859.1255996704102,77.74500702801359" fill="none"></path></g></g></g></g></g></g><g transform="translate(51, 377)" clip-path="url(#clip_1)"><clipPath id="clip_1"><rect width="954" height="22"></rect></clipPath><g><g><line x1="0" y1="0" x2="0" y2="5" style="visibility: inherit;" fill="rgb(0, 0, 0)" stroke="rgb(204, 204, 204)" stroke-width="1px"></line><line x1="79.54866663614908" y1="0" x2="79.54866663614908" y2="5" style="visibility: inherit;" fill="rgb(0, 0, 0)" stroke="rgb(204, 204, 204)" stroke-width="1px"></line><line x1="159.09733327229816" y1="0" x2="159.09733327229816" y2="5" style="visibility: inherit;" fill="rgb(0, 0, 0)" stroke="rgb(204, 204, 204)" stroke-width="1px"></line><line x1="238.64599990844727" y1="0" x2="238.64599990844727" y2="5" style="visibility: inherit;" fill="rgb(0, 0, 0)" stroke="rgb(204, 204, 204)" stroke-width="1px"></line><line x1="318.1946665445963" y1="0" x2="318.1946665445963" y2="5" style="visibility: inherit;" fill="rgb(0, 0, 0)" stroke="rgb(204, 204, 204)" stroke-width="1px"></line><line x1="397.7433331807455" y1="0" x2="397.7433331807455" y2="5" style="visibility: inherit;" fill="rgb(0, 0, 0)" stroke="rgb(204, 204, 204)" stroke-width="1px"></line><line x1="477.29199981689453" y1="0" x2="477.29199981689453" y2="5" style="visibility: inherit;" fill="rgb(0, 0, 0)" stroke="rgb(204, 204, 204)" stroke-width="1px"></line><line x1="556.8406664530437" y1="0" x2="556.8406664530437" y2="5" style="visibility: inherit;" fill="rgb(0, 0, 0)" stroke="rgb(204, 204, 204)" stroke-width="1px"></line><line x1="636.3893330891926" y1="0" x2="636.3893330891926" y2="5" style="visibility: inherit;" fill="rgb(0, 0, 0)" stroke="rgb(204, 204, 204)" stroke-width="1px"></line><line x1="715.9379997253418" y1="0" x2="715.9379997253418" y2="5" style="visibility: inherit;" fill="rgb(0, 0, 0)" stroke="rgb(204, 204, 204)" stroke-width="1px"></line><line x1="795.486666361491" y1="0" x2="795.486666361491" y2="5" style="visibility: inherit;" fill="rgb(0, 0, 0)" stroke="rgb(204, 204, 204)" stroke-width="1px"></line><line x1="875.0353329976399" y1="0" x2="875.0353329976399" y2="5" style="visibility: inherit;" fill="rgb(0, 0, 0)" stroke="rgb(204, 204, 204)" stroke-width="1px"></line><line x1="954.5839996337891" y1="0" x2="954.5839996337891" y2="5" style="visibility: inherit;" fill="rgb(0, 0, 0)" stroke="rgb(204, 204, 204)" stroke-width="1px"></line></g><g transform="translate(0, 8)"><text style="text-anchor: middle; visibility: hidden; font-family: Roboto, sans-serif; font-size: 12px; font-weight: 200;" x="0" y="0" dx="0em" dy="0.95em" fill="rgb(50, 49, 63)" stroke="none" stroke-width="1px">-5</text><text style="text-anchor: middle; visibility: inherit; font-family: Roboto, sans-serif; font-size: 12px; font-weight: 200;" x="79.54866663614908" y="0" dx="0em" dy="0.95em" fill="rgb(50, 49, 63)" stroke="none" stroke-width="1px">0</text><text style="text-anchor: middle; visibility: inherit; font-family: Roboto, sans-serif; font-size: 12px; font-weight: 200;" x="159.09733327229816" y="0" dx="0em" dy="0.95em" fill="rgb(50, 49, 63)" stroke="none" stroke-width="1px">5</text><text style="text-anchor: middle; visibility: inherit; font-family: Roboto, sans-serif; font-size: 12px; font-weight: 200;" x="238.64599990844727" y="0" dx="0em" dy="0.95em" fill="rgb(50, 49, 63)" stroke="none" stroke-width="1px">10</text><text style="text-anchor: middle; visibility: inherit; font-family: Roboto, sans-serif; font-size: 12px; font-weight: 200;" x="318.1946665445963" y="0" dx="0em" dy="0.95em" fill="rgb(50, 49, 63)" stroke="none" stroke-width="1px">15</text><text style="text-anchor: middle; visibility: inherit; font-family: Roboto, sans-serif; font-size: 12px; font-weight: 200;" x="397.7433331807455" y="0" dx="0em" dy="0.95em" fill="rgb(50, 49, 63)" stroke="none" stroke-width="1px">20</text><text style="text-anchor: middle; visibility: inherit; font-family: Roboto, sans-serif; font-size: 12px; font-weight: 200;" x="477.29199981689453" y="0" dx="0em" dy="0.95em" fill="rgb(50, 49, 63)" stroke="none" stroke-width="1px">25</text><text style="text-anchor: middle; visibility: inherit; font-family: Roboto, sans-serif; font-size: 12px; font-weight: 200;" x="556.8406664530437" y="0" dx="0em" dy="0.95em" fill="rgb(50, 49, 63)" stroke="none" stroke-width="1px">30</text><text style="text-anchor: middle; visibility: inherit; font-family: Roboto, sans-serif; font-size: 12px; font-weight: 200;" x="636.3893330891926" y="0" dx="0em" dy="0.95em" fill="rgb(50, 49, 63)" stroke="none" stroke-width="1px">35</text><text style="text-anchor: middle; visibility: inherit; font-family: Roboto, sans-serif; font-size: 12px; font-weight: 200;" x="715.9379997253418" y="0" dx="0em" dy="0.95em" fill="rgb(50, 49, 63)" stroke="none" stroke-width="1px">40</text><text style="text-anchor: middle; visibility: inherit; font-family: Roboto, sans-serif; font-size: 12px; font-weight: 200;" x="795.486666361491" y="0" dx="0em" dy="0.95em" fill="rgb(50, 49, 63)" stroke="none" stroke-width="1px">45</text><text style="text-anchor: middle; visibility: inherit; font-family: Roboto, sans-serif; font-size: 12px; font-weight: 200;" x="875.0353329976399" y="0" dx="0em" dy="0.95em" fill="rgb(50, 49, 63)" stroke="none" stroke-width="1px">50</text><text style="text-anchor: middle; visibility: hidden; font-family: Roboto, sans-serif; font-size: 12px; font-weight: 200;" x="954.5839996337891" y="0" dx="0em" dy="0.95em" fill="rgb(50, 49, 63)" stroke="none" stroke-width="1px">55</text></g><line x1="0" y1="0" x2="954.5839996337891" y2="0" fill="rgb(0, 0, 0)" stroke="rgb(204, 204, 204)" stroke-width="1px"></line></g></g></g></g></svg>