<svg viewBox="0 0 1006 400" xmlns="http://www.w3.org/2000/svg"><g><g><g><g><g><line x1="51.41600036621094" y1="377.95999908447266" x2="46.41600036621094" y2="377.95999908447266" style="visibility: inherit;" fill="rgb(0, 0, 0)" stroke="rgb(204, 204, 204)" stroke-width="1px"></line><line x1="51.41600036621094" y1="330.7149991989138" x2="46.41600036621094" y2="330.7149991989138" style="visibility: inherit;" fill="rgb(0, 0, 0)" stroke="rgb(204, 204, 204)" stroke-width="1px"></line><line x1="51.41600036621094" y1="283.4699993133546" x2="46.41600036621094" y2="283.4699993133546" style="visibility: inherit;" fill="rgb(0, 0, 0)" stroke="rgb(204, 204, 204)" stroke-width="1px"></line><line x1="51.41600036621094" y1="236.2249994277955" x2="46.41600036621094" y2="236.2249994277955" style="visibility: inherit;" fill="rgb(0, 0, 0)" stroke="rgb(204, 204, 204)" stroke-width="1px"></line><line x1="51.41600036621094" y1="188.97999954223633" x2="46.41600036621094" y2="188.97999954223633" style="visibility: inherit;" fill="rgb(0, 0, 0)" stroke="rgb(204, 204, 204)" stroke-width="1px"></line><line x1="51.41600036621094" y1="141.73499965667716" x2="46.41600036621094" y2="141.73499965667716" style="visibility: inherit;" fill="rgb(0, 0, 0)" stroke="rgb(204, 204, 204)" stroke-width="1px"></line><line x1="51.41600036621094" y1="94.48999977111804" x2="46.41600036621094" y2="94.48999977111804" style="visibility: inherit;" fill="rgb(0, 0, 0)" stroke="rgb(204, 204, 204)" stroke-width="1px"></line><line x1="51.41600036621094" y1="47.24499988555917" x2="46.41600036621094" y2="47.24499988555917" style="visibility: inherit;" fill="rgb(0, 0, 0)" stroke="rgb(204, 204, 204)" stroke-width="1px"></line><line x1="51.41600036621094" y1="0" x2="46.41600036621094" y2="0" style="visibility: inherit;" fill="rgb(0, 0, 0)" stroke="rgb(204, 204, 204)" stroke-width="1px"></line></g><g transform="translate(41.41600036621094, 0)"><text style="text-anchor: end; visibility: hidden; font-family: Roboto, sans-serif; font-size: 12px; font-weight: 200;" x="0" y="377.95999908447266" dx="0em" dy="0.3em" fill="rgb(50, 49, 63)" stroke="none" stroke-width="1px">0.8</text><text style="text-anchor: end; visibility: inherit; font-family: Roboto, sans-serif; font-size: 12px; font-weight: 200;" x="0" y="330.7149991989138" dx="0em" dy="0.3em" fill="rgb(50, 49, 63)" stroke="none" stroke-width="1px">0.82</text><text style="text-anchor: end; visibility: inherit; font-family: Roboto, sans-serif; font-size: 12px; font-weight: 200;" x="0" y="283.4699993133546" dx="0em" dy="0.3em" fill="rgb(50, 49, 63)" stroke="none" stroke-width="1px">0.84</text><text style="text-anchor: end; visibility: inherit; font-family: Roboto, sans-serif; font-size: 12px; font-weight: 200;" x="0" y="236.2249994277955" dx="0em" dy="0.3em" fill="rgb(50, 49, 63)" stroke="none" stroke-width="1px">0.86</text><text style="text-anchor: end; visibility: inherit; font-family: Roboto, sans-serif; font-size: 12px; font-weight: 200;" x="0" y="188.97999954223633" dx="0em" dy="0.3em" fill="rgb(50, 49, 63)" stroke="none" stroke-width="1px">0.88</text><text style="text-anchor: end; visibility: inherit; font-family: Roboto, sans-serif; font-size: 12px; font-weight: 200;" x="0" y="141.73499965667716" dx="0em" dy="0.3em" fill="rgb(50, 49, 63)" stroke="none" stroke-width="1px">0.9</text><text style="text-anchor: end; visibility: inherit; font-family: Roboto, sans-serif; font-size: 12px; font-weight: 200;" x="0" y="94.48999977111804" dx="0em" dy="0.3em" fill="rgb(50, 49, 63)" stroke="none" stroke-width="1px">0.92</text><text style="text-anchor: end; visibility: inherit; font-family: Roboto, sans-serif; font-size: 12px; font-weight: 200;" x="0" y="47.24499988555917" dx="0em" dy="0.3em" fill="rgb(50, 49, 63)" stroke="none" stroke-width="1px">0.94</text><text style="text-anchor: end; visibility: hidden; font-family: Roboto, sans-serif; font-size: 12px; font-weight: 200;" x="0" y="0" dx="0em" dy="0.3em" fill="rgb(50, 49, 63)" stroke="none" stroke-width="1px">0.96</text></g><line x1="51.41600036621094" y1="0" x2="51.41600036621094" y2="377.95999908447266" fill="rgb(0, 0, 0)" stroke="rgb(204, 204, 204)" stroke-width="1px"></line></g></g><g transform="translate(51, 0)" clip-path="url(#clip_0)"><clipPath id="clip_0"><rect width="954" height="377"></rect></clipPath><g><g><g><line x1="0" y1="0" x2="0" y2="377.95999908447266" fill="rgb(0, 0, 0)" stroke="rgb(60, 60, 60)" stroke-width="1px" opacity="0.25"></line><line x1="79.54866663614908" y1="0" x2="79.54866663614908" y2="377.95999908447266" fill="rgb(0, 0, 0)" stroke="rgb(60, 60, 60)" stroke-width="1px" opacity="0.25"></line><line x1="159.09733327229816" y1="0" x2="159.09733327229816" y2="377.95999908447266" fill="rgb(0, 0, 0)" stroke="rgb(60, 60, 60)" stroke-width="1px" opacity="0.25"></line><line x1="238.64599990844727" y1="0" x2="238.64599990844727" y2="377.95999908447266" fill="rgb(0, 0, 0)" stroke="rgb(60, 60, 60)" stroke-width="1px" opacity="0.25"></line><line x1="318.1946665445963" y1="0" x2="318.1946665445963" y2="377.95999908447266" fill="rgb(0, 0, 0)" stroke="rgb(60, 60, 60)" stroke-width="1px" opacity="0.25"></line><line x1="397.7433331807455" y1="0" x2="397.7433331807455" y2="377.95999908447266" fill="rgb(0, 0, 0)" stroke="rgb(60, 60, 60)" stroke-width="1px" opacity="0.25"></line><line x1="477.29199981689453" y1="0" x2="477.29199981689453" y2="377.95999908447266" fill="rgb(0, 0, 0)" stroke="rgb(60, 60, 60)" stroke-width="1px" opacity="0.25"></line><line x1="556.8406664530437" y1="0" x2="556.8406664530437" y2="377.95999908447266" fill="rgb(0, 0, 0)" stroke="rgb(60, 60, 60)" stroke-width="1px" opacity="0.25"></line><line x1="636.3893330891926" y1="0" x2="636.3893330891926" y2="377.95999908447266" fill="rgb(0, 0, 0)" stroke="rgb(60, 60, 60)" stroke-width="1px" opacity="0.25"></line><line x1="715.9379997253418" y1="0" x2="715.9379997253418" y2="377.95999908447266" fill="rgb(0, 0, 0)" stroke="rgb(60, 60, 60)" stroke-width="1px" opacity="0.25"></line><line x1="795.486666361491" y1="0" x2="795.486666361491" y2="377.95999908447266" fill="rgb(0, 0, 0)" stroke="rgb(60, 60, 60)" stroke-width="1px" opacity="0.25"></line><line x1="875.0353329976399" y1="0" x2="875.0353329976399" y2="377.95999908447266" fill="rgb(0, 0, 0)" stroke="rgb(60, 60, 60)" stroke-width="1px" opacity="0.25"></line><line x1="954.5839996337891" y1="0" x2="954.5839996337891" y2="377.95999908447266" fill="rgb(0, 0, 0)" stroke="rgb(60, 60, 60)" stroke-width="1px" opacity="0.25"></line></g><g><line x1="0" y1="377.95999908447266" x2="954.5839996337891" y2="377.95999908447266" fill="rgb(0, 0, 0)" stroke="rgb(60, 60, 60)" stroke-width="1px" opacity="0.25"></line><line x1="0" y1="330.7149991989138" x2="954.5839996337891" y2="330.7149991989138" fill="rgb(0, 0, 0)" stroke="rgb(60, 60, 60)" stroke-width="1px" opacity="0.25"></line><line x1="0" y1="283.4699993133546" x2="954.5839996337891" y2="283.4699993133546" fill="rgb(0, 0, 0)" stroke="rgb(60, 60, 60)" stroke-width="1px" opacity="0.25"></line><line x1="0" y1="236.2249994277955" x2="954.5839996337891" y2="236.2249994277955" fill="rgb(0, 0, 0)" stroke="rgb(60, 60, 60)" stroke-width="1px" opacity="0.25"></line><line x1="0" y1="188.97999954223633" x2="954.5839996337891" y2="188.97999954223633" fill="rgb(0, 0, 0)" stroke="rgb(60, 60, 60)" stroke-width="1px" opacity="0.25"></line><line x1="0" y1="141.73499965667716" x2="954.5839996337891" y2="141.73499965667716" fill="rgb(0, 0, 0)" stroke="rgb(60, 60, 60)" stroke-width="1px" opacity="0.25"></line><line x1="0" y1="94.48999977111804" x2="954.5839996337891" y2="94.48999977111804" fill="rgb(0, 0, 0)" stroke="rgb(60, 60, 60)" stroke-width="1px" opacity="0.25"></line><line x1="0" y1="47.24499988555917" x2="954.5839996337891" y2="47.24499988555917" fill="rgb(0, 0, 0)" stroke="rgb(60, 60, 60)" stroke-width="1px" opacity="0.25"></line><line x1="0" y1="0" x2="954.5839996337891" y2="0" fill="rgb(0, 0, 0)" stroke="rgb(60, 60, 60)" stroke-width="1px" opacity="0.25"></line></g></g></g><g><g><line x1="0" y1="2267.759994506837" x2="954.5839996337891" y2="2267.759994506837" fill="rgb(0, 0, 0)" stroke="rgb(153, 153, 153)" stroke-width="1.5px"></line></g></g><g><g><line x1="79.54866663614908" y1="0" x2="79.54866663614908" y2="377.95999908447266" fill="rgb(0, 0, 0)" stroke="rgb(153, 153, 153)" stroke-width="1.5px"></line></g></g><g><g><g><g><g><path style="fill: none;" stroke="rgb(0, 119, 187)" stroke-width="2px" d="M79.54866663614908,389.49791475123817L95.45839996337891,273.51091985671104L111.36813329060872,225.53717867996363L127.27786661783854,205.49752533785943L143.18759994506834,190.9232063979524L159.09733327229816,187.886972086097L175.00706659952797,184.24332195058435L190.91679992675782,173.9199281687754L206.82653325398763,170.27627803326277L222.73626658121745,170.27627803326277L238.64599990844727,165.41821865365102L254.55573323567708,169.66900301067733L270.4654665629069,168.45459376657823L286.3751998901367,168.45459376657823L302.28493321736653,165.41821865365102L318.1946665445963,167.8473187439928L334.10439987182616,166.6327686988219L350.01413319905595,166.6327686988219L365.92386652628585,167.24004372140735L381.83359985351564,166.6327686988219L397.7433331807455,167.24004372140735L413.65306650797527,167.24004372140735L429.5627998352051,167.24004372140735L445.4725331624349,167.24004372140735L461.38226648966474,167.24004372140735L477.29199981689453,167.24004372140735L493.2017331441244,167.24004372140735L509.11146647135416,167.24004372140735L525.021199798584,167.24004372140735L540.9309331258138,167.24004372140735L556.8406664530437,167.24004372140735L572.7503997802734,167.24004372140735L588.6601331075033,167.24004372140735L604.5698664347331,167.24004372140735L620.479599761963,167.24004372140735L636.3893330891926,167.24004372140735L652.2990664164225,167.24004372140735L668.2087997436523,167.24004372140735L684.1185330708822,167.24004372140735L700.0282663981119,167.24004372140735L715.9379997253418,167.24004372140735L731.8477330525717,167.24004372140735L747.7574663798014,167.24004372140735L763.6671997070313,167.24004372140735L779.5769330342611,167.24004372140735L795.486666361491,167.24004372140735L811.3963996887206,167.24004372140735L827.3061330159505,167.24004372140735L843.2158663431803,167.24004372140735L859.1255996704102,167.24004372140735" fill="none"></path></g><g><path style="fill: none;" stroke="rgb(51, 187, 238)" stroke-width="2px" d="M79.54866663614908,647.6327436769434L95.45839996337891,370.33587448953625L111.36813329060872,284.25699845600235L127.27786661783854,280.5678695743049L143.18759994506834,257.8184996058022L159.09733327229816,249.21062608255593L175.00706659952797,239.37299599838664L190.91679992675782,243.67700316054564L206.82653325398763,239.98787427884818L222.73626658121745,240.60275255930972L238.64599990844727,238.7581177179251L254.55573323567708,238.7581177179251L270.4654665629069,238.7581177179251L286.3751998901367,238.7581177179251L302.28493321736653,238.7581177179251L318.1946665445963,238.7581177179251L334.10439987182616,238.7581177179251L350.01413319905595,238.7581177179251L365.92386652628585,238.7581177179251L381.83359985351564,238.7581177179251L397.7433331807455,238.7581177179251L413.65306650797527,238.7581177179251L429.5627998352051,238.7581177179251L445.4725331624349,238.7581177179251L461.38226648966474,238.7581177179251L477.29199981689453,238.7581177179251L493.2017331441244,238.7581177179251L509.11146647135416,238.7581177179251L525.021199798584,238.7581177179251L540.9309331258138,238.7581177179251L556.8406664530437,238.7581177179251L572.7503997802734,238.7581177179251L588.6601331075033,238.7581177179251L604.5698664347331,238.7581177179251L620.479599761963,238.7581177179251L636.3893330891926,238.7581177179251L652.2990664164225,238.7581177179251L668.2087997436523,238.7581177179251L684.1185330708822,238.7581177179251L700.0282663981119,238.7581177179251L715.9379997253418,238.7581177179251L731.8477330525717,238.7581177179251L747.7574663798014,238.7581177179251L763.6671997070313,238.7581177179251L779.5769330342611,238.7581177179251L795.486666361491,238.7581177179251L811.3963996887206,238.7581177179251L827.3061330159505,238.7581177179251L843.2158663431803,238.7581177179251L859.1255996704102,238.7581177179251" fill="none"></path></g><g><path style="fill: none;" stroke="rgb(255, 112, 67)" stroke-width="2px" d="M79.54866663614908,493.6826822070553L95.45839996337891,266.114217152913L111.36813329060872,169.98848064254526L127.27786661783854,115.81822509784918L143.18759994506834,99.35463737680341L159.09733327229816,77.58031483037446L175.00706659952797,72.00402918361495L190.91679992675782,64.83443860859741L206.82653325398763,61.11686791040047L222.73626658121745,61.38241873177681L238.64599990844727,57.93039885495621L254.55573323567708,56.07154310532185L270.4654665629069,52.08842158574858L286.3751998901367,57.93039885495621L302.28493321736653,56.602644748074525L318.1946665445963,56.07154310532185L334.10439987182616,57.93039885495621L350.01413319905595,54.47837897813561L365.92386652628585,58.46150049770888L381.83359985351564,55.54044146256918L397.7433331807455,53.947277335382935L413.65306650797527,50.76080827993867L429.5627998352051,51.291909922691346L445.4725331624349,54.47837897813561L461.38226648966474,54.743929799511946L477.29199981689453,49.96415581580966L493.2017331441244,55.0093398198165L509.11146647135416,55.0093398198165L525.021199798584,58.195949676332546L540.9309331258138,48.37085088755164L556.8406664530437,51.5573199429959L572.7503997802734,50.76080827993867L588.6601331075033,55.0093398198165L604.5698664347331,55.0093398198165L620.479599761963,52.08842158574858L636.3893330891926,56.602644748074525L652.2990664164225,53.41617569263026L668.2087997436523,52.61952322850125L684.1185330708822,53.947277335382935L700.0282663981119,53.150624871253925L715.9379997253418,54.743929799511946L731.8477330525717,57.399297212203535L747.7574663798014,57.93039885495621L763.6671997070313,49.698604994433325L779.5769330342611,54.21282815675927L795.486666361491,51.82287076437224L811.3963996887206,53.6817265140066L827.3061330159505,56.602644748074525L843.2158663431803,53.41617569263026L859.1255996704102,53.6817265140066" fill="none"></path></g><g><path style="fill: none;" stroke="rgb(204, 51, 17)" stroke-width="2px" d="M79.54866663614908,710.7984980954949L95.45839996337891,322.81269674248364L111.36813329060872,216.6381285402772L127.27786661783854,165.13563090258936L143.18759994506834,146.38346256083787L159.09733327229816,138.72402505709908L175.00706659952797,134.7623053004363L190.91679992675782,137.93173742619524L206.82653325398763,129.4800122915526L222.73626658121745,127.63129421908639L238.64599990844727,137.1394497952914L254.55573323567708,127.36715140842784L270.4654665629069,132.91358722797008L286.3751998901367,131.32887116509062L302.28493321736653,131.06472835443208L318.1946665445963,131.32887116509062L334.10439987182616,132.91358722797008L350.01413319905595,130.80058554377354L365.92386652628585,130.80058554377354L381.83359985351564,128.68772466064877L397.7433331807455,132.385301606653L413.65306650797527,130.27244072352823L429.5627998352051,131.85701598533592L445.4725331624349,134.49816248977777L461.38226648966474,132.385301606653L477.29199981689453,132.12115879599446L493.2017331441244,135.55473373241193L509.11146647135416,136.08287855265723L525.021199798584,130.536442733115L540.9309331258138,130.536442733115L556.8406664530437,129.74415510221115L572.7503997802734,122.87714603044795L588.6601331075033,133.70587485887393L604.5698664347331,131.06472835443208L620.479599761963,133.97001766953247L636.3893330891926,126.83886578711076L652.2990664164225,134.234160480191L668.2087997436523,131.06472835443208L684.1185330708822,129.74415510221115L700.0282663981119,126.04657815620692L715.9379997253418,127.63129421908639L731.8477330525717,126.31058016579368L747.7574663798014,129.74415510221115L763.6671997070313,124.99000691357271L779.5769330342611,130.536442733115L795.486666361491,127.89529622867315L811.3963996887206,131.59301397574916L827.3061330159505,128.68772466064877L843.2158663431803,125.78243534554834L859.1255996704102,127.63129421908639" fill="none"></path></g></g></g></g></g></g><g transform="translate(51, 377)" clip-path="url(#clip_1)"><clipPath id="clip_1"><rect width="954" height="22"></rect></clipPath><g><g><line x1="0" y1="0" x2="0" y2="5" style="visibility: inherit;" fill="rgb(0, 0, 0)" stroke="rgb(204, 204, 204)" stroke-width="1px"></line><line x1="79.54866663614908" y1="0" x2="79.54866663614908" y2="5" style="visibility: inherit;" fill="rgb(0, 0, 0)" stroke="rgb(204, 204, 204)" stroke-width="1px"></line><line x1="159.09733327229816" y1="0" x2="159.09733327229816" y2="5" style="visibility: inherit;" fill="rgb(0, 0, 0)" stroke="rgb(204, 204, 204)" stroke-width="1px"></line><line x1="238.64599990844727" y1="0" x2="238.64599990844727" y2="5" style="visibility: inherit;" fill="rgb(0, 0, 0)" stroke="rgb(204, 204, 204)" stroke-width="1px"></line><line x1="318.1946665445963" y1="0" x2="318.1946665445963" y2="5" style="visibility: inherit;" fill="rgb(0, 0, 0)" stroke="rgb(204, 204, 204)" stroke-width="1px"></line><line x1="397.7433331807455" y1="0" x2="397.7433331807455" y2="5" style="visibility: inherit;" fill="rgb(0, 0, 0)" stroke="rgb(204, 204, 204)" stroke-width="1px"></line><line x1="477.29199981689453" y1="0" x2="477.29199981689453" y2="5" style="visibility: inherit;" fill="rgb(0, 0, 0)" stroke="rgb(204, 204, 204)" stroke-width="1px"></line><line x1="556.8406664530437" y1="0" x2="556.8406664530437" y2="5" style="visibility: inherit;" fill="rgb(0, 0, 0)" stroke="rgb(204, 204, 204)" stroke-width="1px"></line><line x1="636.3893330891926" y1="0" x2="636.3893330891926" y2="5" style="visibility: inherit;" fill="rgb(0, 0, 0)" stroke="rgb(204, 204, 204)" stroke-width="1px"></line><line x1="715.9379997253418" y1="0" x2="715.9379997253418" y2="5" style="visibility: inherit;" fill="rgb(0, 0, 0)" stroke="rgb(204, 204, 204)" stroke-width="1px"></line><line x1="795.486666361491" y1="0" x2="795.486666361491" y2="5" style="visibility: inherit;" fill="rgb(0, 0, 0)" stroke="rgb(204, 204, 204)" stroke-width="1px"></line><line x1="875.0353329976399" y1="0" x2="875.0353329976399" y2="5" style="visibility: inherit;" fill="rgb(0, 0, 0)" stroke="rgb(204, 204, 204)" stroke-width="1px"></line><line x1="954.5839996337891" y1="0" x2="954.5839996337891" y2="5" style="visibility: inherit;" fill="rgb(0, 0, 0)" stroke="rgb(204, 204, 204)" stroke-width="1px"></line></g><g transform="translate(0, 8)"><text style="text-anchor: middle; visibility: hidden; font-family: Roboto, sans-serif; font-size: 12px; font-weight: 200;" x="0" y="0" dx="0em" dy="0.95em" fill="rgb(50, 49, 63)" stroke="none" stroke-width="1px">-5</text><text style="text-anchor: middle; visibility: inherit; font-family: Roboto, sans-serif; font-size: 12px; font-weight: 200;" x="79.54866663614908" y="0" dx="0em" dy="0.95em" fill="rgb(50, 49, 63)" stroke="none" stroke-width="1px">0</text><text style="text-anchor: middle; visibility: inherit; font-family: Roboto, sans-serif; font-size: 12px; font-weight: 200;" x="159.09733327229816" y="0" dx="0em" dy="0.95em" fill="rgb(50, 49, 63)" stroke="none" stroke-width="1px">5</text><text style="text-anchor: middle; visibility: inherit; font-family: Roboto, sans-serif; font-size: 12px; font-weight: 200;" x="238.64599990844727" y="0" dx="0em" dy="0.95em" fill="rgb(50, 49, 63)" stroke="none" stroke-width="1px">10</text><text style="text-anchor: middle; visibility: inherit; font-family: Roboto, sans-serif; font-size: 12px; font-weight: 200;" x="318.1946665445963" y="0" dx="0em" dy="0.95em" fill="rgb(50, 49, 63)" stroke="none" stroke-width="1px">15</text><text style="text-anchor: middle; visibility: inherit; font-family: Roboto, sans-serif; font-size: 12px; font-weight: 200;" x="397.7433331807455" y="0" dx="0em" dy="0.95em" fill="rgb(50, 49, 63)" stroke="none" stroke-width="1px">20</text><text style="text-anchor: middle; visibility: inherit; font-family: Roboto, sans-serif; font-size: 12px; font-weight: 200;" x="477.29199981689453" y="0" dx="0em" dy="0.95em" fill="rgb(50, 49, 63)" stroke="none" stroke-width="1px">25</text><text style="text-anchor: middle; visibility: inherit; font-family: Roboto, sans-serif; font-size: 12px; font-weight: 200;" x="556.8406664530437" y="0" dx="0em" dy="0.95em" fill="rgb(50, 49, 63)" stroke="none" stroke-width="1px">30</text><text style="text-anchor: middle; visibility: inherit; font-family: Roboto, sans-serif; font-size: 12px; font-weight: 200;" x="636.3893330891926" y="0" dx="0em" dy="0.95em" fill="rgb(50, 49, 63)" stroke="none" stroke-width="1px">35</text><text style="text-anchor: middle; visibility: inherit; font-family: Roboto, sans-serif; font-size: 12px; font-weight: 200;" x="715.9379997253418" y="0" dx="0em" dy="0.95em" fill="rgb(50, 49, 63)" stroke="none" stroke-width="1px">40</text><text style="text-anchor: middle; visibility: inherit; font-family: Roboto, sans-serif; font-size: 12px; font-weight: 200;" x="795.486666361491" y="0" dx="0em" dy="0.95em" fill="rgb(50, 49, 63)" stroke="none" stroke-width="1px">45</text><text style="text-anchor: middle; visibility: inherit; font-family: Roboto, sans-serif; font-size: 12px; font-weight: 200;" x="875.0353329976399" y="0" dx="0em" dy="0.95em" fill="rgb(50, 49, 63)" stroke="none" stroke-width="1px">50</text><text style="text-anchor: middle; visibility: hidden; font-family: Roboto, sans-serif; font-size: 12px; font-weight: 200;" x="954.5839996337891" y="0" dx="0em" dy="0.95em" fill="rgb(50, 49, 63)" stroke="none" stroke-width="1px">55</text></g><line x1="0" y1="0" x2="954.5839996337891" y2="0" fill="rgb(0, 0, 0)" stroke="rgb(204, 204, 204)" stroke-width="1px"></line></g></g></g></g></svg>