<svg viewBox="0 0 1006 400" xmlns="http://www.w3.org/2000/svg"><g><g><g><g><g><line x1="51.41600036621094" y1="377.95999908447266" x2="46.41600036621094" y2="377.95999908447266" style="visibility: inherit;" fill="rgb(0, 0, 0)" stroke="rgb(204, 204, 204)" stroke-width="1px"></line><line x1="51.41600036621094" y1="346.4633324940999" x2="46.41600036621094" y2="346.4633324940999" style="visibility: inherit;" fill="rgb(0, 0, 0)" stroke="rgb(204, 204, 204)" stroke-width="1px"></line><line x1="51.41600036621094" y1="314.9666659037271" x2="46.41600036621094" y2="314.9666659037271" style="visibility: inherit;" fill="rgb(0, 0, 0)" stroke="rgb(204, 204, 204)" stroke-width="1px"></line><line x1="51.41600036621094" y1="283.46999931335444" x2="46.41600036621094" y2="283.46999931335444" style="visibility: inherit;" fill="rgb(0, 0, 0)" stroke="rgb(204, 204, 204)" stroke-width="1px"></line><line x1="51.41600036621094" y1="251.97333272298164" x2="46.41600036621094" y2="251.97333272298164" style="visibility: inherit;" fill="rgb(0, 0, 0)" stroke="rgb(204, 204, 204)" stroke-width="1px"></line><line x1="51.41600036621094" y1="220.4766661326089" x2="46.41600036621094" y2="220.4766661326089" style="visibility: inherit;" fill="rgb(0, 0, 0)" stroke="rgb(204, 204, 204)" stroke-width="1px"></line><line x1="51.41600036621094" y1="188.97999954223616" x2="46.41600036621094" y2="188.97999954223616" style="visibility: inherit;" fill="rgb(0, 0, 0)" stroke="rgb(204, 204, 204)" stroke-width="1px"></line><line x1="51.41600036621094" y1="157.4833329518634" x2="46.41600036621094" y2="157.4833329518634" style="visibility: inherit;" fill="rgb(0, 0, 0)" stroke="rgb(204, 204, 204)" stroke-width="1px"></line><line x1="51.41600036621094" y1="125.98666636149065" x2="46.41600036621094" y2="125.98666636149065" style="visibility: inherit;" fill="rgb(0, 0, 0)" stroke="rgb(204, 204, 204)" stroke-width="1px"></line><line x1="51.41600036621094" y1="94.48999977111791" x2="46.41600036621094" y2="94.48999977111791" style="visibility: inherit;" fill="rgb(0, 0, 0)" stroke="rgb(204, 204, 204)" stroke-width="1px"></line><line x1="51.41600036621094" y1="62.99333318074513" x2="46.41600036621094" y2="62.99333318074513" style="visibility: inherit;" fill="rgb(0, 0, 0)" stroke="rgb(204, 204, 204)" stroke-width="1px"></line><line x1="51.41600036621094" y1="31.496666590372737" x2="46.41600036621094" y2="31.496666590372737" style="visibility: inherit;" fill="rgb(0, 0, 0)" stroke="rgb(204, 204, 204)" stroke-width="1px"></line><line x1="51.41600036621094" y1="0" x2="46.41600036621094" y2="0" style="visibility: inherit;" fill="rgb(0, 0, 0)" stroke="rgb(204, 204, 204)" stroke-width="1px"></line></g><g transform="translate(41.41600036621094, 0)"><text style="text-anchor: end; visibility: hidden; font-family: Roboto, sans-serif; font-size: 12px; font-weight: 200;" x="0" y="377.95999908447266" dx="0em" dy="0.3em" fill="rgb(50, 49, 63)" stroke="none" stroke-width="1px">0.83</text><text style="text-anchor: end; visibility: inherit; font-family: Roboto, sans-serif; font-size: 12px; font-weight: 200;" x="0" y="346.4633324940999" dx="0em" dy="0.3em" fill="rgb(50, 49, 63)" stroke="none" stroke-width="1px">0.84</text><text style="text-anchor: end; visibility: inherit; font-family: Roboto, sans-serif; font-size: 12px; font-weight: 200;" x="0" y="314.9666659037271" dx="0em" dy="0.3em" fill="rgb(50, 49, 63)" stroke="none" stroke-width="1px">0.85</text><text style="text-anchor: end; visibility: inherit; font-family: Roboto, sans-serif; font-size: 12px; font-weight: 200;" x="0" y="283.46999931335444" dx="0em" dy="0.3em" fill="rgb(50, 49, 63)" stroke="none" stroke-width="1px">0.86</text><text style="text-anchor: end; visibility: inherit; font-family: Roboto, sans-serif; font-size: 12px; font-weight: 200;" x="0" y="251.97333272298164" dx="0em" dy="0.3em" fill="rgb(50, 49, 63)" stroke="none" stroke-width="1px">0.87</text><text style="text-anchor: end; visibility: inherit; font-family: Roboto, sans-serif; font-size: 12px; font-weight: 200;" x="0" y="220.4766661326089" dx="0em" dy="0.3em" fill="rgb(50, 49, 63)" stroke="none" stroke-width="1px">0.88</text><text style="text-anchor: end; visibility: inherit; font-family: Roboto, sans-serif; font-size: 12px; font-weight: 200;" x="0" y="188.97999954223616" dx="0em" dy="0.3em" fill="rgb(50, 49, 63)" stroke="none" stroke-width="1px">0.89</text><text style="text-anchor: end; visibility: inherit; font-family: Roboto, sans-serif; font-size: 12px; font-weight: 200;" x="0" y="157.4833329518634" dx="0em" dy="0.3em" fill="rgb(50, 49, 63)" stroke="none" stroke-width="1px">0.9</text><text style="text-anchor: end; visibility: inherit; font-family: Roboto, sans-serif; font-size: 12px; font-weight: 200;" x="0" y="125.98666636149065" dx="0em" dy="0.3em" fill="rgb(50, 49, 63)" stroke="none" stroke-width="1px">0.91</text><text style="text-anchor: end; visibility: inherit; font-family: Roboto, sans-serif; font-size: 12px; font-weight: 200;" x="0" y="94.48999977111791" dx="0em" dy="0.3em" fill="rgb(50, 49, 63)" stroke="none" stroke-width="1px">0.92</text><text style="text-anchor: end; visibility: inherit; font-family: Roboto, sans-serif; font-size: 12px; font-weight: 200;" x="0" y="62.99333318074513" dx="0em" dy="0.3em" fill="rgb(50, 49, 63)" stroke="none" stroke-width="1px">0.93</text><text style="text-anchor: end; visibility: inherit; font-family: Roboto, sans-serif; font-size: 12px; font-weight: 200;" x="0" y="31.496666590372737" dx="0em" dy="0.3em" fill="rgb(50, 49, 63)" stroke="none" stroke-width="1px">0.94</text><text style="text-anchor: end; visibility: hidden; font-family: Roboto, sans-serif; font-size: 12px; font-weight: 200;" x="0" y="0" dx="0em" dy="0.3em" fill="rgb(50, 49, 63)" stroke="none" stroke-width="1px">0.95</text></g><line x1="51.41600036621094" y1="0" x2="51.41600036621094" y2="377.95999908447266" fill="rgb(0, 0, 0)" stroke="rgb(204, 204, 204)" stroke-width="1px"></line></g></g><g transform="translate(51, 0)" clip-path="url(#clip_0)"><clipPath id="clip_0"><rect width="954" height="377"></rect></clipPath><g><g><g><line x1="0" y1="0" x2="0" y2="377.95999908447266" fill="rgb(0, 0, 0)" stroke="rgb(60, 60, 60)" stroke-width="1px" opacity="0.25"></line><line x1="79.54866663614908" y1="0" x2="79.54866663614908" y2="377.95999908447266" fill="rgb(0, 0, 0)" stroke="rgb(60, 60, 60)" stroke-width="1px" opacity="0.25"></line><line x1="159.09733327229816" y1="0" x2="159.09733327229816" y2="377.95999908447266" fill="rgb(0, 0, 0)" stroke="rgb(60, 60, 60)" stroke-width="1px" opacity="0.25"></line><line x1="238.64599990844727" y1="0" x2="238.64599990844727" y2="377.95999908447266" fill="rgb(0, 0, 0)" stroke="rgb(60, 60, 60)" stroke-width="1px" opacity="0.25"></line><line x1="318.1946665445963" y1="0" x2="318.1946665445963" y2="377.95999908447266" fill="rgb(0, 0, 0)" stroke="rgb(60, 60, 60)" stroke-width="1px" opacity="0.25"></line><line x1="397.7433331807455" y1="0" x2="397.7433331807455" y2="377.95999908447266" fill="rgb(0, 0, 0)" stroke="rgb(60, 60, 60)" stroke-width="1px" opacity="0.25"></line><line x1="477.29199981689453" y1="0" x2="477.29199981689453" y2="377.95999908447266" fill="rgb(0, 0, 0)" stroke="rgb(60, 60, 60)" stroke-width="1px" opacity="0.25"></line><line x1="556.8406664530437" y1="0" x2="556.8406664530437" y2="377.95999908447266" fill="rgb(0, 0, 0)" stroke="rgb(60, 60, 60)" stroke-width="1px" opacity="0.25"></line><line x1="636.3893330891926" y1="0" x2="636.3893330891926" y2="377.95999908447266" fill="rgb(0, 0, 0)" stroke="rgb(60, 60, 60)" stroke-width="1px" opacity="0.25"></line><line x1="715.9379997253418" y1="0" x2="715.9379997253418" y2="377.95999908447266" fill="rgb(0, 0, 0)" stroke="rgb(60, 60, 60)" stroke-width="1px" opacity="0.25"></line><line x1="795.486666361491" y1="0" x2="795.486666361491" y2="377.95999908447266" fill="rgb(0, 0, 0)" stroke="rgb(60, 60, 60)" stroke-width="1px" opacity="0.25"></line><line x1="875.0353329976399" y1="0" x2="875.0353329976399" y2="377.95999908447266" fill="rgb(0, 0, 0)" stroke="rgb(60, 60, 60)" stroke-width="1px" opacity="0.25"></line><line x1="954.5839996337891" y1="0" x2="954.5839996337891" y2="377.95999908447266" fill="rgb(0, 0, 0)" stroke="rgb(60, 60, 60)" stroke-width="1px" opacity="0.25"></line></g><g><line x1="0" y1="377.95999908447266" x2="954.5839996337891" y2="377.95999908447266" fill="rgb(0, 0, 0)" stroke="rgb(60, 60, 60)" stroke-width="1px" opacity="0.25"></line><line x1="0" y1="346.4633324940999" x2="954.5839996337891" y2="346.4633324940999" fill="rgb(0, 0, 0)" stroke="rgb(60, 60, 60)" stroke-width="1px" opacity="0.25"></line><line x1="0" y1="314.9666659037271" x2="954.5839996337891" y2="314.9666659037271" fill="rgb(0, 0, 0)" stroke="rgb(60, 60, 60)" stroke-width="1px" opacity="0.25"></line><line x1="0" y1="283.46999931335444" x2="954.5839996337891" y2="283.46999931335444" fill="rgb(0, 0, 0)" stroke="rgb(60, 60, 60)" stroke-width="1px" opacity="0.25"></line><line x1="0" y1="251.97333272298164" x2="954.5839996337891" y2="251.97333272298164" fill="rgb(0, 0, 0)" stroke="rgb(60, 60, 60)" stroke-width="1px" opacity="0.25"></line><line x1="0" y1="220.4766661326089" x2="954.5839996337891" y2="220.4766661326089" fill="rgb(0, 0, 0)" stroke="rgb(60, 60, 60)" stroke-width="1px" opacity="0.25"></line><line x1="0" y1="188.97999954223616" x2="954.5839996337891" y2="188.97999954223616" fill="rgb(0, 0, 0)" stroke="rgb(60, 60, 60)" stroke-width="1px" opacity="0.25"></line><line x1="0" y1="157.4833329518634" x2="954.5839996337891" y2="157.4833329518634" fill="rgb(0, 0, 0)" stroke="rgb(60, 60, 60)" stroke-width="1px" opacity="0.25"></line><line x1="0" y1="125.98666636149065" x2="954.5839996337891" y2="125.98666636149065" fill="rgb(0, 0, 0)" stroke="rgb(60, 60, 60)" stroke-width="1px" opacity="0.25"></line><line x1="0" y1="94.48999977111791" x2="954.5839996337891" y2="94.48999977111791" fill="rgb(0, 0, 0)" stroke="rgb(60, 60, 60)" stroke-width="1px" opacity="0.25"></line><line x1="0" y1="62.99333318074513" x2="954.5839996337891" y2="62.99333318074513" fill="rgb(0, 0, 0)" stroke="rgb(60, 60, 60)" stroke-width="1px" opacity="0.25"></line><line x1="0" y1="31.496666590372737" x2="954.5839996337891" y2="31.496666590372737" fill="rgb(0, 0, 0)" stroke="rgb(60, 60, 60)" stroke-width="1px" opacity="0.25"></line><line x1="0" y1="0" x2="954.5839996337891" y2="0" fill="rgb(0, 0, 0)" stroke="rgb(60, 60, 60)" stroke-width="1px" opacity="0.25"></line></g></g></g><g><g><line x1="0" y1="2992.1833260854087" x2="954.5839996337891" y2="2992.1833260854087" fill="rgb(0, 0, 0)" stroke="rgb(153, 153, 153)" stroke-width="1.5px"></line></g></g><g><g><line x1="79.54866663614908" y1="0" x2="79.54866663614908" y2="377.95999908447266" fill="rgb(0, 0, 0)" stroke="rgb(153, 153, 153)" stroke-width="1.5px"></line></g></g><g><g><g><g><g><path style="fill: none;" stroke="rgb(51, 187, 238)" stroke-width="2px" d="M79.54866663614908,456.5458231794634L95.45839996337891,350.7918277786627L111.36813329060872,270.45167489503143L127.27786661783854,245.037832377862L143.18759994506834,246.67750779242613L159.09733327229816,245.037832377862L175.00706659952797,240.11899386893208L190.91679992675782,242.57850699077824L206.82653325398763,239.29915616165002L222.73626658121745,240.11899386893208L238.64599990844727,240.11899386893208L254.55573323567708,240.11899386893208L270.4654665629069,240.11899386893208L286.3751998901367,240.11899386893208L302.28493321736653,240.11899386893208L318.1946665445963,240.11899386893208L334.10439987182616,240.11899386893208L350.01413319905595,240.11899386893208L365.92386652628585,240.11899386893208L381.83359985351564,240.11899386893208L397.7433331807455,240.11899386893208L413.65306650797527,240.11899386893208L429.5627998352051,240.11899386893208L445.4725331624349,240.11899386893208L461.38226648966474,240.11899386893208L477.29199981689453,240.11899386893208L493.2017331441244,240.11899386893208L509.11146647135416,240.11899386893208L525.021199798584,240.11899386893208L540.9309331258138,240.11899386893208L556.8406664530437,240.11899386893208L572.7503997802734,240.11899386893208L588.6601331075033,240.11899386893208L604.5698664347331,240.11899386893208L620.479599761963,240.11899386893208L636.3893330891926,240.11899386893208L652.2990664164225,240.11899386893208L668.2087997436523,240.11899386893208L684.1185330708822,240.11899386893208L700.0282663981119,240.11899386893208L715.9379997253418,240.11899386893208L731.8477330525717,240.11899386893208L747.7574663798014,240.11899386893208L763.6671997070313,240.11899386893208L779.5769330342611,240.11899386893208L795.486666361491,240.11899386893208L811.3963996887206,240.11899386893208L827.3061330159505,240.11899386893208L843.2158663431803,240.11899386893208L859.1255996704102,240.11899386893208" fill="none"></path></g><g><path style="fill: none;" stroke="rgb(0, 119, 187)" stroke-width="2px" d="M95.45839996337891,381.94415877728176L111.36813329060872,264.7129986788194L127.27786661783854,250.77650859407402L143.18759994506834,240.9388315762141L159.09733327229816,240.11899386893208L175.00706659952797,242.57850699077824L190.91679992675782,237.65966848184829L206.82653325398763,239.29915616165002L222.73626658121745,240.11899386893208L238.64599990844727,240.11899386893208L254.55573323567708,240.11899386893208L270.4654665629069,240.11899386893208L286.3751998901367,240.11899386893208L302.28493321736653,240.11899386893208L318.1946665445963,240.11899386893208L334.10439987182616,240.11899386893208L350.01413319905595,240.11899386893208L365.92386652628585,240.11899386893208L381.83359985351564,240.11899386893208L397.7433331807455,240.11899386893208L413.65306650797527,240.11899386893208L429.5627998352051,240.11899386893208L445.4725331624349,240.11899386893208L461.38226648966474,240.11899386893208L477.29199981689453,240.11899386893208L493.2017331441244,240.11899386893208L509.11146647135416,240.11899386893208L525.021199798584,240.11899386893208L540.9309331258138,240.11899386893208L556.8406664530437,240.11899386893208L572.7503997802734,240.11899386893208L588.6601331075033,240.11899386893208L604.5698664347331,240.11899386893208L620.479599761963,240.11899386893208L636.3893330891926,240.11899386893208L652.2990664164225,240.11899386893208L668.2087997436523,240.11899386893208L684.1185330708822,240.11899386893208L700.0282663981119,240.11899386893208L715.9379997253418,240.11899386893208L731.8477330525717,240.11899386893208L747.7574663798014,240.11899386893208L763.6671997070313,240.11899386893208L779.5769330342611,240.11899386893208L795.486666361491,240.11899386893208L811.3963996887206,240.11899386893208L827.3061330159505,240.11899386893208L843.2158663431803,240.11899386893208L859.1255996704102,240.11899386893208" fill="none"></path></g><g><path style="fill: none;" stroke="rgb(0, 153, 136)" stroke-width="2px" d="M79.54866663614908,529.5079999018434L95.45839996337891,354.07099087302856L111.36813329060872,297.50500509200253L127.27786661783854,256.51499707552364L143.18759994506834,252.41599627387575L159.09733327229816,242.57850699077824L175.00706659952797,247.4971577649458L190.91679992675782,245.037832377862L206.82653325398763,245.037832377862L222.73626658121745,245.037832377862L238.64599990844727,245.037832377862L254.55573323567708,245.037832377862L270.4654665629069,245.037832377862L286.3751998901367,245.037832377862L302.28493321736653,245.037832377862L318.1946665445963,245.037832377862L334.10439987182616,245.037832377862L350.01413319905595,245.037832377862L365.92386652628585,245.037832377862L381.83359985351564,245.037832377862L397.7433331807455,245.037832377862L413.65306650797527,245.037832377862L429.5627998352051,245.037832377862L445.4725331624349,245.037832377862L461.38226648966474,245.037832377862L477.29199981689453,245.037832377862L493.2017331441244,245.037832377862L509.11146647135416,245.037832377862L525.021199798584,245.037832377862L540.9309331258138,245.037832377862L556.8406664530437,245.037832377862L572.7503997802734,245.037832377862L588.6601331075033,245.037832377862L604.5698664347331,245.037832377862L620.479599761963,245.037832377862L636.3893330891926,245.037832377862L652.2990664164225,245.037832377862L668.2087997436523,245.037832377862L684.1185330708822,245.037832377862L700.0282663981119,245.037832377862L715.9379997253418,245.037832377862L731.8477330525717,245.037832377862L747.7574663798014,245.037832377862L763.6671997070313,245.037832377862L779.5769330342611,245.037832377862L795.486666361491,245.037832377862L811.3963996887206,245.037832377862L827.3061330159505,245.037832377862L843.2158663431803,245.037832377862L859.1255996704102,245.037832377862" fill="none"></path></g><g><path style="fill: none;" stroke="rgb(204, 51, 17)" stroke-width="2px" d="M79.54866663614908,658.4577516023787L95.45839996337891,257.0021687838811L111.36813329060872,164.0334739049557L127.27786661783854,112.6189300034395L143.18759994506834,89.72880589684779L159.09733327229816,87.9680415605532L175.00706659952797,83.39012938009228L190.91679992675782,80.57279380116357L206.82653325398763,81.62936504379773L222.73626658121745,78.81202946486898L238.64599990844727,80.92498421537493L254.55573323567708,79.51641029329176L270.4654665629069,73.52973645598529L286.3751998901367,81.27717462958633L302.28493321736653,79.16421987908039L318.1946665445963,76.6992624491254L334.10439987182616,76.6992624491254L350.01413319905595,84.44651288796409L365.92386652628585,86.20727722425863L381.83359985351564,78.46002678541997L397.7433331807455,77.05126512857441L413.65306650797527,78.81202946486898L429.5627998352051,80.22079112171456L445.4725331624349,75.99488162070263L461.38226648966474,87.2638484668928L477.29199981689453,72.82554336232488L493.2017331441244,75.99488162070263L509.11146647135416,77.05126512857441L525.021199798584,76.6992624491254L540.9309331258138,79.51641029329176L556.8406664530437,74.58630769861945L572.7503997802734,82.6857485516695L588.6601331075033,81.9815554580091L604.5698664347331,79.51641029329176L620.479599761963,74.93831037806846L636.3893330891926,84.09432247375268L652.2990664164225,81.62936504379773L668.2087997436523,83.74231979430367L684.1185330708822,80.22079112171456L700.0282663981119,83.74231979430367L715.9379997253418,77.05126512857441L731.8477330525717,79.51641029329176L747.7574663798014,75.99488162070263L763.6671997070313,84.09432247375268L779.5769330342611,80.57279380116357L795.486666361491,77.05126512857441L811.3963996887206,75.64269120649124L827.3061330159505,81.27717462958633L843.2158663431803,82.33355813745811L859.1255996704102,79.16421987908039" fill="none"></path></g><g><path style="fill: none;" stroke="rgb(255, 112, 67)" stroke-width="2px" d="M79.54866663614908,660.5707063528847L95.45839996337891,283.765824242511L111.36813329060872,173.18948600063993L127.27786661783854,108.04083008821623L143.18759994506834,96.41986056257701L159.09733327229816,80.57279380116357L175.00706659952797,78.81202946486898L190.91679992675782,78.81202946486898L206.82653325398763,68.95182427552436L222.73626658121745,76.6992624491254L238.64599990844727,74.58630769861945L254.55573323567708,65.78248601714664L270.4654665629069,72.12116253390211L286.3751998901367,74.58630769861945L302.28493321736653,74.58630769861945L318.1946665445963,81.27717462958633L334.10439987182616,73.8819268701967L350.01413319905595,72.12116253390211L365.92386652628585,75.99488162070263L381.83359985351564,81.9815554580091L397.7433331807455,75.29050079227987L413.65306650797527,74.93831037806846L429.5627998352051,67.8952530328902L445.4725331624349,71.76897211969072L461.38226648966474,75.64269120649124L477.29199981689453,72.12116253390211L493.2017331441244,76.6992624491254L509.11146647135416,73.8819268701967L525.021199798584,75.99488162070263L540.9309331258138,79.16421987908039L556.8406664530437,80.57279380116357L572.7503997802734,80.92498421537493L588.6601331075033,75.29050079227987L604.5698664347331,77.4034555427858L620.479599761963,73.52973645598529L636.3893330891926,80.57279380116357L652.2990664164225,74.58630769861945L668.2087997436523,70.71258861181893L684.1185330708822,73.8819268701967L700.0282663981119,74.93831037806846L715.9379997253418,77.05126512857441L731.8477330525717,85.50308413059825L747.7574663798014,82.33355813745811L763.6671997070313,73.52973645598529L779.5769330342611,74.93831037806846L795.486666361491,74.93831037806846L811.3963996887206,77.05126512857441L827.3061330159505,76.34707203491404L843.2158663431803,83.39012938009228L859.1255996704102,75.99488162070263" fill="none"></path></g><g><path style="fill: none;" stroke="rgb(238, 51, 119)" stroke-width="2px" d="M79.54866663614908,660.9228967670961L95.45839996337891,283.765824242511L111.36813329060872,161.92051915444972L127.27786661783854,114.73188475394545L143.18759994506834,96.06767014836565L159.09733327229816,90.08099631105915L175.00706659952797,79.51641029329176L190.91679992675782,78.81202946486898L206.82653325398763,86.20727722425863L222.73626658121745,70.36039819760754L238.64599990844727,85.85508681004727L254.55573323567708,74.58630769861945L270.4654665629069,86.91165805268143L286.3751998901367,85.50308413059825L302.28493321736653,80.57279380116357L318.1946665445963,75.99488162070263L334.10439987182616,78.81202946486898L350.01413319905595,83.74231979430367L365.92386652628585,79.16421987908039L381.83359985351564,86.20727722425863L397.7433331807455,78.10783637120858L413.65306650797527,74.23411728440806L429.5627998352051,81.9815554580091L445.4725331624349,75.99488162070263L461.38226648966474,76.34707203491404L477.29199981689453,74.58630769861945L493.2017331441244,80.92498421537493L509.11146647135416,84.09432247375268L525.021199798584,81.27717462958633L540.9309331258138,81.9815554580091L556.8406664530437,77.05126512857441L572.7503997802734,80.57279380116357L588.6601331075033,91.48957023314233L604.5698664347331,77.4034555427858L620.479599761963,81.62936504379773L636.3893330891926,75.99488162070263L652.2990664164225,80.92498421537493L668.2087997436523,75.99488162070263L684.1185330708822,79.51641029329176L700.0282663981119,80.92498421537493L715.9379997253418,85.15089371638685L731.8477330525717,76.6992624491254L747.7574663798014,84.09432247375268L763.6671997070313,79.51641029329176L779.5769330342611,80.57279380116357L795.486666361491,81.9815554580091L811.3963996887206,75.29050079227987L827.3061330159505,76.6992624491254L843.2158663431803,81.27717462958633L859.1255996704102,75.99488162070263" fill="none"></path></g></g></g></g></g></g><g transform="translate(51, 377)" clip-path="url(#clip_1)"><clipPath id="clip_1"><rect width="954" height="22"></rect></clipPath><g><g><line x1="0" y1="0" x2="0" y2="5" style="visibility: inherit;" fill="rgb(0, 0, 0)" stroke="rgb(204, 204, 204)" stroke-width="1px"></line><line x1="79.54866663614908" y1="0" x2="79.54866663614908" y2="5" style="visibility: inherit;" fill="rgb(0, 0, 0)" stroke="rgb(204, 204, 204)" stroke-width="1px"></line><line x1="159.09733327229816" y1="0" x2="159.09733327229816" y2="5" style="visibility: inherit;" fill="rgb(0, 0, 0)" stroke="rgb(204, 204, 204)" stroke-width="1px"></line><line x1="238.64599990844727" y1="0" x2="238.64599990844727" y2="5" style="visibility: inherit;" fill="rgb(0, 0, 0)" stroke="rgb(204, 204, 204)" stroke-width="1px"></line><line x1="318.1946665445963" y1="0" x2="318.1946665445963" y2="5" style="visibility: inherit;" fill="rgb(0, 0, 0)" stroke="rgb(204, 204, 204)" stroke-width="1px"></line><line x1="397.7433331807455" y1="0" x2="397.7433331807455" y2="5" style="visibility: inherit;" fill="rgb(0, 0, 0)" stroke="rgb(204, 204, 204)" stroke-width="1px"></line><line x1="477.29199981689453" y1="0" x2="477.29199981689453" y2="5" style="visibility: inherit;" fill="rgb(0, 0, 0)" stroke="rgb(204, 204, 204)" stroke-width="1px"></line><line x1="556.8406664530437" y1="0" x2="556.8406664530437" y2="5" style="visibility: inherit;" fill="rgb(0, 0, 0)" stroke="rgb(204, 204, 204)" stroke-width="1px"></line><line x1="636.3893330891926" y1="0" x2="636.3893330891926" y2="5" style="visibility: inherit;" fill="rgb(0, 0, 0)" stroke="rgb(204, 204, 204)" stroke-width="1px"></line><line x1="715.9379997253418" y1="0" x2="715.9379997253418" y2="5" style="visibility: inherit;" fill="rgb(0, 0, 0)" stroke="rgb(204, 204, 204)" stroke-width="1px"></line><line x1="795.486666361491" y1="0" x2="795.486666361491" y2="5" style="visibility: inherit;" fill="rgb(0, 0, 0)" stroke="rgb(204, 204, 204)" stroke-width="1px"></line><line x1="875.0353329976399" y1="0" x2="875.0353329976399" y2="5" style="visibility: inherit;" fill="rgb(0, 0, 0)" stroke="rgb(204, 204, 204)" stroke-width="1px"></line><line x1="954.5839996337891" y1="0" x2="954.5839996337891" y2="5" style="visibility: inherit;" fill="rgb(0, 0, 0)" stroke="rgb(204, 204, 204)" stroke-width="1px"></line></g><g transform="translate(0, 8)"><text style="text-anchor: middle; visibility: hidden; font-family: Roboto, sans-serif; font-size: 12px; font-weight: 200;" x="0" y="0" dx="0em" dy="0.95em" fill="rgb(50, 49, 63)" stroke="none" stroke-width="1px">-5</text><text style="text-anchor: middle; visibility: inherit; font-family: Roboto, sans-serif; font-size: 12px; font-weight: 200;" x="79.54866663614908" y="0" dx="0em" dy="0.95em" fill="rgb(50, 49, 63)" stroke="none" stroke-width="1px">0</text><text style="text-anchor: middle; visibility: inherit; font-family: Roboto, sans-serif; font-size: 12px; font-weight: 200;" x="159.09733327229816" y="0" dx="0em" dy="0.95em" fill="rgb(50, 49, 63)" stroke="none" stroke-width="1px">5</text><text style="text-anchor: middle; visibility: inherit; font-family: Roboto, sans-serif; font-size: 12px; font-weight: 200;" x="238.64599990844727" y="0" dx="0em" dy="0.95em" fill="rgb(50, 49, 63)" stroke="none" stroke-width="1px">10</text><text style="text-anchor: middle; visibility: inherit; font-family: Roboto, sans-serif; font-size: 12px; font-weight: 200;" x="318.1946665445963" y="0" dx="0em" dy="0.95em" fill="rgb(50, 49, 63)" stroke="none" stroke-width="1px">15</text><text style="text-anchor: middle; visibility: inherit; font-family: Roboto, sans-serif; font-size: 12px; font-weight: 200;" x="397.7433331807455" y="0" dx="0em" dy="0.95em" fill="rgb(50, 49, 63)" stroke="none" stroke-width="1px">20</text><text style="text-anchor: middle; visibility: inherit; font-family: Roboto, sans-serif; font-size: 12px; font-weight: 200;" x="477.29199981689453" y="0" dx="0em" dy="0.95em" fill="rgb(50, 49, 63)" stroke="none" stroke-width="1px">25</text><text style="text-anchor: middle; visibility: inherit; font-family: Roboto, sans-serif; font-size: 12px; font-weight: 200;" x="556.8406664530437" y="0" dx="0em" dy="0.95em" fill="rgb(50, 49, 63)" stroke="none" stroke-width="1px">30</text><text style="text-anchor: middle; visibility: inherit; font-family: Roboto, sans-serif; font-size: 12px; font-weight: 200;" x="636.3893330891926" y="0" dx="0em" dy="0.95em" fill="rgb(50, 49, 63)" stroke="none" stroke-width="1px">35</text><text style="text-anchor: middle; visibility: inherit; font-family: Roboto, sans-serif; font-size: 12px; font-weight: 200;" x="715.9379997253418" y="0" dx="0em" dy="0.95em" fill="rgb(50, 49, 63)" stroke="none" stroke-width="1px">40</text><text style="text-anchor: middle; visibility: inherit; font-family: Roboto, sans-serif; font-size: 12px; font-weight: 200;" x="795.486666361491" y="0" dx="0em" dy="0.95em" fill="rgb(50, 49, 63)" stroke="none" stroke-width="1px">45</text><text style="text-anchor: middle; visibility: inherit; font-family: Roboto, sans-serif; font-size: 12px; font-weight: 200;" x="875.0353329976399" y="0" dx="0em" dy="0.95em" fill="rgb(50, 49, 63)" stroke="none" stroke-width="1px">50</text><text style="text-anchor: middle; visibility: hidden; font-family: Roboto, sans-serif; font-size: 12px; font-weight: 200;" x="954.5839996337891" y="0" dx="0em" dy="0.95em" fill="rgb(50, 49, 63)" stroke="none" stroke-width="1px">55</text></g><line x1="0" y1="0" x2="954.5839996337891" y2="0" fill="rgb(0, 0, 0)" stroke="rgb(204, 204, 204)" stroke-width="1px"></line></g></g></g></g></svg>