<svg viewBox="0 0 1006 400" xmlns="http://www.w3.org/2000/svg"><g><g><g><g><g><line x1="51.41600036621094" y1="377.95999908447266" x2="46.41600036621094" y2="377.95999908447266" style="visibility: inherit;" fill="rgb(0, 0, 0)" stroke="rgb(204, 204, 204)" stroke-width="1px"></line><line x1="51.41600036621094" y1="335.96444363064234" x2="46.41600036621094" y2="335.96444363064234" style="visibility: inherit;" fill="rgb(0, 0, 0)" stroke="rgb(204, 204, 204)" stroke-width="1px"></line><line x1="51.41600036621094" y1="293.9688881768121" x2="46.41600036621094" y2="293.9688881768121" style="visibility: inherit;" fill="rgb(0, 0, 0)" stroke="rgb(204, 204, 204)" stroke-width="1px"></line><line x1="51.41600036621094" y1="251.9733327229818" x2="46.41600036621094" y2="251.9733327229818" style="visibility: inherit;" fill="rgb(0, 0, 0)" stroke="rgb(204, 204, 204)" stroke-width="1px"></line><line x1="51.41600036621094" y1="209.9777772691515" x2="46.41600036621094" y2="209.9777772691515" style="visibility: inherit;" fill="rgb(0, 0, 0)" stroke="rgb(204, 204, 204)" stroke-width="1px"></line><line x1="51.41600036621094" y1="167.98222181532117" x2="46.41600036621094" y2="167.98222181532117" style="visibility: inherit;" fill="rgb(0, 0, 0)" stroke="rgb(204, 204, 204)" stroke-width="1px"></line><line x1="51.41600036621094" y1="125.9866663614909" x2="46.41600036621094" y2="125.9866663614909" style="visibility: inherit;" fill="rgb(0, 0, 0)" stroke="rgb(204, 204, 204)" stroke-width="1px"></line><line x1="51.41600036621094" y1="83.99111090766058" x2="46.41600036621094" y2="83.99111090766058" style="visibility: inherit;" fill="rgb(0, 0, 0)" stroke="rgb(204, 204, 204)" stroke-width="1px"></line><line x1="51.41600036621094" y1="41.99555545383031" x2="46.41600036621094" y2="41.99555545383031" style="visibility: inherit;" fill="rgb(0, 0, 0)" stroke="rgb(204, 204, 204)" stroke-width="1px"></line><line x1="51.41600036621094" y1="0" x2="46.41600036621094" y2="0" style="visibility: inherit;" fill="rgb(0, 0, 0)" stroke="rgb(204, 204, 204)" stroke-width="1px"></line></g><g transform="translate(41.41600036621094, 0)"><text style="text-anchor: end; visibility: hidden; font-family: Roboto, sans-serif; font-size: 12px; font-weight: 200;" x="0" y="377.95999908447266" dx="0em" dy="0.3em" fill="rgb(50, 49, 63)" stroke="none" stroke-width="1px">-0.5</text><text style="text-anchor: end; visibility: inherit; font-family: Roboto, sans-serif; font-size: 12px; font-weight: 200;" x="0" y="335.96444363064234" dx="0em" dy="0.3em" fill="rgb(50, 49, 63)" stroke="none" stroke-width="1px">0</text><text style="text-anchor: end; visibility: inherit; font-family: Roboto, sans-serif; font-size: 12px; font-weight: 200;" x="0" y="293.9688881768121" dx="0em" dy="0.3em" fill="rgb(50, 49, 63)" stroke="none" stroke-width="1px">0.5</text><text style="text-anchor: end; visibility: inherit; font-family: Roboto, sans-serif; font-size: 12px; font-weight: 200;" x="0" y="251.9733327229818" dx="0em" dy="0.3em" fill="rgb(50, 49, 63)" stroke="none" stroke-width="1px">1</text><text style="text-anchor: end; visibility: inherit; font-family: Roboto, sans-serif; font-size: 12px; font-weight: 200;" x="0" y="209.9777772691515" dx="0em" dy="0.3em" fill="rgb(50, 49, 63)" stroke="none" stroke-width="1px">1.5</text><text style="text-anchor: end; visibility: inherit; font-family: Roboto, sans-serif; font-size: 12px; font-weight: 200;" x="0" y="167.98222181532117" dx="0em" dy="0.3em" fill="rgb(50, 49, 63)" stroke="none" stroke-width="1px">2</text><text style="text-anchor: end; visibility: inherit; font-family: Roboto, sans-serif; font-size: 12px; font-weight: 200;" x="0" y="125.9866663614909" dx="0em" dy="0.3em" fill="rgb(50, 49, 63)" stroke="none" stroke-width="1px">2.5</text><text style="text-anchor: end; visibility: inherit; font-family: Roboto, sans-serif; font-size: 12px; font-weight: 200;" x="0" y="83.99111090766058" dx="0em" dy="0.3em" fill="rgb(50, 49, 63)" stroke="none" stroke-width="1px">3</text><text style="text-anchor: end; visibility: inherit; font-family: Roboto, sans-serif; font-size: 12px; font-weight: 200;" x="0" y="41.99555545383031" dx="0em" dy="0.3em" fill="rgb(50, 49, 63)" stroke="none" stroke-width="1px">3.5</text><text style="text-anchor: end; visibility: hidden; font-family: Roboto, sans-serif; font-size: 12px; font-weight: 200;" x="0" y="0" dx="0em" dy="0.3em" fill="rgb(50, 49, 63)" stroke="none" stroke-width="1px">4</text></g><line x1="51.41600036621094" y1="0" x2="51.41600036621094" y2="377.95999908447266" fill="rgb(0, 0, 0)" stroke="rgb(204, 204, 204)" stroke-width="1px"></line></g></g><g transform="translate(51, 0)" clip-path="url(#clip_0)"><clipPath id="clip_0"><rect width="954" height="377"></rect></clipPath><g><g><g><line x1="0" y1="0" x2="0" y2="377.95999908447266" fill="rgb(0, 0, 0)" stroke="rgb(60, 60, 60)" stroke-width="1px" opacity="0.25"></line><line x1="79.54866663614908" y1="0" x2="79.54866663614908" y2="377.95999908447266" fill="rgb(0, 0, 0)" stroke="rgb(60, 60, 60)" stroke-width="1px" opacity="0.25"></line><line x1="159.09733327229816" y1="0" x2="159.09733327229816" y2="377.95999908447266" fill="rgb(0, 0, 0)" stroke="rgb(60, 60, 60)" stroke-width="1px" opacity="0.25"></line><line x1="238.64599990844727" y1="0" x2="238.64599990844727" y2="377.95999908447266" fill="rgb(0, 0, 0)" stroke="rgb(60, 60, 60)" stroke-width="1px" opacity="0.25"></line><line x1="318.1946665445963" y1="0" x2="318.1946665445963" y2="377.95999908447266" fill="rgb(0, 0, 0)" stroke="rgb(60, 60, 60)" stroke-width="1px" opacity="0.25"></line><line x1="397.7433331807455" y1="0" x2="397.7433331807455" y2="377.95999908447266" fill="rgb(0, 0, 0)" stroke="rgb(60, 60, 60)" stroke-width="1px" opacity="0.25"></line><line x1="477.29199981689453" y1="0" x2="477.29199981689453" y2="377.95999908447266" fill="rgb(0, 0, 0)" stroke="rgb(60, 60, 60)" stroke-width="1px" opacity="0.25"></line><line x1="556.8406664530437" y1="0" x2="556.8406664530437" y2="377.95999908447266" fill="rgb(0, 0, 0)" stroke="rgb(60, 60, 60)" stroke-width="1px" opacity="0.25"></line><line x1="636.3893330891926" y1="0" x2="636.3893330891926" y2="377.95999908447266" fill="rgb(0, 0, 0)" stroke="rgb(60, 60, 60)" stroke-width="1px" opacity="0.25"></line><line x1="715.9379997253418" y1="0" x2="715.9379997253418" y2="377.95999908447266" fill="rgb(0, 0, 0)" stroke="rgb(60, 60, 60)" stroke-width="1px" opacity="0.25"></line><line x1="795.486666361491" y1="0" x2="795.486666361491" y2="377.95999908447266" fill="rgb(0, 0, 0)" stroke="rgb(60, 60, 60)" stroke-width="1px" opacity="0.25"></line><line x1="875.0353329976399" y1="0" x2="875.0353329976399" y2="377.95999908447266" fill="rgb(0, 0, 0)" stroke="rgb(60, 60, 60)" stroke-width="1px" opacity="0.25"></line><line x1="954.5839996337891" y1="0" x2="954.5839996337891" y2="377.95999908447266" fill="rgb(0, 0, 0)" stroke="rgb(60, 60, 60)" stroke-width="1px" opacity="0.25"></line></g><g><line x1="0" y1="377.95999908447266" x2="954.5839996337891" y2="377.95999908447266" fill="rgb(0, 0, 0)" stroke="rgb(60, 60, 60)" stroke-width="1px" opacity="0.25"></line><line x1="0" y1="335.96444363064234" x2="954.5839996337891" y2="335.96444363064234" fill="rgb(0, 0, 0)" stroke="rgb(60, 60, 60)" stroke-width="1px" opacity="0.25"></line><line x1="0" y1="293.9688881768121" x2="954.5839996337891" y2="293.9688881768121" fill="rgb(0, 0, 0)" stroke="rgb(60, 60, 60)" stroke-width="1px" opacity="0.25"></line><line x1="0" y1="251.9733327229818" x2="954.5839996337891" y2="251.9733327229818" fill="rgb(0, 0, 0)" stroke="rgb(60, 60, 60)" stroke-width="1px" opacity="0.25"></line><line x1="0" y1="209.9777772691515" x2="954.5839996337891" y2="209.9777772691515" fill="rgb(0, 0, 0)" stroke="rgb(60, 60, 60)" stroke-width="1px" opacity="0.25"></line><line x1="0" y1="167.98222181532117" x2="954.5839996337891" y2="167.98222181532117" fill="rgb(0, 0, 0)" stroke="rgb(60, 60, 60)" stroke-width="1px" opacity="0.25"></line><line x1="0" y1="125.9866663614909" x2="954.5839996337891" y2="125.9866663614909" fill="rgb(0, 0, 0)" stroke="rgb(60, 60, 60)" stroke-width="1px" opacity="0.25"></line><line x1="0" y1="83.99111090766058" x2="954.5839996337891" y2="83.99111090766058" fill="rgb(0, 0, 0)" stroke="rgb(60, 60, 60)" stroke-width="1px" opacity="0.25"></line><line x1="0" y1="41.99555545383031" x2="954.5839996337891" y2="41.99555545383031" fill="rgb(0, 0, 0)" stroke="rgb(60, 60, 60)" stroke-width="1px" opacity="0.25"></line><line x1="0" y1="0" x2="954.5839996337891" y2="0" fill="rgb(0, 0, 0)" stroke="rgb(60, 60, 60)" stroke-width="1px" opacity="0.25"></line></g></g></g><g><g><line x1="0" y1="335.96444363064234" x2="954.5839996337891" y2="335.96444363064234" fill="rgb(0, 0, 0)" stroke="rgb(153, 153, 153)" stroke-width="1.5px"></line></g></g><g><g><line x1="79.54866663614908" y1="0" x2="79.54866663614908" y2="377.95999908447266" fill="rgb(0, 0, 0)" stroke="rgb(153, 153, 153)" stroke-width="1.5px"></line></g></g><g><g><g><g><g><path style="fill: none;" stroke="rgb(0, 153, 136)" stroke-width="2px" d="M95.45839996337891,-106.20036358433892L111.36813329060872,10.735044175741567L127.27786661783854,37.3935806830935L143.18759994506834,71.58297452965257L159.09733327229816,48.75468775065627L175.00706659952797,79.64227268424696L190.91679992675782,82.87821923631458L206.82653325398763,57.97984381088747L222.73626658121745,67.97422178333483L238.64599990844727,65.4995071519968L254.55573323567708,75.42782251313031L270.4654665629069,71.16168771036729L286.3751998901367,65.02070841404122L302.28493321736653,55.30632056932678L318.1946665445963,65.40096392366223L334.10439987182616,47.342521836786325L350.01413319905595,66.97699475065178L365.92386652628585,73.78120341548856L381.83359985351564,77.61195376987718L397.7433331807455,62.1321562787889L413.65306650797527,78.72382416411591L429.5627998352051,68.5415312039238L445.4725331624349,76.7356379366829L461.38226648966474,69.58962184155905L477.29199981689453,64.85283849265761L493.2017331441244,72.19027395775709L509.11146647135416,73.1294283706128L525.021199798584,73.83751383167976L540.9309331258138,81.80758040215329L556.8406664530437,82.01808363650667L572.7503997802734,63.21252728303159L588.6601331075033,67.24509000384086L604.5698664347331,62.74550326937202L620.479599761963,44.00909338357411L636.3893330891926,70.27001267048075L652.2990664164225,72.4013178682261L668.2087997436523,44.26415233486398L684.1185330708822,67.2565243024344L700.0282663981119,57.79473232892753L715.9379997253418,66.52751267318831L731.8477330525717,61.87265176832603L747.7574663798014,69.88324902243079L763.6671997070313,62.30268953066803L779.5769330342611,67.03438651907425L795.486666361491,80.05460831006229L811.3963996887206,75.98688161669554L827.3061330159505,50.71515932090267L843.2158663431803,73.75535108714473L859.1255996704102,55.68385267332837" fill="none"></path></g><g><path style="fill: none;" stroke="rgb(51, 187, 238)" stroke-width="2px" d="M79.54866663614908,-53.80804697778193L95.45839996337891,148.2288602311403L111.36813329060872,189.79244550614123L127.27786661783854,187.7584219591273L143.18759994506834,200.05589995880234L159.09733327229816,200.8272144878364L175.00706659952797,197.8854558177975L190.91679992675782,198.44089038888382L206.82653325398763,198.4426926426026L222.73626658121745,198.51389167701507L238.64599990844727,196.91009613023562L254.55573323567708,196.60692701717505L270.4654665629069,207.79228430959483L286.3751998901367,208.68368901142355L302.28493321736653,206.57587318714627L318.1946665445963,206.88426883599135L334.10439987182616,209.01045763567947L350.01413319905595,203.7998317465491L365.92386652628585,197.37313516067258L381.83359985351564,201.06709445780587L397.7433331807455,203.5976689419054L413.65306650797527,203.87147133187057L429.5627998352051,204.76785225646722L445.4725331624349,198.06062486674216L461.38226648966474,206.64022365742733L477.29199981689453,203.88530863542252L493.2017331441244,209.8991088943268L509.11146647135416,199.05622987107824L525.021199798584,203.68695058862954L540.9309331258138,203.38909812403938L556.8406664530437,205.5062255925303L572.7503997802734,205.03147191292135L588.6601331075033,202.3492978535105L604.5698664347331,200.82310935436584L620.479599761963,202.07835904445403L636.3893330891926,202.72740067118968L652.2990664164225,204.70098864350052L668.2087997436523,199.39922879132388L684.1185330708822,205.84417820236337L700.0282663981119,205.4037374310558L715.9379997253418,205.37721426382774L731.8477330525717,203.98722608321947L747.7574663798014,205.9650693768108L763.6671997070313,205.1048036142343L779.5769330342611,201.18329977258452L795.486666361491,197.43104758016932L811.3963996887206,204.55072073343706L827.3061330159505,211.56663413510637L843.2158663431803,206.64016358230344L859.1255996704102,205.3498099947816" fill="none"></path></g><g><path style="fill: none;" stroke="rgb(0, 119, 187)" stroke-width="2px" d="M79.54866663614908,-5.696123003407482L95.45839996337891,129.63044290507685L111.36813329060872,178.67035733177119L127.27786661783854,204.30876817169099L143.18759994506834,200.33587006149395L159.09733327229816,210.6434396801825L175.00706659952797,206.57130747772538L190.91679992675782,206.77278943096422L206.82653325398763,205.0114268465602L222.73626658121745,213.98927364649228L238.64599990844727,207.85566356537186L254.55573323567708,209.2189783909422L270.4654665629069,208.18300290330546L286.3751998901367,204.96274597111187L302.28493321736653,214.50886339361625L318.1946665445963,210.97047864249623L334.10439987182616,206.58756781127704L350.01413319905595,207.03113248903048L365.92386652628585,204.14189950237335L381.83359985351564,209.10691825971685L397.7433331807455,208.41482279414373L413.65306650797527,207.53474225318132L429.5627998352051,208.17397160967028L445.4725331624349,205.78155989815644L461.38226648966474,211.94514746613254L477.29199981689453,209.2559946798218L493.2017331441244,206.42830865766098L509.11146647135416,213.51117578498292L525.021199798584,213.43826460953767L540.9309331258138,210.24611282283638L556.8406664530437,207.1901012795475L572.7503997802734,211.79002348354902L588.6601331075033,203.6354161447931L604.5698664347331,205.12665093431417L620.479599761963,205.89960751673647L636.3893330891926,212.33118020017434L652.2990664164225,201.90971815897967L668.2087997436523,205.22429303578934L684.1185330708822,209.62725894589028L700.0282663981119,208.7765751655853L715.9379997253418,213.57556630534657L731.8477330525717,209.98569717299347L747.7574663798014,207.61991876643492L763.6671997070313,205.26715663673428L779.5769330342611,209.17561416396427L795.486666361491,208.82178169636467L811.3963996887206,208.9031134016849L827.3061330159505,205.44059351960482L843.2158663431803,206.75071182290918L859.1255996704102,205.20422794438696" fill="none"></path></g><g><path style="fill: none;" stroke="rgb(238, 51, 119)" stroke-width="2px" d="M95.45839996337891,-73.8323273459779L111.36813329060872,80.05052320163304L127.27786661783854,116.9874328174293L143.18759994506834,147.9059163897764L159.09733327229816,149.77665574986895L175.00706659952797,153.84254013943428L190.91679992675782,164.50667564386254L206.82653325398763,163.84238494816196L222.73626658121745,156.8441336329367L238.64599990844727,166.6333150069804L254.55573323567708,160.51548465841995L270.4654665629069,166.2441483539721L286.3751998901367,161.4975126847413L302.28493321736653,153.92558398578734L318.1946665445963,149.88679347712764L334.10439987182616,157.2137358205756L350.01413319905595,168.72276786836744L365.92386652628585,162.76910280854645L381.83359985351564,160.10403013442271L397.7433331807455,164.87888108687304L413.65306650797527,157.0840937030714L429.5627998352051,160.82286904267835L445.4725331624349,160.07132924194752L461.38226648966474,164.92670088554468L477.29199981689453,167.73058714609698L493.2017331441244,157.6349024896129L509.11146647135416,162.0144991764937L525.021199798584,164.08819233036206L540.9309331258138,155.25272357421352L556.8406664530437,163.12370624023686L572.7503997802734,155.87700423735726L588.6601331075033,164.60473827120546L604.5698664347331,157.1510173911621L620.479599761963,167.04474950593635L636.3893330891926,153.02117301962141L652.2990664164225,160.03244061170454L668.2087997436523,158.89746131978285L684.1185330708822,162.8884320297709L700.0282663981119,149.5337519986602L715.9379997253418,160.52499655304683L731.8477330525717,159.54787466184888L747.7574663798014,169.7268534777025L763.6671997070313,156.10150497559312L779.5769330342611,156.8762738242549L795.486666361491,154.50721131091996L811.3963996887206,163.9863850202924L827.3061330159505,162.21899489845117L843.2158663431803,165.1604531928703L859.1255996704102,159.44893093268792" fill="none"></path></g><g><path style="fill: none;" stroke="rgb(204, 51, 17)" stroke-width="2px" d="M79.54866663614908,-84.39461549025386L95.45839996337891,174.1585853596593L111.36813329060872,260.40556222833453L127.27786661783854,288.27559371049097L143.18759994506834,293.4621094498724L159.09733327229816,301.1736577431681L175.00706659952797,299.11883568761345L190.91679992675782,302.3595682245565L206.82653325398763,300.97541233723257L222.73626658121745,300.6633020432227L238.64599990844727,301.7801511633595L254.55573323567708,300.45504912288766L270.4654665629069,301.76247155500437L286.3751998901367,297.8140215171286L302.28493321736653,299.23437516976816L318.1946665445963,301.48234876137263L334.10439987182616,299.06529123025456L350.01413319905595,302.913974009145L365.92386652628585,302.5111903280392L381.83359985351564,300.7073270965642L397.7433331807455,299.9935495175021L413.65306650797527,301.7029796603735L429.5627998352051,301.73773812584426L445.4725331624349,297.2639311289445L461.38226648966474,301.5906792286522L477.29199981689453,299.4067507254487L493.2017331441244,300.1640702537304L509.11146647135416,301.47809594322234L525.021199798584,305.469712460793L540.9309331258138,301.20048879540644L556.8406664530437,301.2570194870521L572.7503997802734,300.6008339268257L588.6601331075033,300.52844840871506L604.5698664347331,304.39650291195227L620.479599761963,299.8343729671815L636.3893330891926,301.0223535372163L652.2990664164225,299.0496316479425L668.2087997436523,298.8271309107084L684.1185330708822,300.4756248528437L700.0282663981119,299.45229768193053L715.9379997253418,299.2254890576825L731.8477330525717,300.7141906794766L747.7574663798014,303.0869903661478L763.6671997070313,301.8781487093181L779.5769330342611,299.07693328865184L795.486666361491,302.9553307257307L811.3963996887206,301.93497977658365L827.3061330159505,303.95370669515944L843.2158663431803,300.71840845380456L859.1255996704102,304.4227982943353" fill="none"></path></g><g><path style="fill: none;" stroke="rgb(255, 112, 67)" stroke-width="2px" d="M79.54866663614908,-68.12342836620839L95.45839996337891,189.10174178093985L111.36813329060872,270.19273108572565L127.27786661783854,293.40238476413623L143.18759994506834,304.5890737218038L159.09733327229816,309.18001219164324L175.00706659952797,313.1872332226623L190.91679992675782,307.30638922560064L206.82653325398763,312.3631351878395L222.73626658121745,310.35215545712424L238.64599990844727,310.01653576460495L254.55573323567708,311.7443689204492L270.4654665629069,312.37920528349855L286.3751998901367,309.94234048338507L302.28493321736653,310.7959754541546L318.1946665445963,310.0615345355807L334.10439987182616,313.9889282425086L350.01413319905595,310.6906787806349L365.92386652628585,310.1751340918575L381.83359985351564,306.7387193542679L397.7433331807455,308.7060219667345L413.65306650797527,308.3765124149479L429.5627998352051,311.01108695114164L445.4725331624349,311.76015616239965L461.38226648966474,310.9780706642657L477.29199981689453,313.888988267542L493.2017331441244,309.53179960189806L509.11146647135416,312.08830901763685L525.021199798584,313.48650996831634L540.9309331258138,312.9288676364245L556.8406664530437,310.641352097604L572.7503997802734,308.9369131962816L588.6601331075033,311.058538789679L604.5698664347331,310.882621304815L620.479599761963,308.48270520906664L636.3893330891926,311.94626138703507L652.2990664164225,312.5879688423873L668.2087997436523,309.9490488722272L684.1185330708822,308.85788937697345L700.0282663981119,309.8422002580053L715.9379997253418,311.7291148452239L731.8477330525717,311.39569790724977L747.7574663798014,311.33036120368365L763.6671997070313,312.88253970333125L779.5769330342611,311.8889922719907L795.486666361491,312.3008197623825L811.3963996887206,310.96736978281047L827.3061330159505,306.5811147696908L843.2158663431803,310.1834169495734L859.1255996704102,310.2880502935993" fill="none"></path></g></g></g></g></g></g><g transform="translate(51, 377)" clip-path="url(#clip_1)"><clipPath id="clip_1"><rect width="954" height="22"></rect></clipPath><g><g><line x1="0" y1="0" x2="0" y2="5" style="visibility: inherit;" fill="rgb(0, 0, 0)" stroke="rgb(204, 204, 204)" stroke-width="1px"></line><line x1="79.54866663614908" y1="0" x2="79.54866663614908" y2="5" style="visibility: inherit;" fill="rgb(0, 0, 0)" stroke="rgb(204, 204, 204)" stroke-width="1px"></line><line x1="159.09733327229816" y1="0" x2="159.09733327229816" y2="5" style="visibility: inherit;" fill="rgb(0, 0, 0)" stroke="rgb(204, 204, 204)" stroke-width="1px"></line><line x1="238.64599990844727" y1="0" x2="238.64599990844727" y2="5" style="visibility: inherit;" fill="rgb(0, 0, 0)" stroke="rgb(204, 204, 204)" stroke-width="1px"></line><line x1="318.1946665445963" y1="0" x2="318.1946665445963" y2="5" style="visibility: inherit;" fill="rgb(0, 0, 0)" stroke="rgb(204, 204, 204)" stroke-width="1px"></line><line x1="397.7433331807455" y1="0" x2="397.7433331807455" y2="5" style="visibility: inherit;" fill="rgb(0, 0, 0)" stroke="rgb(204, 204, 204)" stroke-width="1px"></line><line x1="477.29199981689453" y1="0" x2="477.29199981689453" y2="5" style="visibility: inherit;" fill="rgb(0, 0, 0)" stroke="rgb(204, 204, 204)" stroke-width="1px"></line><line x1="556.8406664530437" y1="0" x2="556.8406664530437" y2="5" style="visibility: inherit;" fill="rgb(0, 0, 0)" stroke="rgb(204, 204, 204)" stroke-width="1px"></line><line x1="636.3893330891926" y1="0" x2="636.3893330891926" y2="5" style="visibility: inherit;" fill="rgb(0, 0, 0)" stroke="rgb(204, 204, 204)" stroke-width="1px"></line><line x1="715.9379997253418" y1="0" x2="715.9379997253418" y2="5" style="visibility: inherit;" fill="rgb(0, 0, 0)" stroke="rgb(204, 204, 204)" stroke-width="1px"></line><line x1="795.486666361491" y1="0" x2="795.486666361491" y2="5" style="visibility: inherit;" fill="rgb(0, 0, 0)" stroke="rgb(204, 204, 204)" stroke-width="1px"></line><line x1="875.0353329976399" y1="0" x2="875.0353329976399" y2="5" style="visibility: inherit;" fill="rgb(0, 0, 0)" stroke="rgb(204, 204, 204)" stroke-width="1px"></line><line x1="954.5839996337891" y1="0" x2="954.5839996337891" y2="5" style="visibility: inherit;" fill="rgb(0, 0, 0)" stroke="rgb(204, 204, 204)" stroke-width="1px"></line></g><g transform="translate(0, 8)"><text style="text-anchor: middle; visibility: hidden; font-family: Roboto, sans-serif; font-size: 12px; font-weight: 200;" x="0" y="0" dx="0em" dy="0.95em" fill="rgb(50, 49, 63)" stroke="none" stroke-width="1px">-5</text><text style="text-anchor: middle; visibility: inherit; font-family: Roboto, sans-serif; font-size: 12px; font-weight: 200;" x="79.54866663614908" y="0" dx="0em" dy="0.95em" fill="rgb(50, 49, 63)" stroke="none" stroke-width="1px">0</text><text style="text-anchor: middle; visibility: inherit; font-family: Roboto, sans-serif; font-size: 12px; font-weight: 200;" x="159.09733327229816" y="0" dx="0em" dy="0.95em" fill="rgb(50, 49, 63)" stroke="none" stroke-width="1px">5</text><text style="text-anchor: middle; visibility: inherit; font-family: Roboto, sans-serif; font-size: 12px; font-weight: 200;" x="238.64599990844727" y="0" dx="0em" dy="0.95em" fill="rgb(50, 49, 63)" stroke="none" stroke-width="1px">10</text><text style="text-anchor: middle; visibility: inherit; font-family: Roboto, sans-serif; font-size: 12px; font-weight: 200;" x="318.1946665445963" y="0" dx="0em" dy="0.95em" fill="rgb(50, 49, 63)" stroke="none" stroke-width="1px">15</text><text style="text-anchor: middle; visibility: inherit; font-family: Roboto, sans-serif; font-size: 12px; font-weight: 200;" x="397.7433331807455" y="0" dx="0em" dy="0.95em" fill="rgb(50, 49, 63)" stroke="none" stroke-width="1px">20</text><text style="text-anchor: middle; visibility: inherit; font-family: Roboto, sans-serif; font-size: 12px; font-weight: 200;" x="477.29199981689453" y="0" dx="0em" dy="0.95em" fill="rgb(50, 49, 63)" stroke="none" stroke-width="1px">25</text><text style="text-anchor: middle; visibility: inherit; font-family: Roboto, sans-serif; font-size: 12px; font-weight: 200;" x="556.8406664530437" y="0" dx="0em" dy="0.95em" fill="rgb(50, 49, 63)" stroke="none" stroke-width="1px">30</text><text style="text-anchor: middle; visibility: inherit; font-family: Roboto, sans-serif; font-size: 12px; font-weight: 200;" x="636.3893330891926" y="0" dx="0em" dy="0.95em" fill="rgb(50, 49, 63)" stroke="none" stroke-width="1px">35</text><text style="text-anchor: middle; visibility: inherit; font-family: Roboto, sans-serif; font-size: 12px; font-weight: 200;" x="715.9379997253418" y="0" dx="0em" dy="0.95em" fill="rgb(50, 49, 63)" stroke="none" stroke-width="1px">40</text><text style="text-anchor: middle; visibility: inherit; font-family: Roboto, sans-serif; font-size: 12px; font-weight: 200;" x="795.486666361491" y="0" dx="0em" dy="0.95em" fill="rgb(50, 49, 63)" stroke="none" stroke-width="1px">45</text><text style="text-anchor: middle; visibility: inherit; font-family: Roboto, sans-serif; font-size: 12px; font-weight: 200;" x="875.0353329976399" y="0" dx="0em" dy="0.95em" fill="rgb(50, 49, 63)" stroke="none" stroke-width="1px">50</text><text style="text-anchor: middle; visibility: hidden; font-family: Roboto, sans-serif; font-size: 12px; font-weight: 200;" x="954.5839996337891" y="0" dx="0em" dy="0.95em" fill="rgb(50, 49, 63)" stroke="none" stroke-width="1px">55</text></g><line x1="0" y1="0" x2="954.5839996337891" y2="0" fill="rgb(0, 0, 0)" stroke="rgb(204, 204, 204)" stroke-width="1px"></line></g></g></g></g></svg>