<svg viewBox="0 0 1006 400" xmlns="http://www.w3.org/2000/svg"><g><g><g><g><g><line x1="51.41600036621094" y1="377.95999908447266" x2="46.41600036621094" y2="377.95999908447266" style="visibility: inherit;" fill="rgb(0, 0, 0)" stroke="rgb(204, 204, 204)" stroke-width="1px"></line><line x1="51.41600036621094" y1="340.1639991760254" x2="46.41600036621094" y2="340.1639991760254" style="visibility: inherit;" fill="rgb(0, 0, 0)" stroke="rgb(204, 204, 204)" stroke-width="1px"></line><line x1="51.41600036621094" y1="302.3679992675781" x2="46.41600036621094" y2="302.3679992675781" style="visibility: inherit;" fill="rgb(0, 0, 0)" stroke="rgb(204, 204, 204)" stroke-width="1px"></line><line x1="51.41600036621094" y1="264.57199935913087" x2="46.41600036621094" y2="264.57199935913087" style="visibility: inherit;" fill="rgb(0, 0, 0)" stroke="rgb(204, 204, 204)" stroke-width="1px"></line><line x1="51.41600036621094" y1="226.7759994506836" x2="46.41600036621094" y2="226.7759994506836" style="visibility: inherit;" fill="rgb(0, 0, 0)" stroke="rgb(204, 204, 204)" stroke-width="1px"></line><line x1="51.41600036621094" y1="188.97999954223633" x2="46.41600036621094" y2="188.97999954223633" style="visibility: inherit;" fill="rgb(0, 0, 0)" stroke="rgb(204, 204, 204)" stroke-width="1px"></line><line x1="51.41600036621094" y1="151.18399963378906" x2="46.41600036621094" y2="151.18399963378906" style="visibility: inherit;" fill="rgb(0, 0, 0)" stroke="rgb(204, 204, 204)" stroke-width="1px"></line><line x1="51.41600036621094" y1="113.38799972534181" x2="46.41600036621094" y2="113.38799972534181" style="visibility: inherit;" fill="rgb(0, 0, 0)" stroke="rgb(204, 204, 204)" stroke-width="1px"></line><line x1="51.41600036621094" y1="75.59199981689451" x2="46.41600036621094" y2="75.59199981689451" style="visibility: inherit;" fill="rgb(0, 0, 0)" stroke="rgb(204, 204, 204)" stroke-width="1px"></line><line x1="51.41600036621094" y1="37.79599990844726" x2="46.41600036621094" y2="37.79599990844726" style="visibility: inherit;" fill="rgb(0, 0, 0)" stroke="rgb(204, 204, 204)" stroke-width="1px"></line><line x1="51.41600036621094" y1="0" x2="46.41600036621094" y2="0" style="visibility: inherit;" fill="rgb(0, 0, 0)" stroke="rgb(204, 204, 204)" stroke-width="1px"></line></g><g transform="translate(41.41600036621094, 0)"><text style="text-anchor: end; visibility: hidden; font-family: Roboto, sans-serif; font-size: 12px; font-weight: 200;" x="0" y="377.95999908447266" dx="0em" dy="0.3em" fill="rgb(50, 49, 63)" stroke="none" stroke-width="1px">-0.5</text><text style="text-anchor: end; visibility: inherit; font-family: Roboto, sans-serif; font-size: 12px; font-weight: 200;" x="0" y="340.1639991760254" dx="0em" dy="0.3em" fill="rgb(50, 49, 63)" stroke="none" stroke-width="1px">0</text><text style="text-anchor: end; visibility: inherit; font-family: Roboto, sans-serif; font-size: 12px; font-weight: 200;" x="0" y="302.3679992675781" dx="0em" dy="0.3em" fill="rgb(50, 49, 63)" stroke="none" stroke-width="1px">0.5</text><text style="text-anchor: end; visibility: inherit; font-family: Roboto, sans-serif; font-size: 12px; font-weight: 200;" x="0" y="264.57199935913087" dx="0em" dy="0.3em" fill="rgb(50, 49, 63)" stroke="none" stroke-width="1px">1</text><text style="text-anchor: end; visibility: inherit; font-family: Roboto, sans-serif; font-size: 12px; font-weight: 200;" x="0" y="226.7759994506836" dx="0em" dy="0.3em" fill="rgb(50, 49, 63)" stroke="none" stroke-width="1px">1.5</text><text style="text-anchor: end; visibility: inherit; font-family: Roboto, sans-serif; font-size: 12px; font-weight: 200;" x="0" y="188.97999954223633" dx="0em" dy="0.3em" fill="rgb(50, 49, 63)" stroke="none" stroke-width="1px">2</text><text style="text-anchor: end; visibility: inherit; font-family: Roboto, sans-serif; font-size: 12px; font-weight: 200;" x="0" y="151.18399963378906" dx="0em" dy="0.3em" fill="rgb(50, 49, 63)" stroke="none" stroke-width="1px">2.5</text><text style="text-anchor: end; visibility: inherit; font-family: Roboto, sans-serif; font-size: 12px; font-weight: 200;" x="0" y="113.38799972534181" dx="0em" dy="0.3em" fill="rgb(50, 49, 63)" stroke="none" stroke-width="1px">3</text><text style="text-anchor: end; visibility: inherit; font-family: Roboto, sans-serif; font-size: 12px; font-weight: 200;" x="0" y="75.59199981689451" dx="0em" dy="0.3em" fill="rgb(50, 49, 63)" stroke="none" stroke-width="1px">3.5</text><text style="text-anchor: end; visibility: inherit; font-family: Roboto, sans-serif; font-size: 12px; font-weight: 200;" x="0" y="37.79599990844726" dx="0em" dy="0.3em" fill="rgb(50, 49, 63)" stroke="none" stroke-width="1px">4</text><text style="text-anchor: end; visibility: hidden; font-family: Roboto, sans-serif; font-size: 12px; font-weight: 200;" x="0" y="0" dx="0em" dy="0.3em" fill="rgb(50, 49, 63)" stroke="none" stroke-width="1px">4.5</text></g><line x1="51.41600036621094" y1="0" x2="51.41600036621094" y2="377.95999908447266" fill="rgb(0, 0, 0)" stroke="rgb(204, 204, 204)" stroke-width="1px"></line></g></g><g transform="translate(51, 0)" clip-path="url(#clip_0)"><clipPath id="clip_0"><rect width="954" height="377"></rect></clipPath><g><g><g><line x1="0" y1="0" x2="0" y2="377.95999908447266" fill="rgb(0, 0, 0)" stroke="rgb(60, 60, 60)" stroke-width="1px" opacity="0.25"></line><line x1="79.54866663614908" y1="0" x2="79.54866663614908" y2="377.95999908447266" fill="rgb(0, 0, 0)" stroke="rgb(60, 60, 60)" stroke-width="1px" opacity="0.25"></line><line x1="159.09733327229816" y1="0" x2="159.09733327229816" y2="377.95999908447266" fill="rgb(0, 0, 0)" stroke="rgb(60, 60, 60)" stroke-width="1px" opacity="0.25"></line><line x1="238.64599990844727" y1="0" x2="238.64599990844727" y2="377.95999908447266" fill="rgb(0, 0, 0)" stroke="rgb(60, 60, 60)" stroke-width="1px" opacity="0.25"></line><line x1="318.1946665445963" y1="0" x2="318.1946665445963" y2="377.95999908447266" fill="rgb(0, 0, 0)" stroke="rgb(60, 60, 60)" stroke-width="1px" opacity="0.25"></line><line x1="397.7433331807455" y1="0" x2="397.7433331807455" y2="377.95999908447266" fill="rgb(0, 0, 0)" stroke="rgb(60, 60, 60)" stroke-width="1px" opacity="0.25"></line><line x1="477.29199981689453" y1="0" x2="477.29199981689453" y2="377.95999908447266" fill="rgb(0, 0, 0)" stroke="rgb(60, 60, 60)" stroke-width="1px" opacity="0.25"></line><line x1="556.8406664530437" y1="0" x2="556.8406664530437" y2="377.95999908447266" fill="rgb(0, 0, 0)" stroke="rgb(60, 60, 60)" stroke-width="1px" opacity="0.25"></line><line x1="636.3893330891926" y1="0" x2="636.3893330891926" y2="377.95999908447266" fill="rgb(0, 0, 0)" stroke="rgb(60, 60, 60)" stroke-width="1px" opacity="0.25"></line><line x1="715.9379997253418" y1="0" x2="715.9379997253418" y2="377.95999908447266" fill="rgb(0, 0, 0)" stroke="rgb(60, 60, 60)" stroke-width="1px" opacity="0.25"></line><line x1="795.486666361491" y1="0" x2="795.486666361491" y2="377.95999908447266" fill="rgb(0, 0, 0)" stroke="rgb(60, 60, 60)" stroke-width="1px" opacity="0.25"></line><line x1="875.0353329976399" y1="0" x2="875.0353329976399" y2="377.95999908447266" fill="rgb(0, 0, 0)" stroke="rgb(60, 60, 60)" stroke-width="1px" opacity="0.25"></line><line x1="954.5839996337891" y1="0" x2="954.5839996337891" y2="377.95999908447266" fill="rgb(0, 0, 0)" stroke="rgb(60, 60, 60)" stroke-width="1px" opacity="0.25"></line></g><g><line x1="0" y1="377.95999908447266" x2="954.5839996337891" y2="377.95999908447266" fill="rgb(0, 0, 0)" stroke="rgb(60, 60, 60)" stroke-width="1px" opacity="0.25"></line><line x1="0" y1="340.1639991760254" x2="954.5839996337891" y2="340.1639991760254" fill="rgb(0, 0, 0)" stroke="rgb(60, 60, 60)" stroke-width="1px" opacity="0.25"></line><line x1="0" y1="302.3679992675781" x2="954.5839996337891" y2="302.3679992675781" fill="rgb(0, 0, 0)" stroke="rgb(60, 60, 60)" stroke-width="1px" opacity="0.25"></line><line x1="0" y1="264.57199935913087" x2="954.5839996337891" y2="264.57199935913087" fill="rgb(0, 0, 0)" stroke="rgb(60, 60, 60)" stroke-width="1px" opacity="0.25"></line><line x1="0" y1="226.7759994506836" x2="954.5839996337891" y2="226.7759994506836" fill="rgb(0, 0, 0)" stroke="rgb(60, 60, 60)" stroke-width="1px" opacity="0.25"></line><line x1="0" y1="188.97999954223633" x2="954.5839996337891" y2="188.97999954223633" fill="rgb(0, 0, 0)" stroke="rgb(60, 60, 60)" stroke-width="1px" opacity="0.25"></line><line x1="0" y1="151.18399963378906" x2="954.5839996337891" y2="151.18399963378906" fill="rgb(0, 0, 0)" stroke="rgb(60, 60, 60)" stroke-width="1px" opacity="0.25"></line><line x1="0" y1="113.38799972534181" x2="954.5839996337891" y2="113.38799972534181" fill="rgb(0, 0, 0)" stroke="rgb(60, 60, 60)" stroke-width="1px" opacity="0.25"></line><line x1="0" y1="75.59199981689451" x2="954.5839996337891" y2="75.59199981689451" fill="rgb(0, 0, 0)" stroke="rgb(60, 60, 60)" stroke-width="1px" opacity="0.25"></line><line x1="0" y1="37.79599990844726" x2="954.5839996337891" y2="37.79599990844726" fill="rgb(0, 0, 0)" stroke="rgb(60, 60, 60)" stroke-width="1px" opacity="0.25"></line><line x1="0" y1="0" x2="954.5839996337891" y2="0" fill="rgb(0, 0, 0)" stroke="rgb(60, 60, 60)" stroke-width="1px" opacity="0.25"></line></g></g></g><g><g><line x1="0" y1="340.1639991760254" x2="954.5839996337891" y2="340.1639991760254" fill="rgb(0, 0, 0)" stroke="rgb(153, 153, 153)" stroke-width="1.5px"></line></g></g><g><g><line x1="79.54866663614908" y1="0" x2="79.54866663614908" y2="377.95999908447266" fill="rgb(0, 0, 0)" stroke="rgb(153, 153, 153)" stroke-width="1.5px"></line></g></g><g><g><g><g><g><path style="fill: none;" stroke="rgb(0, 119, 187)" stroke-width="2px" d="M79.54866663614908,-662.013784422414L95.45839996337891,55.04520804804598L111.36813329060872,48.56174447503619L127.27786661783854,176.1830068993604L143.18759994506834,187.21780992362582L159.09733327229816,198.96290817226782L175.00706659952797,207.39641928026504L190.91679992675782,208.1117337812484L206.82653325398763,208.94608714035712L222.73626658121745,208.93232693321423L238.64599990844727,209.08508595841795L254.55573323567708,209.15137285019463L270.4654665629069,209.16475458405657L286.3751998901367,209.16209625982137L302.28493321736653,209.16984595081212L318.1946665445963,209.17030552551043L334.10439987182616,209.17043168327072L350.01413319905595,209.1704497058079L365.92386652628585,209.1704497058079L381.83359985351564,209.17044069453934L397.7433331807455,209.17044069453934L413.65306650797527,209.17044069453934L429.5627998352051,209.17044069453934L445.4725331624349,209.17044069453934L461.38226648966474,209.17044069453934L477.29199981689453,209.17044069453934L493.2017331441244,209.17044069453934L509.11146647135416,209.17044069453934L525.021199798584,209.17044069453934L540.9309331258138,209.17044069453934L556.8406664530437,209.17044069453934L572.7503997802734,209.17044069453934L588.6601331075033,209.17044069453934L604.5698664347331,209.17044069453934L620.479599761963,209.17044069453934L636.3893330891926,209.17044069453934L652.2990664164225,209.17044069453934L668.2087997436523,209.17044069453934L684.1185330708822,209.17044069453934L700.0282663981119,209.17044069453934L715.9379997253418,209.17044069453934L731.8477330525717,209.17044069453934L747.7574663798014,209.17044069453934L763.6671997070313,209.17044069453934L779.5769330342611,209.17044069453934L795.486666361491,209.17044069453934L811.3963996887206,209.17044069453934L827.3061330159505,209.17044069453934L843.2158663431803,209.17044069453934L859.1255996704102,209.17044069453934" fill="none"></path></g><g><path style="fill: none;" stroke="rgb(51, 187, 238)" stroke-width="2px" d="M79.54866663614908,-176.70996786419417L95.45839996337891,44.39152761769073L111.36813329060872,145.34195815929272L127.27786661783854,185.11755355244676L143.18759994506834,197.30206829153283L159.09733327229816,197.97796750368653L175.00706659952797,202.59538658754119L190.91679992675782,205.4899682627349L206.82653325398763,205.94200052921042L222.73626658121745,206.02285864230342L238.64599990844727,206.0148025681805L254.55573323567708,206.02451671572473L270.4654665629069,206.02448067065032L286.3751998901367,206.01777628681648L302.28493321736653,206.01683010361413L318.1946665445963,206.0171454980149L334.10439987182616,206.01719055435788L350.01413319905595,206.01720857689506L365.92386652628585,206.01722659943223L381.83359985351564,206.01722659943223L397.7433331807455,206.01721758816367L413.65306650797527,206.01721758816367L429.5627998352051,206.01721758816367L445.4725331624349,206.01721758816367L461.38226648966474,206.01721758816367L477.29199981689453,206.01721758816367L493.2017331441244,206.01721758816367L509.11146647135416,206.01721758816367L525.021199798584,206.01721758816367L540.9309331258138,206.01721758816367L556.8406664530437,206.01721758816367L572.7503997802734,206.01721758816367L588.6601331075033,206.01721758816367L604.5698664347331,206.01721758816367L620.479599761963,206.01721758816367L636.3893330891926,206.01721758816367L652.2990664164225,206.01721758816367L668.2087997436523,206.01721758816367L684.1185330708822,206.01721758816367L700.0282663981119,206.01721758816367L715.9379997253418,206.01721758816367L731.8477330525717,206.01721758816367L747.7574663798014,206.01721758816367L763.6671997070313,206.01721758816367L779.5769330342611,206.01721758816367L795.486666361491,206.01721758816367L811.3963996887206,206.01721758816367L827.3061330159505,206.01721758816367L843.2158663431803,206.01721758816367L859.1255996704102,206.01721758816367" fill="none"></path></g><g><path style="fill: none;" stroke="rgb(0, 153, 136)" stroke-width="2px" d="M79.54866663614908,-112.47126534874769L95.45839996337891,30.860639237990853L111.36813329060872,170.50387113850448L127.27786661783854,178.04702385308192L143.18759994506834,186.61082889367825L159.09733327229816,195.41149512926515L175.00706659952797,200.3441644336086L190.91679992675782,201.6602782342841L206.82653325398763,202.61567996441462L222.73626658121745,202.68166948432773L238.64599990844727,202.78744375508288L254.55573323567708,202.80497968376656L270.4654665629069,202.81611761174864L286.3751998901367,202.8142342566125L302.28493321736653,202.8148019665339L318.1946665445963,202.81506329332316L334.10439987182616,202.81510834966613L350.01413319905595,202.81509933839752L365.92386652628585,202.81509933839752L381.83359985351564,202.81509933839752L397.7433331807455,202.81509933839752L413.65306650797527,202.81509933839752L429.5627998352051,202.81509933839752L445.4725331624349,202.81509933839752L461.38226648966474,202.81509933839752L477.29199981689453,202.81509933839752L493.2017331441244,202.81509933839752L509.11146647135416,202.81509933839752L525.021199798584,202.81509933839752L540.9309331258138,202.81509933839752L556.8406664530437,202.81509933839752L572.7503997802734,202.81509933839752L588.6601331075033,202.81509933839752L604.5698664347331,202.81509933839752L620.479599761963,202.81509933839752L636.3893330891926,202.81509933839752L652.2990664164225,202.81509933839752L668.2087997436523,202.81509933839752L684.1185330708822,202.81509933839752L700.0282663981119,202.81509933839752L715.9379997253418,202.81509933839752L731.8477330525717,202.81509933839752L747.7574663798014,202.81509933839752L763.6671997070313,202.81509933839752L779.5769330342611,202.81509933839752L795.486666361491,202.81509933839752L811.3963996887206,202.81509933839752L827.3061330159505,202.81509933839752L843.2158663431803,202.81509933839752L859.1255996704102,202.81509933839752" fill="none"></path></g><g><path style="fill: none;" stroke="rgb(255, 112, 67)" stroke-width="2px" d="M79.54866663614908,-883.8059035293351L95.45839996337891,52.417413990843116L111.36813329060872,197.04858130598657L127.27786661783854,243.40579100967514L143.18759994506834,272.9613687679209L159.09733327229816,276.6762777626569L175.00706659952797,280.8291028716161L190.91679992675782,284.52390772611915L206.82653325398763,284.03462287527645L222.73626658121745,284.51678431829566L238.64599990844727,286.8021636858334L254.55573323567708,285.3474205291094L270.4654665629069,285.2852968434231L286.3751998901367,286.4139492235398L302.28493321736653,286.6538382047779L318.1946665445963,283.8931549696209L334.10439987182616,287.6330341896306L350.01413319905595,285.42725135758275L365.92386652628585,285.9769837981533L381.83359985351564,283.8777772397654L397.7433331807455,285.97922309839885L413.65306650797527,286.2920763214417L429.5627998352051,283.6401816263845L445.4725331624349,283.40982656731876L461.38226648966474,284.53369396381214L477.29199981689453,286.14483219261746L493.2017331441244,285.1377238032952L509.11146647135416,285.79281149063127L525.021199798584,284.5220919554975L540.9309331258138,285.9650438672664L556.8406664530437,285.92019928910884L572.7503997802734,283.3042595557413L588.6601331075033,285.0516751994921L604.5698664347331,286.47396877800946L620.479599761963,284.1289618461859L636.3893330891926,285.75340971870446L652.2990664164225,284.05200561239405L668.2087997436523,288.193931591989L684.1185330708822,285.58148372520156L700.0282663981119,283.9027654875763L715.9379997253418,284.9497262122551L731.8477330525717,284.88050164691674L747.7574663798014,283.2740042214373L763.6671997070313,285.311150173019L779.5769330342611,287.3163106267267L795.486666361491,285.9580646397404L811.3963996887206,285.85094768996476L827.3061330159505,284.9118428390863L843.2158663431803,286.67389728866794L859.1255996704102,286.3080217612186" fill="none"></path></g><g><path style="fill: none;" stroke="rgb(204, 51, 17)" stroke-width="2px" d="M79.54866663614908,-355.64442144840285L95.45839996337891,123.73336861202552L111.36813329060872,231.92813820163136L127.27786661783854,278.2193223403325L143.18759994506834,291.04747595000606L159.09733327229816,296.52684990867255L175.00706659952797,297.3941259375891L190.91679992675782,299.2581203631391L206.82653325398763,299.1351931426155L222.73626658121745,300.6628419678984L238.64599990844727,300.32205831784876L254.55573323567708,298.56532952800615L270.4654665629069,298.3510100214033L286.3751998901367,299.3729689813683L302.28493321736653,299.04165617461086L318.1946665445963,301.4654576390194L334.10439987182616,298.59442691429587L350.01413319905595,299.8499309224088L365.92386652628585,303.042141282356L381.83359985351564,299.44906013337516L397.7433331807455,301.2254830507297L413.65306650797527,302.24188205797225L429.5627998352051,298.5200929596648L445.4725331624349,301.119442947551L461.38226648966474,299.3336528164931L477.29199981689453,300.30398171304944L493.2017331441244,299.4588463710681L509.11146647135416,299.43210993715L525.021199798584,299.36091190398963L540.9309331258138,300.1785673823939L556.8406664530437,299.94391845384314L572.7503997802734,302.323357442964L588.6601331075033,300.1863260846532L604.5698664347331,299.49393625097275L620.479599761963,302.19679417556273L636.3893330891926,301.5358897143493L652.2990664164225,299.8966318218967L668.2087997436523,299.84018523542454L684.1185330708822,300.54647044527684L700.0282663981119,300.768850531637L715.9379997253418,297.7413977010263L731.8477330525717,300.03806818811216L747.7574663798014,300.08222340422225L763.6671997070313,300.83561502064913L779.5769330342611,299.59163191943344L795.486666361491,299.8303629526572L811.3963996887206,298.95638704554113L827.3061330159505,301.26170835047714L843.2158663431803,300.5400003544264L859.1255996704102,302.81821801624915" fill="none"></path></g><g><path style="fill: none;" stroke="rgb(238, 51, 119)" stroke-width="2px" d="M79.54866663614908,-358.93043460877817L95.45839996337891,137.18439912944632L111.36813329060872,237.28194013244192L127.27786661783854,272.1947170697581L143.18759994506834,290.9078598600466L159.09733327229816,293.06235055125796L175.00706659952797,300.09049574879145L190.91679992675782,298.94644311064775L206.82653325398763,299.1456687423559L222.73626658121745,297.5027883199285L238.64599990844727,300.38387111476857L254.55573323567708,300.0280071067271L270.4654665629069,297.93796050286494L286.3751998901367,296.36231315541664L302.28493321736653,297.11440714916597L318.1946665445963,300.13002367847855L334.10439987182616,298.84181327100407L350.01413319905595,299.51498657440806L365.92386652628585,299.01030597117267L381.83359985351564,299.3003111226957L397.7433331807455,302.2769494097054L413.65306650797527,300.42776950972376L429.5627998352051,300.6202051505464L445.4725331624349,301.67082445027427L461.38226648966474,298.29363076863166L477.29199981689453,297.90355547937344L493.2017331441244,296.91827238258554L509.11146647135416,299.21641621208653L525.021199798584,299.3387171494429L540.9309331258138,298.9999655404612L556.8406664530437,300.0382979754613L572.7503997802734,301.0315515393205L588.6601331075033,297.89776573930186L604.5698664347331,301.2022565059289L620.479599761963,297.3676553360945L636.3893330891926,300.68430230405477L652.2990664164225,299.32963829633456L668.2087997436523,296.4458971772593L684.1185330708822,300.07561363870866L700.0282663981119,297.5158907044641L715.9379997253418,298.0061577835835L731.8477330525717,299.4911607802458L747.7574663798014,296.58517985028084L763.6671997070313,300.9420020576687L779.5769330342611,298.84918899434814L795.486666361491,299.6600499762326L811.3963996887206,298.8425882401031L827.3061330159505,299.0005918236285L843.2158663431803,300.24248431053036L859.1255996704102,298.63194082545226" fill="none"></path></g></g></g></g></g></g><g transform="translate(51, 377)" clip-path="url(#clip_1)"><clipPath id="clip_1"><rect width="954" height="22"></rect></clipPath><g><g><line x1="0" y1="0" x2="0" y2="5" style="visibility: inherit;" fill="rgb(0, 0, 0)" stroke="rgb(204, 204, 204)" stroke-width="1px"></line><line x1="79.54866663614908" y1="0" x2="79.54866663614908" y2="5" style="visibility: inherit;" fill="rgb(0, 0, 0)" stroke="rgb(204, 204, 204)" stroke-width="1px"></line><line x1="159.09733327229816" y1="0" x2="159.09733327229816" y2="5" style="visibility: inherit;" fill="rgb(0, 0, 0)" stroke="rgb(204, 204, 204)" stroke-width="1px"></line><line x1="238.64599990844727" y1="0" x2="238.64599990844727" y2="5" style="visibility: inherit;" fill="rgb(0, 0, 0)" stroke="rgb(204, 204, 204)" stroke-width="1px"></line><line x1="318.1946665445963" y1="0" x2="318.1946665445963" y2="5" style="visibility: inherit;" fill="rgb(0, 0, 0)" stroke="rgb(204, 204, 204)" stroke-width="1px"></line><line x1="397.7433331807455" y1="0" x2="397.7433331807455" y2="5" style="visibility: inherit;" fill="rgb(0, 0, 0)" stroke="rgb(204, 204, 204)" stroke-width="1px"></line><line x1="477.29199981689453" y1="0" x2="477.29199981689453" y2="5" style="visibility: inherit;" fill="rgb(0, 0, 0)" stroke="rgb(204, 204, 204)" stroke-width="1px"></line><line x1="556.8406664530437" y1="0" x2="556.8406664530437" y2="5" style="visibility: inherit;" fill="rgb(0, 0, 0)" stroke="rgb(204, 204, 204)" stroke-width="1px"></line><line x1="636.3893330891926" y1="0" x2="636.3893330891926" y2="5" style="visibility: inherit;" fill="rgb(0, 0, 0)" stroke="rgb(204, 204, 204)" stroke-width="1px"></line><line x1="715.9379997253418" y1="0" x2="715.9379997253418" y2="5" style="visibility: inherit;" fill="rgb(0, 0, 0)" stroke="rgb(204, 204, 204)" stroke-width="1px"></line><line x1="795.486666361491" y1="0" x2="795.486666361491" y2="5" style="visibility: inherit;" fill="rgb(0, 0, 0)" stroke="rgb(204, 204, 204)" stroke-width="1px"></line><line x1="875.0353329976399" y1="0" x2="875.0353329976399" y2="5" style="visibility: inherit;" fill="rgb(0, 0, 0)" stroke="rgb(204, 204, 204)" stroke-width="1px"></line><line x1="954.5839996337891" y1="0" x2="954.5839996337891" y2="5" style="visibility: inherit;" fill="rgb(0, 0, 0)" stroke="rgb(204, 204, 204)" stroke-width="1px"></line></g><g transform="translate(0, 8)"><text style="text-anchor: middle; visibility: hidden; font-family: Roboto, sans-serif; font-size: 12px; font-weight: 200;" x="0" y="0" dx="0em" dy="0.95em" fill="rgb(50, 49, 63)" stroke="none" stroke-width="1px">-5</text><text style="text-anchor: middle; visibility: inherit; font-family: Roboto, sans-serif; font-size: 12px; font-weight: 200;" x="79.54866663614908" y="0" dx="0em" dy="0.95em" fill="rgb(50, 49, 63)" stroke="none" stroke-width="1px">0</text><text style="text-anchor: middle; visibility: inherit; font-family: Roboto, sans-serif; font-size: 12px; font-weight: 200;" x="159.09733327229816" y="0" dx="0em" dy="0.95em" fill="rgb(50, 49, 63)" stroke="none" stroke-width="1px">5</text><text style="text-anchor: middle; visibility: inherit; font-family: Roboto, sans-serif; font-size: 12px; font-weight: 200;" x="238.64599990844727" y="0" dx="0em" dy="0.95em" fill="rgb(50, 49, 63)" stroke="none" stroke-width="1px">10</text><text style="text-anchor: middle; visibility: inherit; font-family: Roboto, sans-serif; font-size: 12px; font-weight: 200;" x="318.1946665445963" y="0" dx="0em" dy="0.95em" fill="rgb(50, 49, 63)" stroke="none" stroke-width="1px">15</text><text style="text-anchor: middle; visibility: inherit; font-family: Roboto, sans-serif; font-size: 12px; font-weight: 200;" x="397.7433331807455" y="0" dx="0em" dy="0.95em" fill="rgb(50, 49, 63)" stroke="none" stroke-width="1px">20</text><text style="text-anchor: middle; visibility: inherit; font-family: Roboto, sans-serif; font-size: 12px; font-weight: 200;" x="477.29199981689453" y="0" dx="0em" dy="0.95em" fill="rgb(50, 49, 63)" stroke="none" stroke-width="1px">25</text><text style="text-anchor: middle; visibility: inherit; font-family: Roboto, sans-serif; font-size: 12px; font-weight: 200;" x="556.8406664530437" y="0" dx="0em" dy="0.95em" fill="rgb(50, 49, 63)" stroke="none" stroke-width="1px">30</text><text style="text-anchor: middle; visibility: inherit; font-family: Roboto, sans-serif; font-size: 12px; font-weight: 200;" x="636.3893330891926" y="0" dx="0em" dy="0.95em" fill="rgb(50, 49, 63)" stroke="none" stroke-width="1px">35</text><text style="text-anchor: middle; visibility: inherit; font-family: Roboto, sans-serif; font-size: 12px; font-weight: 200;" x="715.9379997253418" y="0" dx="0em" dy="0.95em" fill="rgb(50, 49, 63)" stroke="none" stroke-width="1px">40</text><text style="text-anchor: middle; visibility: inherit; font-family: Roboto, sans-serif; font-size: 12px; font-weight: 200;" x="795.486666361491" y="0" dx="0em" dy="0.95em" fill="rgb(50, 49, 63)" stroke="none" stroke-width="1px">45</text><text style="text-anchor: middle; visibility: inherit; font-family: Roboto, sans-serif; font-size: 12px; font-weight: 200;" x="875.0353329976399" y="0" dx="0em" dy="0.95em" fill="rgb(50, 49, 63)" stroke="none" stroke-width="1px">50</text><text style="text-anchor: middle; visibility: hidden; font-family: Roboto, sans-serif; font-size: 12px; font-weight: 200;" x="954.5839996337891" y="0" dx="0em" dy="0.95em" fill="rgb(50, 49, 63)" stroke="none" stroke-width="1px">55</text></g><line x1="0" y1="0" x2="954.5839996337891" y2="0" fill="rgb(0, 0, 0)" stroke="rgb(204, 204, 204)" stroke-width="1px"></line></g></g></g></g></svg>